<svg xmlns="http://www.w3.org/2000/svg" xmlns:xlink="http://www.w3.org/1999/xlink" viewBox="0 0 800 350"><defs><style>.a{fill:none;}.b{clip-path:url(#a);}.c{fill:#e5e5e5;}.d{fill:#1e2e36;}</style><clipPath id="a"><rect class="a" width="800" height="350"/></clipPath></defs><title>dArtboard 7</title><g class="b"><rect class="c" x="0.5" width="799" height="350"/><path d="M74.18,67.65a13.3,13.3,0,0,1-8.69,3.12c-7.63,0-11.33-5.86-11.33-12.63,0-9.36,5.47-13.34,12.34-13.34A15.12,15.12,0,0,1,74,46.91l-.38,6.72-3.07-.29-.67-3.12c-.24-1.53-1.2-2.35-3.8-2.35-4.32,0-7.29,3-7.29,9.5,0,7.49,3.84,9.94,8.06,9.94a11.69,11.69,0,0,0,6-1.58Z"/><path d="M99.14,70.05a7.17,7.17,0,0,1-3.27.72,3.8,3.8,0,0,1-4.17-3.56,8,8,0,0,1-7,3.56c-5.52,0-7.3-3-7.3-6.72,0-6.29,5.43-7.68,13.92-8V53.39c0-3.84-1.29-5.23-4.56-5.23a16.76,16.76,0,0,0-7.15,1.53l-.86-2.35a17,17,0,0,1,8.88-2.54c4.89,0,7.92,2,7.92,8.45V65.63c0,2,.24,2.35,1.92,2.54l1.53.2ZM91.31,58.72C84.59,58.81,82,60,82,63.66c0,2.64,1.58,3.94,4.13,3.94a4.8,4.8,0,0,0,5.18-4.95Z"/><path d="M103.55,68.08c2-.24,2.11-.62,2.11-3.84V48.16h-3.07l.24-2.26,2.83-.57V42.4c0-4.28,1.64-8.12,7.54-8.12a12.58,12.58,0,0,1,6,1.49L119,40.91,116,40.67l-.48-2.21c-.24-1.06-1-1.39-2.35-1.39-2.26,0-3.26,1.2-3.26,4.46v3.8h7.29l-.29,2.83h-7V64.24c0,3.12.38,3.31,3.12,3.74l1.92.19v2.07H102.74V68.17Z"/><path d="M139.79,67.55a14.18,14.18,0,0,1-9,3.22c-7.49,0-11.33-5.72-11.33-12.82,0-9.17,5.37-13.15,11.13-13.15,5.38,0,9.41,3.26,9.41,11.28a18.72,18.72,0,0,1-.14,2.49h-15.7c.15,5.48,3.07,8.64,7.63,8.64a13.41,13.41,0,0,0,6.77-1.72Zm-4.27-11.86c.29-5.42-1.78-8.11-5.23-8.11s-5.86,2.5-6.15,8.11ZM128.22,43l-1.68-1.3L132.83,33,137,35v.72Z"/><path d="M156.16,51.37c0-2.11-.63-2.92-2.26-3.21l-1.39-.24.29-2,6.09-.87.72.34.44,3a10.75,10.75,0,0,1,7.68-3.6c5.37,0,9.21,3.93,9.21,12.43,0,9.41-4.17,13.54-10,13.54a8.9,8.9,0,0,1-6.48-2.6v4.76c0,3.12.19,3.69,1.68,3.84l2.78.29v2H152.94V77l1.3-.14c1.68-.2,1.92-.68,1.92-3.89Zm4.27,14.12a9.05,9.05,0,0,0,5.71,2c3.8,0,6.2-3,6.2-10.08,0-6.33-2.31-9.12-5.81-9.12a10.32,10.32,0,0,0-6.1,2.21Z"/><path d="M189.09,64.14c0,3.12.19,3.7,1.68,3.84l1.73.19v2.07H181.36V68.17l1.53-.19c1.68-.19,1.92-.62,1.92-3.84V51.28c0-2.21-.67-2.83-2.35-3.12l-1.39-.24.29-2,7-.87.72.34Zm-2.79-24A2.81,2.81,0,0,1,183.18,37c0-2,1.2-3,3.12-3s3.17,1,3.17,3S188.32,40.09,186.3,40.09Z"/><path d="M204.16,64.14c0,3.12.05,3.65,1.68,3.89l1.34.19v2h-10.8V68.17l1.54-.19c1.68-.19,1.92-.62,1.92-3.84V51.33c0-2.21-.67-2.93-2.35-3.22l-1.4-.24.29-2,6.29-.82.67.29.43,3.32c2.4-2.21,5-3.89,8.65-3.89,4.27,0,7.34,2.11,7.34,8.69V64.14c0,3.07.24,3.65,1.92,3.84l1.68.24v2h-10.8v-2L214,68c1.49-.19,1.54-.82,1.54-3.6V53.87c0-3.41-1.4-5.38-4.71-5.38a13,13,0,0,0-6.62,2.21Zm9.12-27.6c.62,0,1-.14,2.16-1.82l1.78,1c-1.4,4.08-2.84,5-3.94,5-.82,0-7.35-2-8.35-2-.53,0-1,.19-2.21,1.68L201,39.52c1.49-3.46,2.54-4.9,3.89-4.9C205.93,34.62,212.7,36.54,213.28,36.54Z"/><path d="M248.51,70.05a7.16,7.16,0,0,1-3.26.72,3.81,3.81,0,0,1-4.18-3.56,8,8,0,0,1-7,3.56c-5.52,0-7.29-3-7.29-6.72,0-6.29,5.42-7.68,13.92-8V53.39c0-3.84-1.3-5.23-4.56-5.23A16.8,16.8,0,0,0,229,49.69l-.86-2.35A17,17,0,0,1,237,44.8c4.9,0,7.92,2,7.92,8.45V65.63c0,2,.24,2.35,1.92,2.54l1.54.2Zm-7.82-11.33c-6.72.09-9.32,1.25-9.32,4.94,0,2.64,1.59,3.94,4.13,3.94a4.81,4.81,0,0,0,5.19-4.95Z"/><path d="M266.89,68.7a12.12,12.12,0,0,1-6.62,2.07c-3.89,0-5.57-2.31-5.57-6.72V48.16h-3.89l.29-2.36,3.84-.52,1.59-6H259v6h6.44L265,48.16h-6V63.38c0,2.92.87,4.12,2.93,4.12a9.15,9.15,0,0,0,4-1Z"/><path d="M291.71,70.05a7.16,7.16,0,0,1-3.26.72,3.81,3.81,0,0,1-4.18-3.56,8,8,0,0,1-7,3.56c-5.52,0-7.3-3-7.3-6.72,0-6.29,5.43-7.68,13.93-8V53.39c0-3.84-1.3-5.23-4.56-5.23a16.8,16.8,0,0,0-7.16,1.53l-.86-2.35a17,17,0,0,1,8.88-2.54c4.9,0,7.92,2,7.92,8.45V65.63c0,2,.24,2.35,1.92,2.54l1.54.2Zm-7.82-11.33c-6.72.09-9.32,1.25-9.32,4.94,0,2.64,1.59,3.94,4.13,3.94a4.81,4.81,0,0,0,5.19-4.95Z"/><path d="M311.72,64.05c0,8.11-1.53,11.37-7.77,15.26l-1.35-1.92c2.79-2.11,4.8-5.28,4.8-11.62V51.28c0-2.21-.62-2.83-2.3-3.12l-1.39-.24.29-2,7-.87.72.34Zm-2.4-24A2.81,2.81,0,0,1,306.2,37c0-2,1.2-3,3.12-3s3.17,1,3.17,3S311.34,40.09,309.32,40.09Z"/><path d="M339.23,70.05a7.17,7.17,0,0,1-3.27.72,3.8,3.8,0,0,1-4.17-3.56,8,8,0,0,1-7,3.56c-5.52,0-7.3-3-7.3-6.72,0-6.29,5.43-7.68,13.92-8V53.39c0-3.84-1.29-5.23-4.56-5.23a16.79,16.79,0,0,0-7.15,1.53l-.86-2.35a17,17,0,0,1,8.88-2.54c4.89,0,7.92,2,7.92,8.45V65.63c0,2,.24,2.35,1.92,2.54l1.53.2ZM331.4,58.72c-6.72.09-9.31,1.25-9.31,4.94,0,2.64,1.58,3.94,4.13,3.94a4.8,4.8,0,0,0,5.18-4.95Z"/><path d="M350.36,64.14c0,3.12.19,3.7,1.68,3.84l1.73.19v2.07H342.63V68.17l1.54-.19c1.68-.19,1.92-.62,1.92-3.84V40.76c0-2.2-.62-2.92-2.35-3.21l-1.39-.24.28-2,6.68-.86,1.05.57Z"/><path d="M379.4,70.05a7.13,7.13,0,0,1-3.26.72A3.82,3.82,0,0,1,372,67.21a8,8,0,0,1-7,3.56c-5.52,0-7.29-3-7.29-6.72,0-6.29,5.42-7.68,13.92-8V53.39c0-3.84-1.3-5.23-4.56-5.23a16.73,16.73,0,0,0-7.15,1.53L359,47.34a17,17,0,0,1,8.88-2.54c4.9,0,7.92,2,7.92,8.45V65.63c0,2,.24,2.35,1.92,2.54l1.54.2Zm-7.82-11.33c-6.72.09-9.31,1.25-9.31,4.94,0,2.64,1.58,3.94,4.12,3.94a4.81,4.81,0,0,0,5.19-4.95Z"/><path d="M385.79,51.37c0-2.11-.63-2.92-2.26-3.21l-1.39-.24.28-2,6.1-.87.72.34.43,3a10.77,10.77,0,0,1,7.68-3.6c5.38,0,9.22,3.93,9.22,12.43,0,9.41-4.18,13.54-10,13.54a8.9,8.9,0,0,1-6.48-2.6v4.76c0,3.12.19,3.69,1.68,3.84l2.78.29v2H382.57V77l1.29-.14c1.68-.2,1.93-.68,1.93-3.89Zm4.27,14.12a9.05,9.05,0,0,0,5.71,2c3.79,0,6.19-3,6.19-10.08,0-6.33-2.3-9.12-5.81-9.12a10.29,10.29,0,0,0-6.09,2.21Z"/><path d="M431.19,67.55a14.18,14.18,0,0,1-9,3.22c-7.49,0-11.33-5.72-11.33-12.82,0-9.17,5.37-13.15,11.14-13.15,5.37,0,9.4,3.26,9.4,11.28a18.72,18.72,0,0,1-.14,2.49h-15.7c.15,5.48,3.08,8.64,7.64,8.64A13.37,13.37,0,0,0,430,65.49Zm-4.27-11.86c.29-5.42-1.77-8.11-5.23-8.11s-5.86,2.5-6.15,8.11Z"/><path d="M443.24,64.14c0,3.12.05,3.65,1.68,3.89l1.34.19v2h-10.8V68.17L437,68c1.68-.19,1.92-.62,1.92-3.84V51.33c0-2.21-.67-2.93-2.35-3.22l-1.39-.24.28-2,6.29-.82.67.29.44,3.32c2.4-2.21,5-3.89,8.64-3.89,4.27,0,7.34,2.11,7.34,8.69V64.14c0,3.07.24,3.65,1.92,3.84l1.68.24v2h-10.8v-2L453,68c1.49-.19,1.54-.82,1.54-3.6V53.87c0-3.41-1.39-5.38-4.7-5.38a13,13,0,0,0-6.63,2.21Zm9.12-27.6c.63,0,1-.14,2.16-1.82l1.78,1c-1.39,4.08-2.83,5-3.94,5-.82,0-7.34-2-8.35-2-.53,0-1,.19-2.21,1.68l-1.68-.86c1.49-3.46,2.54-4.9,3.89-4.9C445,34.62,451.79,36.54,452.36,36.54Z"/><path d="M465.9,57.76c0-7.83,4.27-13,11.61-13,7.59,0,10.85,5.23,10.85,12.91,0,8-3.89,13.06-11.42,13.06S465.9,65.58,465.9,57.76Zm17.81,0c0-7-2.36-10.13-6.44-10.13s-6.72,3.07-6.72,10.18,2.55,10.32,6.63,10.32S483.71,65,483.71,57.71Z"/><path d="M516.54,52.29l-.72-2.79c-.29-1.1-1-1.82-3.8-1.82s-5.08,1-5.08,3.65c0,6.09,13.44,2.25,13.44,11.37,0,4-2.5,8.07-9.7,8.07a16.93,16.93,0,0,1-8.16-1.87l.53-6.34h2.64l.62,3.21c.34,1.4,1.25,2.12,4.61,2.12,3.12,0,5.38-1.2,5.38-4.18,0-6.72-13.3-2.3-13.3-11.47,0-4.47,3.6-7.44,9.31-7.44a14.67,14.67,0,0,1,7.35,1.68l-.24,6.19Z"/><path d="M532.38,64.14c0,3.12.19,3.7,1.68,3.84l1.72.19v2.07H524.65V68.17l1.53-.19c1.68-.19,1.92-.62,1.92-3.84V51.28c0-2.21-.67-2.83-2.35-3.12l-1.39-.24.29-2,7-.87.72.34Zm-6-21.12-1.68-1.3L530.94,33l4.17,2v.72Z"/><path d="M549.8,68.08c2-.24,2.11-.62,2.11-3.84V48.16h-3.07l.24-2.26,2.83-.57V42.4c0-4.28,1.63-8.12,7.54-8.12a12.65,12.65,0,0,1,6,1.49l-.24,5.14-2.93-.24-.48-2.21c-.24-1.06-1-1.39-2.35-1.39-2.26,0-3.27,1.2-3.27,4.46v3.8h7.3l-.29,2.83h-7V64.24c0,3.12.39,3.31,3.12,3.74l1.92.19v2.07H549V68.17Z"/><path d="M587.38,70.05a7.13,7.13,0,0,1-3.26.72,3.82,3.82,0,0,1-4.18-3.56,8,8,0,0,1-7,3.56c-5.52,0-7.29-3-7.29-6.72,0-6.29,5.42-7.68,13.92-8V53.39c0-3.84-1.3-5.23-4.56-5.23a16.73,16.73,0,0,0-7.15,1.53L567,47.34a17,17,0,0,1,8.88-2.54c4.9,0,7.92,2,7.92,8.45V65.63c0,2,.24,2.35,1.92,2.54l1.54.2Zm-7.82-11.33c-6.72.09-9.31,1.25-9.31,4.94,0,2.64,1.58,3.94,4.12,3.94a4.81,4.81,0,0,0,5.19-4.95Z"/><path d="M597.65,78a8.85,8.85,0,0,0,2.45.33c1.59,0,2.74-.57,2.74-2.16,0-1.34-1.35-2.06-3.55-2.35l.86-3.22c-6.29-.91-9.31-6.33-9.31-12.48,0-9.36,5.47-13.34,12.33-13.34a15.16,15.16,0,0,1,7.54,2.11l-.38,6.72-3.08-.29-.67-3.12c-.24-1.53-1.2-2.35-3.79-2.35-4.32,0-7.3,3-7.3,9.5,0,7.49,3.84,9.94,8.07,9.94a11.75,11.75,0,0,0,6-1.58l1.29,1.92a13.29,13.29,0,0,1-8.2,3.12l-.29,1.2c1.92.43,4.22,1.49,4.22,4.17,0,3.22-2.73,4.85-6,4.85a8.18,8.18,0,0,1-3.65-.72Z"/><path d="M635.86,70.05a7.16,7.16,0,0,1-3.26.72,3.82,3.82,0,0,1-4.18-3.56,8,8,0,0,1-7,3.56c-5.52,0-7.29-3-7.29-6.72,0-6.29,5.42-7.68,13.92-8V53.39c0-3.84-1.3-5.23-4.56-5.23a16.73,16.73,0,0,0-7.15,1.53l-.87-2.35a17,17,0,0,1,8.88-2.54c4.9,0,7.92,2,7.92,8.45V65.63c0,2,.24,2.35,1.92,2.54l1.54.2ZM628,58.72c-6.72.09-9.31,1.25-9.31,4.94,0,2.64,1.58,3.94,4.12,3.94A4.81,4.81,0,0,0,628,62.65Z"/><path d="M657.13,70.24l-.77-3a8.88,8.88,0,0,1-7.44,3.56c-5.76,0-9.6-4.23-9.6-12.53,0-9.41,4.46-13.44,10.32-13.44a8.5,8.5,0,0,1,6.24,2.45V40.76c0-2.2-.63-2.92-2.35-3.21l-1.4-.24.29-2,6.91-.86.82.52V64.81c0,2.16.19,2.84,2,3.17l1.34.24v2Zm-1.25-20.16a8.86,8.86,0,0,0-5.67-1.92c-3.84,0-6.29,2.78-6.29,9.65s2.21,9.6,6.2,9.6a7.73,7.73,0,0,0,5.76-2.55Z"/><path d="M687.22,67.55a14.18,14.18,0,0,1-9,3.22c-7.49,0-11.33-5.72-11.33-12.82,0-9.17,5.37-13.15,11.13-13.15,5.38,0,9.41,3.26,9.41,11.28a20.58,20.58,0,0,1-.14,2.49h-15.7c.14,5.48,3.07,8.64,7.63,8.64A13.41,13.41,0,0,0,686,65.49ZM683,55.69c.29-5.42-1.78-8.11-5.23-8.11s-5.86,2.5-6.15,8.11Z"/><path d="M61.89,136.14c0,3.12,0,3.65,1.68,3.89l1.34.19v2H54.11v-2.07l1.54-.19c1.68-.19,1.92-.62,1.92-3.84V123.33c0-2.21-.67-2.93-2.35-3.22l-1.4-.24.29-2,6.29-.82.67.29.43,3.32c2.41-2.21,5-3.89,8.65-3.89,4.27,0,7.34,2.11,7.34,8.69v10.65c0,3.07.24,3.65,1.92,3.84l1.68.24v2H70.29v-2l1.39-.19c1.49-.19,1.54-.82,1.54-3.6V125.87c0-3.41-1.39-5.38-4.71-5.38a13,13,0,0,0-6.62,2.21Z"/><path d="M106.24,142.05a7.16,7.16,0,0,1-3.26.72,3.81,3.81,0,0,1-4.18-3.56,8,8,0,0,1-7,3.56c-5.52,0-7.29-3-7.29-6.72,0-6.29,5.42-7.68,13.92-8v-2.64c0-3.84-1.3-5.23-4.56-5.23a16.8,16.8,0,0,0-7.16,1.53l-.86-2.35a17,17,0,0,1,8.88-2.54c4.9,0,7.92,2,7.92,8.45v12.38c0,2,.24,2.35,1.92,2.54l1.54.2Zm-7.82-11.33c-6.72.09-9.32,1.25-9.32,4.94,0,2.64,1.59,3.94,4.13,3.94a4.81,4.81,0,0,0,5.19-4.95Z"/><path d="M109.55,106.76c2,0,3.12,1,3.12,2.93s-1.1,3-3.12,3a2.75,2.75,0,0,1-3.07-3C106.48,107.72,107.63,106.76,109.55,106.76Zm8,29.38c0,3.12.19,3.7,1.68,3.84l1.73.19v2.07H109.79v-2.07l1.54-.19c1.68-.19,1.92-.62,1.92-3.84V123.28c0-2.21-.67-2.83-2.35-3.12l-1.4-.24.29-2,7-.87.72.34ZM119,106.76c2,0,3.12,1,3.12,2.93s-1.1,3-3.12,3a2.75,2.75,0,0,1-3.07-3C115.89,107.72,117,106.76,119,106.76Z"/><path d="M133.17,142.24l-7.63-19.54c-.92-2.3-1.21-2.78-2.55-3.07l-.72-.14.43-2.16h9.41v2.16l-2.83.38,6.62,18.63h.2l6.33-18.63-3.07-.38.34-2.16h8.4v2.11l-.68.09c-1.58.24-1.82.63-2.63,2.74l-6.82,20Z"/><path d="M169.84,139.55a14.23,14.23,0,0,1-9,3.22c-7.48,0-11.32-5.72-11.32-12.82,0-9.17,5.37-13.15,11.13-13.15,5.38,0,9.41,3.26,9.41,11.28a20.58,20.58,0,0,1-.14,2.49h-15.7c.14,5.48,3.07,8.64,7.63,8.64a13.41,13.41,0,0,0,6.77-1.72Zm-4.27-11.86c.29-5.42-1.78-8.11-5.23-8.11s-5.86,2.5-6.15,8.11Z"/><path d="M210.21,142.24l-.77-3a8.88,8.88,0,0,1-7.44,3.56c-5.76,0-9.6-4.23-9.6-12.53,0-9.41,4.46-13.44,10.32-13.44a8.5,8.5,0,0,1,6.24,2.45v-6.49c0-2.2-.63-2.92-2.35-3.21l-1.4-.24.29-2,6.92-.86.81.52v29.81c0,2.16.19,2.84,2,3.17l1.34.24v2ZM209,122.08a8.86,8.86,0,0,0-5.67-1.92c-3.84,0-6.28,2.78-6.28,9.65s2.2,9.6,6.19,9.6a7.73,7.73,0,0,0,5.76-2.55Z"/><path d="M240.25,139.55a14.18,14.18,0,0,1-9,3.22c-7.49,0-11.33-5.72-11.33-12.82,0-9.17,5.38-13.15,11.14-13.15,5.37,0,9.4,3.26,9.4,11.28a18.72,18.72,0,0,1-.14,2.49h-15.7c.15,5.48,3.08,8.64,7.64,8.64a13.37,13.37,0,0,0,6.76-1.72ZM236,127.69c.29-5.42-1.77-8.11-5.23-8.11s-5.86,2.5-6.14,8.11ZM228.69,115l-1.68-1.3,6.28-8.68,4.18,2v.72Z"/><path d="M252,136.05c0,8.11-1.53,11.37-7.77,15.26l-1.35-1.92c2.79-2.11,4.8-5.28,4.8-11.62V123.28c0-2.21-.62-2.83-2.3-3.12l-1.39-.24.29-2,7-.87.71.34Zm-2.4-24a2.81,2.81,0,0,1-3.12-3.07c0-2,1.2-3,3.12-3s3.17,1,3.17,3S251.58,112.09,249.56,112.09Z"/><path d="M279.47,142.05a7.16,7.16,0,0,1-3.26.72,3.81,3.81,0,0,1-4.18-3.56,8,8,0,0,1-7,3.56c-5.52,0-7.3-3-7.3-6.72,0-6.29,5.43-7.68,13.92-8v-2.64c0-3.84-1.29-5.23-4.56-5.23a16.79,16.79,0,0,0-7.15,1.53l-.86-2.35A17,17,0,0,1,268,116.8c4.89,0,7.92,2,7.92,8.45v12.38c0,2,.24,2.35,1.92,2.54l1.54.2Zm-18.63-34.33V107l4.18-2,6.29,8.68-1.68,1.3Zm10.8,23c-6.72.09-9.31,1.25-9.31,4.94,0,2.64,1.59,3.94,4.13,3.94a4.8,4.8,0,0,0,5.18-4.95Z"/><path d="M301.26,142.24l-7.63-19.54c-.92-2.3-1.2-2.78-2.55-3.07l-.72-.14.43-2.16h9.41v2.16l-2.83.38L304,138.5h.19l6.33-18.63-3.07-.38.34-2.16h8.4v2.11l-.67.09c-1.59.24-1.83.63-2.64,2.74l-6.82,20Z"/><path d="M341.63,136.62c0,2.21.62,2.93,2.35,3.22l1.2.19-.1,2-6,.53-.68-.29-.62-3.41c-2.4,2.21-5.09,3.89-8.54,3.89-4,0-7.16-2.11-7.16-8.69V123.33c0-2.21-.67-2.93-2.35-3.22l-1.39-.24.29-2,7.05-.82.67.29V133.6c0,3.41,1.35,5.47,4.52,5.47a13.1,13.1,0,0,0,6.53-2.21V123.33c0-2.21-.68-2.93-2.36-3.22l-1.39-.24.29-2,7.06-.82.67.29Z"/><path d="M367.45,142.24l-7.63-19.54c-.91-2.3-1.2-2.78-2.55-3.07l-.72-.14.44-2.16h9.4v2.16l-2.83.38,6.63,18.63h.19l6.33-18.63-3.07-.38.34-2.16h8.4v2.11l-.67.09c-1.59.24-1.83.63-2.64,2.74l-6.82,20Z"/><path d="M392.84,136.14c0,3.12.19,3.7,1.68,3.84l1.73.19v2.07H385.11v-2.07l1.54-.19c1.68-.19,1.92-.62,1.92-3.84V123.28c0-2.21-.67-2.83-2.35-3.12l-1.39-.24.28-2,7-.87.72.34Zm-2.78-24a2.81,2.81,0,0,1-3.12-3.07c0-2,1.2-3,3.12-3s3.17,1,3.17,3S392.07,112.09,390.06,112.09Z"/><path d="M414.44,140.7a12.12,12.12,0,0,1-6.62,2.07c-3.89,0-5.57-2.31-5.57-6.72V120.16h-3.89l.29-2.36,3.84-.52,1.58-6h2.45v6H413l-.38,2.83h-6.05v15.22c0,2.92.87,4.12,2.93,4.12a9.1,9.1,0,0,0,4-1Z"/><path d="M451.55,139.55a14.23,14.23,0,0,1-9,3.22,10.35,10.35,0,0,1-9.12-4.52,9.63,9.63,0,0,1-8.16,4.52c-5.76,0-7.54-3-7.54-6.72,0-6.29,5.43-7.68,13.92-8v-2.64c0-3.84-1.29-5.23-4.56-5.23a16.76,16.76,0,0,0-7.15,1.53l-.86-2.35A17,17,0,0,1,428,116.8c3.17,0,5.57.86,6.86,3.55a8.93,8.93,0,0,1,7.54-3.55c5.37,0,9.41,3.26,9.41,11.28a18.61,18.61,0,0,1-.15,2.49H435.9c.14,5.48,3.12,8.64,7.68,8.64a13.41,13.41,0,0,0,6.77-1.72Zm-19.88-8.83c-6.72.09-9.31,1.25-9.31,4.94,0,2.64,1.59,3.94,4.13,3.94a4.8,4.8,0,0,0,5.18-4.95Zm15.61-3c.28-5.42-1.78-8.11-5.24-8.11-3.07,0-5.85,2-6.19,8.11Z"/><path d="M489.85,112.76c0-2.4-.38-2.78-1.73-2.88l-1.87-.14v-2.26h10.46v2.21l-1.87.19c-1.53.15-1.82,1-1.82,3v17.62c0,8.35-4.95,12.29-11.91,12.29-11,0-12.53-6.68-12.53-13.25V113.34c0-2.54-.19-3.26-2.25-3.46l-1.44-.14v-2.26H476.7v2.26l-2,.19c-1.25.1-1.49.77-1.49,2.88V130c0,6.48,2,10,8,10,5.42,0,8.69-2.69,8.69-10ZM476.17,98.17c2,0,3.12,1,3.12,2.93s-1.11,3-3.12,3a2.74,2.74,0,0,1-3.07-3C473.1,99.13,474.25,98.17,476.17,98.17Zm9.89,0c2,0,3.12,1,3.12,2.93s-1.11,3-3.12,3a2.74,2.74,0,0,1-3.07-3C483,99.13,484.14,98.17,486.06,98.17Z"/><path d="M503.72,112.76c0-2.2-.62-2.92-2.35-3.21l-1.4-.24.29-2,6.68-.86,1.05.57v13a10.43,10.43,0,0,1,7.3-3.21c5.33,0,9.21,3.93,9.21,12.43,0,9.41-4.22,13.54-10,13.54a10.45,10.45,0,0,1-7-3l-.53,2.45h-4.12a26.58,26.58,0,0,0,.86-7.63ZM508,137.49a9.39,9.39,0,0,0,5.38,2c4.13,0,6.53-2.93,6.53-10,0-6.38-2.31-9.07-5.81-9.07a10,10,0,0,0-6.1,2.16Z"/><path d="M549.18,139.55a14.23,14.23,0,0,1-9,3.22c-7.49,0-11.33-5.72-11.33-12.82,0-9.17,5.38-13.15,11.14-13.15,5.37,0,9.41,3.26,9.41,11.28a18.61,18.61,0,0,1-.15,2.49H533.58c.14,5.48,3.07,8.64,7.63,8.64a13.43,13.43,0,0,0,6.77-1.72Zm-4.28-11.86c.29-5.42-1.77-8.11-5.23-8.11s-5.86,2.5-6.14,8.11Z"/><path d="M561.22,136.14c0,3.12.24,3.65,1.63,3.8l2.79.33v2H553.69v-2.07L555,140c1.68-.19,1.92-.67,1.92-3.89V123.33c0-2.21-.67-2.93-2.35-3.22l-1.39-.24.29-2,6.24-.82.67.29.57,3.46c1.68-2.16,3.8-4,6.63-4a6.79,6.79,0,0,1,2.88.62l-.34,5h-.57a11.17,11.17,0,0,0-4.42-1.2,6,6,0,0,0-3.89,1.92Z"/><path d="M581.77,136.14c0,3.12.09,3.6,1.68,3.89l1.44.19v2H574v-2.07l1.53-.19c1.68-.19,1.92-.62,1.92-3.84V123.33c0-2.21-.67-2.93-2.35-3.22l-1.39-.24.29-2,6.24-.82.67.29.43,3.32c2.4-2.21,4.9-3.89,8.26-3.89,2.78,0,5.13,1,6.29,4,2.4-2.3,5-4,8.64-4,4.08,0,7,2.11,7,8.69v10.65c0,3.07.24,3.65,1.92,3.84l1.68.24v2h-10.8v-2l1.4-.19c1.44-.24,1.53-.82,1.53-3.6V126c0-3.7-1.44-5.38-4.27-5.38a12.81,12.81,0,0,0-6.58,2.21,14.74,14.74,0,0,1,.2,2.69v10.65c0,3.17.09,3.65,1.58,3.89l1.3.19v2h-9.94v-2l1.25-.19c1.44-.24,1.53-.82,1.53-3.6V126c0-3.7-1.44-5.38-4.13-5.38a12.61,12.61,0,0,0-6.52,2.21Z"/><path d="M639,139.55a14.19,14.19,0,0,1-9,3.22c-7.48,0-11.32-5.72-11.32-12.82,0-9.17,5.37-13.15,11.13-13.15,5.38,0,9.41,3.26,9.41,11.28a20.58,20.58,0,0,1-.14,2.49h-15.7c.14,5.48,3.07,8.64,7.63,8.64a13.41,13.41,0,0,0,6.77-1.72Zm-4.27-11.86c.29-5.42-1.78-8.11-5.23-8.11s-5.86,2.5-6.15,8.11Z"/><path d="M651,136.14c0,3.12.05,3.65,1.68,3.89l1.34.19v2h-10.8v-2.07l1.54-.19c1.68-.19,1.92-.62,1.92-3.84V123.33c0-2.21-.67-2.93-2.35-3.22l-1.4-.24.29-2,6.29-.82.67.29.43,3.32c2.4-2.21,5-3.89,8.65-3.89,4.27,0,7.34,2.11,7.34,8.69v10.65c0,3.07.24,3.65,1.92,3.84l1.68.24v2h-10.8v-2l1.39-.19c1.49-.19,1.54-.82,1.54-3.6V125.87c0-3.41-1.4-5.38-4.71-5.38A13,13,0,0,0,651,122.7Z"/><path d="M688.42,124.29l-.72-2.79c-.29-1.1-1-1.82-3.79-1.82s-5.09,1-5.09,3.65c0,6.09,13.44,2.25,13.44,11.37,0,4-2.5,8.07-9.7,8.07a16.93,16.93,0,0,1-8.16-1.87l.53-6.34h2.64l.63,3.21c.33,1.4,1.24,2.12,4.6,2.12,3.12,0,5.38-1.2,5.38-4.18,0-6.72-13.3-2.3-13.3-11.47,0-4.47,3.6-7.44,9.32-7.44a14.65,14.65,0,0,1,7.34,1.68l-.24,6.19Z"/><path d="M716.45,139.65a13.3,13.3,0,0,1-8.69,3.12c-7.63,0-11.32-5.86-11.32-12.63,0-9.36,5.47-13.34,12.33-13.34a15.16,15.16,0,0,1,7.54,2.11l-.39,6.72-3.07-.29-.67-3.12c-.24-1.53-1.2-2.35-3.79-2.35-4.32,0-7.3,3-7.3,9.5,0,7.49,3.84,9.94,8.07,9.94a11.75,11.75,0,0,0,6-1.58Z"/><path d="M727.88,136.14c0,3.12,0,3.65,1.68,3.89l1.34.19v2H720.15v-2.07l1.53-.19c1.68-.19,1.92-.62,1.92-3.84V112.76c0-2.2-.62-2.92-2.35-3.21l-1.39-.24.29-2,6.67-.86,1.06.57V120.4c2.11-1.92,4.6-3.6,8.25-3.6,4.23,0,7.35,2.11,7.35,8.69v10.65c0,3.07.24,3.65,1.92,3.84l1.68.24v2H736.23v-2l1.39-.19c1.49-.19,1.59-.82,1.59-3.6V125.87c0-3.41-1.45-5.38-4.71-5.38a13,13,0,0,0-6.62,2.21Z"/><path d="M68.75,179.48c7,0,9.7,3.56,9.7,8.36s-2.64,7-5.42,8.16v.14c5.47.87,7.68,4.18,7.68,8.64,0,6.87-5,9.46-12.58,9.46H54.64V212l1.92-.19c1.73-.19,1.82-.58,1.82-3.79V185.48c0-2.78-.28-3.4-1.92-3.6l-1.77-.14v-2.26ZM66.4,195c5.47,0,7.44-2.3,7.44-6.48s-2.25-6.15-6.86-6.15H63V195ZM68,211.36c5.47,0,7.68-2.11,7.68-6.87,0-4.94-2.93-6.67-7.06-6.67H63v13.54Z"/><path d="M92.51,208.14c0,3.12.24,3.65,1.63,3.8l2.79.33v2H85v-2.07l1.29-.14c1.68-.19,1.92-.67,1.92-3.89V195.33c0-2.21-.67-2.93-2.35-3.22l-1.39-.24.29-2,6.24-.82.67.29.57,3.46c1.68-2.16,3.8-4,6.63-4a6.79,6.79,0,0,1,2.88.62l-.34,5h-.57a11.17,11.17,0,0,0-4.42-1.2,6,6,0,0,0-3.89,1.92Z"/><path d="M104.61,201.76c0-7.83,4.27-13,11.61-13,7.59,0,10.85,5.23,10.85,12.91,0,8-3.89,13.06-11.42,13.06S104.61,209.58,104.61,201.76Zm6.48-23c2,0,3.12,1,3.12,2.93s-1.11,3-3.12,3a2.76,2.76,0,0,1-3.08-3C108,179.72,109.17,178.76,111.09,178.76Zm11.33,23c0-7-2.36-10.13-6.44-10.13s-6.72,3.07-6.72,10.18,2.55,10.32,6.63,10.32S122.42,209,122.42,201.71Zm-1.44-23c2,0,3.12,1,3.12,2.93s-1.11,3-3.12,3a2.76,2.76,0,0,1-3.08-3C117.9,179.72,119.06,178.76,121,178.76Z"/><path d="M139.12,208.14c0,3.12,0,3.65,1.68,3.89l1.34.19v2h-10.8v-2.07l1.54-.19c1.68-.19,1.92-.62,1.92-3.84V195.33c0-2.21-.67-2.93-2.35-3.22l-1.4-.24.29-2,6.29-.82.67.29.44,3.32c2.4-2.21,5-3.89,8.64-3.89,4.27,0,7.34,2.11,7.34,8.69v10.65c0,3.07.24,3.65,1.92,3.84l1.68.24v2h-10.8v-2l1.39-.19c1.49-.19,1.54-.82,1.54-3.6V197.87c0-3.41-1.39-5.38-4.71-5.38a13,13,0,0,0-6.62,2.21Z"/><path d="M176,212.7a12.12,12.12,0,0,1-6.62,2.07c-3.89,0-5.57-2.31-5.57-6.72V192.16H160l.29-2.36,3.84-.52,1.58-6h2.45v6h6.43l-.38,2.83h-6v15.22c0,2.92.87,4.12,2.93,4.12a9.1,9.1,0,0,0,4-1Z"/><path d="M198.64,211.55a14.23,14.23,0,0,1-9,3.22c-7.49,0-11.33-5.72-11.33-12.82,0-9.17,5.38-13.15,11.14-13.15,5.38,0,9.41,3.26,9.41,11.28a20.58,20.58,0,0,1-.14,2.49H183c.14,5.48,3.07,8.64,7.63,8.64a13.41,13.41,0,0,0,6.77-1.72Zm-4.27-11.86c.29-5.42-1.78-8.11-5.24-8.11s-5.85,2.5-6.14,8.11Z"/><path d="M226.67,179.48c7,0,9.7,3.56,9.7,8.36s-2.64,7-5.43,8.16v.14c5.48.87,7.68,4.18,7.68,8.64,0,6.87-5,9.46-12.57,9.46H212.56V212l1.92-.19c1.73-.19,1.82-.58,1.82-3.79V185.48c0-2.78-.29-3.4-1.92-3.6l-1.78-.14v-2.26ZM224.32,195c5.47,0,7.44-2.3,7.44-6.48s-2.26-6.15-6.87-6.15H221V195Zm1.58,16.37c5.47,0,7.68-2.11,7.68-6.87,0-4.94-2.93-6.67-7.05-6.67H221v13.54Z"/><path d="M263,211.55a14.23,14.23,0,0,1-9,3.22c-7.49,0-11.33-5.72-11.33-12.82,0-9.17,5.38-13.15,11.14-13.15,5.37,0,9.41,3.26,9.41,11.28a18.61,18.61,0,0,1-.15,2.49H247.4c.15,5.48,3.08,8.64,7.64,8.64a13.43,13.43,0,0,0,6.77-1.72Zm-4.28-11.86c.29-5.42-1.77-8.11-5.23-8.11s-5.86,2.5-6.14,8.11Z"/><path d="M279,213.42c-2.93,7.11-4,9.32-7.2,9.94a9.22,9.22,0,0,1-1.68.14,8.65,8.65,0,0,1-4.95-1.53l1.11-2.55a12.17,12.17,0,0,0,3.41.63c2.92,0,4.17-1.39,6.33-6.67l-7.77-19c-.82-1.92-1.3-2.41-2.36-2.64l-1.15-.24.43-2.16h10.18v2.16l-3.31.38L278.17,208h.1l6.33-16.13-3.55-.38.34-2.16h8.83v2.11l-.72.09c-1.58.2-1.87.77-2.93,3.36Z"/><path d="M291.71,201.76c0-7.83,4.27-13,11.61-13,7.59,0,10.85,5.23,10.85,12.91,0,8-3.88,13.06-11.42,13.06S291.71,209.58,291.71,201.76Zm17.81,0c0-7-2.36-10.13-6.44-10.13s-6.72,3.07-6.72,10.18,2.55,10.32,6.63,10.32S309.52,209,309.52,201.71Z"/><path d="M326.22,208.14c0,3.12,0,3.65,1.68,3.89l1.34.19v2h-10.8v-2.07L320,212c1.68-.19,1.92-.62,1.92-3.84V195.33c0-2.21-.67-2.93-2.35-3.22l-1.39-.24.28-2,6.29-.82.67.29.44,3.32c2.4-2.21,5-3.89,8.64-3.89,4.27,0,7.34,2.11,7.34,8.69v10.65c0,3.07.24,3.65,1.92,3.84l1.68.24v2h-10.8v-2L336,212c1.49-.19,1.54-.82,1.54-3.6V197.87c0-3.41-1.39-5.38-4.71-5.38a13,13,0,0,0-6.62,2.21Z"/><path d="M368.89,211.65a13.3,13.3,0,0,1-8.69,3.12c-7.63,0-11.32-5.86-11.32-12.63,0-9.36,5.47-13.34,12.33-13.34a15.16,15.16,0,0,1,7.54,2.11l-.39,6.72-3.07-.29-.67-3.12c-.24-1.53-1.2-2.35-3.79-2.35-4.32,0-7.3,3-7.3,9.5,0,7.49,3.84,9.94,8.07,9.94a11.75,11.75,0,0,0,6-1.58Z"/><path d="M392.7,211.55a14.23,14.23,0,0,1-9,3.22c-7.48,0-11.33-5.72-11.33-12.82,0-9.17,5.38-13.15,11.14-13.15,5.38,0,9.41,3.26,9.41,11.28a20.58,20.58,0,0,1-.14,2.49H377.1c.14,5.48,3.07,8.64,7.63,8.64a13.41,13.41,0,0,0,6.77-1.72Zm-4.27-11.86c.29-5.42-1.78-8.11-5.23-8.11s-5.86,2.5-6.15,8.11ZM381.13,187l-1.68-1.3,6.29-8.68,4.18,2v.72Z"/><path d="M424,187.84l-.63-3.46c-.28-1.63-1.29-2.54-5.28-2.54-5.57,0-6.62,3.41-6.62,5.71,0,9.22,16.8,3.94,16.8,16.61,0,8.26-7.06,10.61-12.63,10.61a20.44,20.44,0,0,1-9.6-2l.58-7.15h2.69l.48,3.21c.33,1.73,1.05,2.93,6.24,2.93,4.27,0,7.82-1.87,7.82-6.57,0-9.46-17-4.52-17-16.42,0-4.8,3.22-9.89,11.76-9.89a20.55,20.55,0,0,1,8.45,1.82l-.39,7.4Z"/><path d="M439.83,200.22l9.41-8.16v-.19l-3.17-.29.39-2.25h9.74v2.16l-1,.09c-1.24.15-2.11.67-3.69,2L446,198.4l6.43,10.22c1.49,2.5,2.45,3.08,3.79,3.36l.87.19v2.07h-6.44l-4-6.43-4-6.44-2.79,2.4v4.37c0,3.12.2,3.7,1.68,3.84l1.73.19v2.07H432.11v-2.07l1.53-.19c1.68-.19,1.92-.62,1.92-3.84V184.76c0-2.16-.67-2.92-2.35-3.21l-1.39-.24.29-2,6.67-.86,1.05.57Z"/><path d="M482,214.05a7.17,7.17,0,0,1-3.27.72,3.8,3.8,0,0,1-4.17-3.56,8,8,0,0,1-7,3.56c-5.52,0-7.3-3-7.3-6.72,0-6.29,5.43-7.68,13.92-8v-2.64c0-3.84-1.29-5.23-4.56-5.23a16.79,16.79,0,0,0-7.15,1.53l-.86-2.35a17,17,0,0,1,8.88-2.54c4.89,0,7.92,2,7.92,8.45v12.38c0,2,.24,2.35,1.92,2.54l1.53.2Zm-7.83-11.33c-6.72.09-9.31,1.25-9.31,4.94,0,2.64,1.59,3.94,4.13,3.94a4.8,4.8,0,0,0,5.18-4.95Z"/><path d="M493.16,208.14c0,3.12.24,3.65,1.63,3.8l2.79.33v2h-12v-2.07l1.3-.14c1.68-.19,1.92-.67,1.92-3.89V195.33c0-2.21-.67-2.93-2.35-3.22l-1.39-.24.28-2,6.24-.82.68.29.57,3.46c1.68-2.16,3.8-4,6.63-4a6.83,6.83,0,0,1,2.88.62l-.34,5h-.57a11.17,11.17,0,0,0-4.42-1.2,6,6,0,0,0-3.89,1.92Z"/><path d="M519.85,196.29l-.72-2.79c-.29-1.1-1-1.82-3.79-1.82s-5.09,1-5.09,3.65c0,6.09,13.44,2.25,13.44,11.37,0,4-2.5,8.07-9.7,8.07a16.93,16.93,0,0,1-8.16-1.87l.53-6.34H509l.62,3.21c.34,1.4,1.25,2.12,4.61,2.12,3.12,0,5.38-1.2,5.38-4.18,0-6.72-13.3-2.3-13.3-11.47,0-4.47,3.6-7.44,9.31-7.44a14.67,14.67,0,0,1,7.35,1.68l-.24,6.19Z"/><path d="M545.24,192.59a7.3,7.3,0,0,1,1.92,5.09c0,5.47-4.46,8.3-9.55,8.3a15.35,15.35,0,0,1-3.55-.38l-1.73,4,9.21.43c4.33.2,7.59,1.64,7.59,5.81,0,5.43-5.71,7.68-12.63,7.68-3.21,0-9.69-.72-9.69-5.56,0-1.68.86-3.41,3.36-5a2.24,2.24,0,0,1-1.87-2.25c0-1.06.48-1.73,1.29-3l2.16-3a7.34,7.34,0,0,1-4-6.77c0-6.29,5-9.12,9.5-9.12a11.19,11.19,0,0,1,5,1l5.91-.43.34,2.4Zm-4.94,21.22-7.44-.34a5.33,5.33,0,0,0-1.92,3.7c0,2,2,3.17,6.52,3.17,2.79,0,7.49-.53,7.49-3.65C545,214.72,543.66,214,540.3,213.81Zm-2.74-22.13c-3.31,0-5.47,2-5.47,5.71,0,4.56,2.49,5.71,5.28,5.71,3.21,0,5.47-1.53,5.47-5.57S540.82,191.68,537.56,191.68Z"/><path d="M573.66,214.05a7.17,7.17,0,0,1-3.27.72,3.8,3.8,0,0,1-4.17-3.56,8,8,0,0,1-7,3.56c-5.52,0-7.3-3-7.3-6.72,0-6.29,5.43-7.68,13.92-8v-2.64c0-3.84-1.29-5.23-4.56-5.23a16.76,16.76,0,0,0-7.15,1.53l-.87-2.35a17.1,17.1,0,0,1,8.89-2.54c4.89,0,7.92,2,7.92,8.45v12.38c0,2,.24,2.35,1.92,2.54l1.53.2Zm-12-27.32c-2.84,0-5.48-1.44-5.48-5.13,0-4,3-5.14,5.48-5.14,3.16,0,5.42,1.73,5.42,5.14C567.08,185.63,564.1,186.73,561.66,186.73Zm4.17,16c-6.72.09-9.31,1.25-9.31,4.94,0,2.64,1.58,3.94,4.13,3.94a4.8,4.8,0,0,0,5.18-4.95Zm-1.77-21.12c0-2.26-1.11-2.93-2.4-2.93s-2.4.62-2.4,2.93c0,1.82.81,2.92,2.4,2.92C563.05,184.52,564.06,183.47,564.06,181.6Z"/><path d="M584.84,208.14c0,3.12.24,3.65,1.63,3.8l2.79.33v2h-12v-2.07l1.3-.14c1.68-.19,1.92-.67,1.92-3.89V195.33c0-2.21-.67-2.93-2.35-3.22l-1.4-.24.29-2,6.24-.82.67.29.58,3.46c1.68-2.16,3.79-4,6.63-4a6.83,6.83,0,0,1,2.88.62l-.34,5h-.58a11.14,11.14,0,0,0-4.41-1.2,6,6,0,0,0-3.89,1.92Z"/><path d="M614.7,214.24l-.77-3a8.88,8.88,0,0,1-7.44,3.56c-5.76,0-9.6-4.23-9.6-12.53,0-9.41,4.46-13.44,10.32-13.44a8.5,8.5,0,0,1,6.24,2.45v-6.49c0-2.2-.63-2.92-2.36-3.21l-1.39-.24.29-2,6.91-.86.82.52v29.81c0,2.16.19,2.84,2,3.17l1.34.24v2Zm-1.25-20.16a8.88,8.88,0,0,0-5.67-1.92c-3.84,0-6.29,2.78-6.29,9.65s2.21,9.6,6.2,9.6a7.75,7.75,0,0,0,5.76-2.55Z"/><path d="M68.18,251.48c12,0,16.56,6.34,16.56,16.71,0,10.66-5.57,18.05-19.35,18.05H54.64V284l1.92-.19c1.49-.14,1.82-.38,1.82-3.07V257.53c0-2.78-.24-3.45-1.87-3.65l-1.82-.14v-2.26Zm-1.44,31.88c9.74,0,13-7,13-15.22,0-9.12-3.75-13.78-10.85-13.78H63v29Z"/><path d="M110.75,286.05a7.16,7.16,0,0,1-3.26.72,3.82,3.82,0,0,1-4.18-3.56,8,8,0,0,1-7,3.56c-5.52,0-7.29-3-7.29-6.72,0-6.29,5.42-7.68,13.92-8v-2.64c0-3.84-1.3-5.23-4.56-5.23a16.73,16.73,0,0,0-7.15,1.53l-.87-2.35a17,17,0,0,1,8.88-2.54c4.9,0,7.92,2,7.92,8.45v12.38c0,2,.24,2.35,1.92,2.54l1.54.2Zm-7.82-11.33c-6.72.09-9.31,1.25-9.31,4.94,0,2.64,1.58,3.94,4.12,3.94a4.81,4.81,0,0,0,5.19-5Z"/><path d="M121.89,280.14c0,3.12.19,3.7,1.68,3.84l1.73.19v2.07H114.16v-2.07l1.54-.19c1.68-.19,1.92-.62,1.92-3.84V256.76c0-2.2-.63-2.92-2.36-3.21l-1.39-.24.29-2,6.67-.86,1.06.57Z"/><path d="M137.05,280.14c0,3.12.2,3.7,1.69,3.84l1.72.19v2.07H129.33v-2.07l1.53-.19c1.68-.19,1.92-.62,1.92-3.84V267.28c0-2.21-.67-2.83-2.35-3.12l-1.39-.24.29-2,7-.87.72.34ZM131,259l-1.68-1.3,6.29-8.68,4.17,2v.72Z"/><path d="M171.33,259.84l-.63-3.46c-.28-1.63-1.29-2.54-5.28-2.54-5.57,0-6.62,3.41-6.62,5.71,0,9.22,16.8,3.94,16.8,16.61,0,8.26-7.06,10.61-12.63,10.61a20.44,20.44,0,0,1-9.6-2l.58-7.15h2.69l.48,3.21c.33,1.73,1,2.93,6.24,2.93,4.27,0,7.82-1.87,7.82-6.57,0-9.46-17-4.52-17-16.42,0-4.8,3.22-9.89,11.76-9.89a20.55,20.55,0,0,1,8.45,1.82l-.38,7.4Zm.77-19,1.24,1.87-6.38,6h-3.65l-6.43-6.05,1.29-1.82,7,3.6Z"/><path d="M187.21,272.22l9.41-8.16v-.19l-3.16-.29.38-2.25h9.74v2.16l-1,.09c-1.24.15-2.11.67-3.69,2l-5.52,4.85,6.43,10.22c1.49,2.5,2.45,3.08,3.79,3.36l.87.19v2.07h-6.44l-4-6.43-4-6.44-2.79,2.4v4.37c0,3.12.2,3.7,1.68,3.84l1.73.19v2.07H179.49v-2.07L181,284c1.68-.19,1.92-.62,1.92-3.84V256.76c0-2.16-.67-2.92-2.35-3.21l-1.39-.24.29-2,6.67-.86,1.05.57Z"/><path d="M206.94,273.76c0-7.83,4.27-13,11.62-13,7.58,0,10.85,5.23,10.85,12.91,0,8-3.89,13.06-11.43,13.06S206.94,281.58,206.94,273.76Zm17.81-.05c0-7-2.35-10.13-6.43-10.13s-6.72,3.07-6.72,10.18,2.54,10.32,6.62,10.32S224.75,281,224.75,273.71Z"/><path d="M251.53,286.24l-.76-3a8.9,8.9,0,0,1-7.44,3.56c-5.76,0-9.61-4.23-9.61-12.53,0-9.41,4.47-13.44,10.33-13.44a8.5,8.5,0,0,1,6.24,2.45v-6.49c0-2.2-.63-2.92-2.36-3.21l-1.39-.24.29-2,6.91-.86.82.52v29.81c0,2.16.19,2.84,2,3.17l1.34.24v2Zm-1.24-20.16a8.88,8.88,0,0,0-5.67-1.92c-3.84,0-6.29,2.78-6.29,9.65s2.21,9.6,6.2,9.6a7.75,7.75,0,0,0,5.76-2.55Z"/><path d="M283.17,286.05a7.17,7.17,0,0,1-3.27.72,3.8,3.8,0,0,1-4.17-3.56,8,8,0,0,1-7,3.56c-5.52,0-7.3-3-7.3-6.72,0-6.29,5.42-7.68,13.92-8v-2.64c0-3.84-1.29-5.23-4.56-5.23a16.76,16.76,0,0,0-7.15,1.53l-.87-2.35a17.1,17.1,0,0,1,8.89-2.54c4.89,0,7.92,2,7.92,8.45v12.38c0,2,.24,2.35,1.92,2.54l1.53.2Zm-7.83-11.33c-6.72.09-9.31,1.25-9.31,4.94,0,2.64,1.58,3.94,4.13,3.94a4.8,4.8,0,0,0,5.18-5Z"/><path d="M322.67,289.6a19.42,19.42,0,0,1-10.27,2.5c-9.22,0-15.94-5.52-15.94-16.33,0-10.22,7.06-18.24,18.19-18.24,9.94,0,16.28,5.14,16.28,14.64,0,8.84-4.37,12.25-9.65,12.25-3,0-4.61-1.21-5.28-3.22a7.77,7.77,0,0,1-5.76,3.22c-2.93,0-5-2.36-5-6.73,0-7.63,3.74-12.86,10.37-12.86a15.43,15.43,0,0,1,6.38,1.39l-1.58,9.6a28.26,28.26,0,0,0-.39,3.75,2.05,2.05,0,0,0,2.35,2.25c2.79,0,5-2.69,5-9.5,0-6.53-3.12-11.91-12.92-11.91s-14.25,7.35-14.25,15.12c0,9.22,4.75,13.69,13,13.69a23.63,23.63,0,0,0,8.64-1.83Zm-4.94-21.55a5.28,5.28,0,0,0-2.5-.53c-4.23,0-5.81,4.41-5.81,9.45,0,2.93.77,4.08,2.79,4.08A5.54,5.54,0,0,0,316,278.8Z"/><path d="M343.64,280.14c0,3.12.1,3.6,1.68,3.89l1.44.19v2H335.92v-2.07l1.53-.19c1.68-.19,1.92-.62,1.92-3.84V267.33c0-2.21-.67-2.93-2.35-3.22l-1.39-.24.29-2,6.24-.82.67.29.43,3.32c2.4-2.21,4.9-3.89,8.26-3.89,2.78,0,5.13,1.05,6.29,4,2.4-2.3,5-4,8.64-4,4.08,0,7.05,2.11,7.05,8.69v10.65c0,3.07.24,3.65,1.92,3.84l1.68.24v2H366.3v-2l1.39-.19c1.44-.24,1.54-.82,1.54-3.6V270c0-3.7-1.44-5.38-4.27-5.38a12.81,12.81,0,0,0-6.58,2.21,14.8,14.8,0,0,1,.19,2.69v10.65c0,3.17.1,3.65,1.59,3.89l1.29.19v2h-9.93v-2l1.24-.19c1.45-.24,1.54-.82,1.54-3.6V270c0-3.7-1.44-5.38-4.13-5.38a12.64,12.64,0,0,0-6.53,2.21Z"/><path d="M388.38,280.14c0,3.12.19,3.7,1.68,3.84l1.73.19v2.07H380.65v-2.07l1.54-.19c1.68-.19,1.92-.62,1.92-3.84V267.28c0-2.21-.68-2.83-2.36-3.12l-1.39-.24.29-2,7-.87.72.34Zm-2.79-24.05a2.81,2.81,0,0,1-3.12-3.07c0-2,1.2-3,3.12-3s3.17,1,3.17,3S387.61,256.09,385.59,256.09Z"/><path d="M403.16,272.22l9.41-8.16v-.19l-3.17-.29.39-2.25h9.74v2.16l-1,.09c-1.25.15-2.11.67-3.69,2l-5.52,4.85,6.43,10.22c1.49,2.5,2.45,3.08,3.79,3.36l.86.19v2.07H414l-4-6.43-4-6.44-2.79,2.4v4.37c0,3.12.2,3.7,1.68,3.84l1.73.19v2.07H395.43v-2.07L397,284c1.68-.19,1.92-.62,1.92-3.84V256.76c0-2.16-.67-2.92-2.35-3.21l-1.39-.24.28-2,6.68-.86,1.05.57Z"/><path d="M443.15,283.55a14.23,14.23,0,0,1-9,3.22c-7.49,0-11.33-5.72-11.33-12.82,0-9.17,5.38-13.15,11.14-13.15,5.38,0,9.41,3.26,9.41,11.28a18.61,18.61,0,0,1-.15,2.49H427.55c.14,5.48,3.07,8.64,7.63,8.64a13.41,13.41,0,0,0,6.77-1.72Zm-4.27-11.86c.28-5.42-1.78-8.11-5.24-8.11s-5.85,2.5-6.14,8.11Z"/><path class="d" d="M461.92,286.24l1.53-9.65h-7.63l-1.54,9.65h-3.07l1.54-9.65h-5.19l.48-3h5.24L455,262.86h-5.23l.53-3h5.23l1.35-8.36H460l-1.39,8.36h7.68l1.34-8.36h3.07l-1.34,8.36h5.09l-.48,3h-5.14l-1.73,10.71h5.28l-.43,3h-5.33L465,286.24Zm3.79-23.38h-7.63l-1.73,10.71H464Z"/><path d="M494.12,276.49c0-5.71-3.69-6.57-7.2-6.57h-3.31v-3l3.7-.38c4.37-.43,6.53-2.83,6.53-7.1,0-2.84-1.25-5.62-5.72-5.62-3.64,0-4.41,1-4.84,3.5l-.49,2.64-2.78.29-.48-7.15a18.26,18.26,0,0,1,9-2.21c8.64,0,9.7,5.23,9.7,8.21a9,9,0,0,1-5.67,8.64v.1c3,.81,6.53,2.73,6.53,8.3,0,7.15-4.95,10.71-11.86,10.71-3.93,0-7.25-.77-8.93-1.78l.43-7.3h2.93l.63,3.31c.33,1.88,1.25,2.79,4.89,2.79C492.44,283.84,494.12,280.38,494.12,276.49Z"/><path d="M526.24,276.69c0,6.52-5.57,10.08-12.1,10.08-7.92,0-11.28-3.84-11.28-8.79,0-5.28,4.08-8.06,7-9.79-3.07-1.92-5.57-4.13-5.57-8.26,0-4.94,3.75-9.07,10.75-9.07,5.48,0,10,2.59,10,7.73,0,4.22-2.6,7-5.86,9.26C522.88,269.82,526.24,272,526.24,276.69Zm-13.64-7c-2.64,1.73-5.18,4.08-5.18,7.82,0,4.42,3,6.34,7,6.34,6.05,0,6.91-4.37,6.91-6.19C521.34,273.57,516.92,271.84,512.6,269.68Zm5.72-5a8.86,8.86,0,0,0,2.49-6.19c0-2.5-1.53-4.76-5.81-4.76s-6.19,2.45-6.19,4.95c0,4,3.55,5.9,7.44,7.77A15.33,15.33,0,0,0,518.32,264.64Z"/></g></svg>