<svg xmlns="http://www.w3.org/2000/svg" xmlns:xlink="http://www.w3.org/1999/xlink" viewBox="0 0 800 600"><defs><style>.a,.e,.f{fill:none;}.b{clip-path:url(#a);}.c{fill:#e5e5e5;}.d{fill:red;}.e,.f{stroke:#000;stroke-linecap:round;stroke-linejoin:round;}.e{stroke-dasharray:0 3;}</style><clipPath id="a"><rect class="a" width="800" height="600"/></clipPath></defs><title>dArtboard 5</title><g class="b"><rect class="c" x="0.5" width="799" height="600"/><polygon class="d" points="103.98 335.53 106.95 330 101 330 103.98 335.53"/><polygon class="d" points="207.98 512 210.95 506.47 205 506.47 207.98 512"/><polygon class="d" points="372.98 335.53 375.95 330 370 330 372.98 335.53"/><polygon class="d" points="529.98 335.53 532.95 330 527 330 529.98 335.53"/><polygon class="d" points="559.98 417.53 562.95 412 557 412 559.98 417.53"/><path class="d" d="M18.19,575.67v-5.24h1.39v6.46c0,1.7.63,2.57,2.35,2.57s2.24-1,2.24-2.56v-6.47h1.39v5.25c0,3-.45,5-3.68,5C19,580.64,18.19,579.52,18.19,575.67Z"/><path class="d" d="M29.83,570.43l4.66,8.24h0v-8.24h1.28V580.5H34.1l-4.69-8.18h-.05v8.18H28.07V570.43Z"/><path class="d" d="M44.42,570.43v1.15H39.85v3.19h4v1.12h-4v3.48h4.57v1.13h-6V570.43Z"/><path class="d" d="M46.85,570.43l2.67,8.6h0l2.73-8.59h1.4L50.31,580.5H48.7l-3.31-10.07Z"/><path class="d" d="M61.09,570.43v1.15H56.52v3.19h4v1.12h-4v3.48h4.57v1.13h-6V570.43Z"/><path class="d" d="M65,570.43l4.67,8.24h0v-8.24H71V580.5H69.29l-4.69-8.18h0v8.18H63.27V570.43Z"/><path class="d" d="M75.66,580.15l-.11-1.2h.07a6,6,0,0,0,2.43.56c1.39,0,2.09-.65,2.09-1.69s-1-1.52-2-2-2.5-1.09-2.5-2.87c0-1.31.84-2.69,3.12-2.69a6.19,6.19,0,0,1,2.16.39l.11,1.16h0a6.88,6.88,0,0,0-2.16-.42c-1.37,0-1.85.7-1.85,1.45,0,1,.94,1.44,2.05,1.92s2.46,1.12,2.46,2.94c0,1.3-.78,2.91-3.33,2.91A6.15,6.15,0,0,1,75.66,580.15Z"/><path class="d" d="M86.47,570.43c2.82,0,3.66,1.33,3.66,3.23,0,2.25-1.38,3.58-3.81,3.58H84.71v3.26H83.32V570.43Zm2.23,3.29a1.91,1.91,0,0,0-2.2-2.16H84.71v4.54h1.56A2.15,2.15,0,0,0,88.7,573.72Z"/><path class="d" d="M95.16,570.43l3.52,10.07H97.24l-.94-2.76h-4l-.91,2.76H90l3.53-10.07Zm-.82,1.24h0l-1.66,5H96Z"/><path class="d" d="M99.36,575.61c0-2.87,1.49-5.32,4.64-5.32a7.64,7.64,0,0,1,2.41.4l.12,1.22h0a7.72,7.72,0,0,0-2.38-.43c-2,0-3.32,1.34-3.32,4,0,1.89.69,4,3.32,4a6.67,6.67,0,0,0,2.38-.47h.06l-.11,1.2a7.37,7.37,0,0,1-2.57.45C100.68,580.64,99.36,578.27,99.36,575.61Z"/><path class="d" d="M110,570.43V580.5h-1.39V570.43Z"/><path class="d" d="M114.44,570.43l4.66,8.24h.05v-8.24h1.27V580.5h-1.71L114,572.32h0v8.18h-1.29V570.43Z"/><path class="d" d="M122.52,575.54c0-2.8,1.44-5.25,4.86-5.25a7.44,7.44,0,0,1,2.42.4L130,572h-.06a7,7,0,0,0-2.44-.48c-2,0-3.51,1.15-3.51,4.08,0,2.19.92,3.93,3.23,3.93a4.76,4.76,0,0,0,1.67-.25v-2.61H127v-1.06h3.22v4.51a8.14,8.14,0,0,1-3.16.56C123.72,580.64,122.52,578.2,122.52,575.54Z"/><path class="d" d="M24.28,266.43v1.15H19.72v3.19h4v1.12h-4v3.48h4.56v1.13h-6V266.43Z"/><path class="d" d="M26.72,266.43l2.67,8.6h0l2.74-8.59h1.4L30.18,276.5H28.57l-3.31-10.07Z"/><path class="d" d="M41,266.43v1.15H36.39v3.19h4v1.12h-4v3.48H41v1.13H35V266.43Z"/><path class="d" d="M44.89,266.43l4.66,8.24h.05v-8.24h1.27V276.5H49.16l-4.69-8.18h0v8.18H43.14V266.43Z"/><path class="d" d="M55.53,276.15l-.11-1.2h.07a6,6,0,0,0,2.43.56c1.39,0,2.09-.65,2.09-1.69s-1-1.52-2-2c-1.2-.5-2.5-1.09-2.5-2.87,0-1.31.84-2.69,3.12-2.69a6.19,6.19,0,0,1,2.16.39l.11,1.16h0a6.88,6.88,0,0,0-2.16-.42c-1.37,0-1.85.7-1.85,1.45,0,1,.94,1.44,2.05,1.92s2.46,1.12,2.46,2.94c0,1.3-.78,2.91-3.33,2.91A6.15,6.15,0,0,1,55.53,276.15Z"/><path class="d" d="M66.34,266.43c2.81,0,3.65,1.33,3.65,3.23,0,2.25-1.37,3.58-3.81,3.58H64.57v3.26H63.19V266.43Zm2.22,3.29a1.9,1.9,0,0,0-2.19-2.16h-1.8v4.54h1.57A2.15,2.15,0,0,0,68.56,269.72Z"/><path class="d" d="M75,266.43l3.52,10.07H77.11l-.94-2.76h-4l-.91,2.76H69.88l3.53-10.07Zm-.82,1.24h0l-1.67,5h3.37Z"/><path class="d" d="M79.23,271.61c0-2.87,1.48-5.32,4.64-5.32a7.64,7.64,0,0,1,2.41.4l.12,1.22h0a7.78,7.78,0,0,0-2.38-.43c-2,0-3.32,1.34-3.32,4,0,1.89.68,4,3.32,4a6.72,6.72,0,0,0,2.38-.47h.06l-.12,1.2a7.26,7.26,0,0,1-2.56.45C80.55,276.64,79.23,274.27,79.23,271.61Z"/><path class="d" d="M89.83,266.43V276.5H88.44V266.43Z"/><path class="d" d="M94.31,266.43,99,274.67h0v-8.24h1.28V276.5H98.58l-4.69-8.18h0v8.18H92.56V266.43Z"/><path class="d" d="M102.38,271.54c0-2.8,1.45-5.25,4.87-5.25a7.44,7.44,0,0,1,2.42.4l.15,1.27h0a7,7,0,0,0-2.44-.48c-2,0-3.52,1.15-3.52,4.08,0,2.19.93,3.93,3.24,3.93a4.76,4.76,0,0,0,1.67-.25v-2.61h-1.85v-1.06h3.22v4.51a8.16,8.16,0,0,1-3.17.56C103.59,276.64,102.38,274.2,102.38,271.54Z"/><path d="M33.49,52.7H56.68V38.59c0-4.68-.15-5.47-2.52-5.69l-2.88-.29V29.23H69.2v3.38l-2.88.29c-2.44.22-2.73.86-2.73,5.18V71.93c0,4.61.36,5.4,2.88,5.69l2.66.35v3.39H51.42V78l2.95-.35c2-.22,2.31-1.08,2.31-5.26V57H33.49v15c0,4.68,0,5.4,2.52,5.69l2.88.35v3.39H21V78l2.88-.35c2.52-.29,2.74-.8,2.74-5.62V38.16c0-4.18-.51-5-2.88-5.26L21,32.61V29.23H38.75v3.38l-3,.29c-2.08.22-2.3,1.08-2.3,5.26Z"/><path d="M76.4,56c0-15.33,7.35-27.72,23.26-27.72,14.69,0,20.66,11.88,20.66,26.36,0,15.84-7,27.57-22.39,27.57S76.4,70.27,76.4,56Zm36.36-.72c0-16.7-5.76-22.54-13.89-22.54S84,38.59,84,55.37c0,17.42,6.34,22.39,14.4,22.39C106.14,77.76,112.76,71.93,112.76,55.29Z"/><path d="M140.05,52.7h23.19V38.59c0-4.68-.15-5.47-2.53-5.69l-2.88-.29V29.23h17.93v3.38l-2.88.29c-2.44.22-2.73.86-2.73,5.18V71.93c0,4.61.36,5.4,2.88,5.69l2.66.35v3.39H158V78l3-.35c2-.22,2.31-1.08,2.31-5.26V57H140.05v15c0,4.68,0,5.4,2.52,5.69l2.88.35v3.39H127.52V78l2.88-.35c2.52-.29,2.74-.8,2.74-5.62V38.16c0-4.18-.51-5-2.88-5.26l-2.67-.29V29.23h17.72v3.38l-3,.29c-2.08.22-2.3,1.08-2.3,5.26Z"/><path d="M209.89,52.7h23.18V38.59c0-4.68-.14-5.47-2.52-5.69l-2.88-.29V29.23H245.6v3.38l-2.88.29c-2.45.22-2.73.86-2.73,5.18V71.93c0,4.61.36,5.4,2.88,5.69l2.66.35v3.39H227.82V78l3-.35c2-.22,2.3-1.08,2.3-5.26V57H209.89v15c0,4.68,0,5.4,2.52,5.69l2.88.35v3.39H197.36V78l2.88-.35c2.52-.29,2.74-.8,2.74-5.62V38.16c0-4.18-.51-5-2.88-5.26l-2.67-.29V29.23h17.71v3.38l-2.95.29c-2.09.22-2.3,1.08-2.3,5.26Z"/><path d="M266.05,71.93c0,4.68.07,5.47,2.52,5.69l2.88.35v3.39H253.52V78l2.88-.35c2.45-.22,2.74-.8,2.74-5.62V38.16c0-4.18-.36-5-2.89-5.26l-2.66-.29V29.23H271.3v3.38l-2.95.29c-2.09.22-2.3,1.08-2.3,5.26Z"/><path d="M292.11,52.7H315.3V38.59c0-4.68-.15-5.47-2.52-5.69l-2.88-.29V29.23h17.93v3.38L325,32.9c-2.45.22-2.74.86-2.74,5.18V71.93c0,4.61.36,5.4,2.88,5.69l2.66.35v3.39H310V78l2.95-.35c2-.22,2.31-1.08,2.31-5.26V57H292.11v15c0,4.68,0,5.4,2.52,5.69l2.88.35v3.39H279.58V78l2.88-.35c2.52-.29,2.74-.8,2.74-5.62V38.16c0-4.18-.5-5-2.88-5.26l-2.66-.29V29.23h17.71v3.38l-2.95.29c-2.09.22-2.31,1.08-2.31,5.26Z"/><path d="M362,52.7h23.19V38.59c0-4.68-.15-5.47-2.52-5.69l-2.88-.29V29.23h17.93v3.38l-2.88.29c-2.45.22-2.74.86-2.74,5.18V71.93c0,4.61.36,5.4,2.88,5.69l2.66.35v3.39H379.88V78l2.95-.35c2-.22,2.31-1.08,2.31-5.26V57H362v15c0,4.68,0,5.4,2.52,5.69l2.88.35v3.39H349.42V78l2.88-.35c2.52-.29,2.74-.8,2.74-5.62V38.16c0-4.18-.51-5-2.88-5.26l-2.67-.29V29.23h17.72v3.38l-3,.29c-2.08.22-2.3,1.08-2.3,5.26Z"/><path d="M430.78,29.23l13.47,42.55c1.58,4.76,2.16,5.4,4.39,5.91l1.8.21v3.46H432.73V77.9l5.69-.72L434.74,64.8H416l-3.74,12.45,5.54.65v3.46H402.34V77.9l2-.28c2.52-.44,3.09-1.88,4.17-5.12l14.26-43.27Zm-5.4,5.54h-.07L417.1,60.55h16.28Z"/><path d="M467.93,52.7h23.19V38.59c0-4.68-.14-5.47-2.52-5.69l-2.88-.29V29.23h17.93v3.38l-2.88.29c-2.45.22-2.74.86-2.74,5.18V71.93c0,4.61.36,5.4,2.88,5.69l2.67.35v3.39H485.86V78l3-.35c2-.22,2.3-1.08,2.3-5.26V57H467.93v15c0,4.68,0,5.4,2.52,5.69l2.88.35v3.39H455.4V78l2.89-.35c2.52-.29,2.73-.8,2.73-5.62V38.16c0-4.18-.5-5-2.88-5.26l-2.66-.29V29.23h17.71v3.38l-2.95.29c-2.09.22-2.31,1.08-2.31,5.26Z"/><path d="M537.77,52.7H561V38.59c0-4.68-.15-5.47-2.52-5.69l-2.88-.29V29.23h17.93v3.38l-2.88.29c-2.45.22-2.74.86-2.74,5.18V71.93c0,4.61.36,5.4,2.88,5.69l2.67.35v3.39H555.7V78l2.95-.35c2-.22,2.31-1.08,2.31-5.26V57H537.77v15c0,4.68,0,5.4,2.52,5.69l2.88.35v3.39H525.24V78l2.88-.35c2.52-.29,2.74-.8,2.74-5.62V38.16c0-4.18-.5-5-2.88-5.26l-2.66-.29V29.23H543v3.38l-2.95.29c-2.09.22-2.31,1.08-2.31,5.26Z"/><path d="M602.5,76.32h.29l12.89-43.13-5.19-.58V29.23h14.77v3.38l-2.09.22c-2.52.29-2.74.65-3.67,3.89L606,81.36h-8.43L584.14,38.8c-1.58-4.68-1.87-5.54-4.1-6l-1.88-.22V29.23H595.3v3.38l-5.62.79Z"/><path d="M642.46,52.7h23.19V38.59c0-4.68-.15-5.47-2.52-5.69l-2.88-.29V29.23h17.93v3.38l-2.89.29c-2.44.22-2.73.86-2.73,5.18V71.93c0,4.61.36,5.4,2.88,5.69l2.66.35v3.39H660.39V78l3-.35c2-.22,2.31-1.08,2.31-5.26V57H642.46v15c0,4.68,0,5.4,2.52,5.69l2.88.35v3.39H629.93V78l2.88-.35c2.52-.29,2.74-.8,2.74-5.62V38.16c0-4.18-.51-5-2.88-5.26L630,32.61V29.23h17.72v3.38l-3,.29c-2.08.22-2.3,1.08-2.3,5.26Z"/><path d="M20.24,143.64c0-11.74,6.41-19.44,17.43-19.44,11.37,0,16.27,7.84,16.27,19.37,0,12-5.83,19.58-17.14,19.58S20.24,155.38,20.24,143.64ZM47,143.57c0-10.45-3.53-15.2-9.65-15.2S27.22,133,27.22,143.64s3.82,15.48,9.94,15.48S47,154.44,47,143.57Z"/><path d="M71.94,153.21c0,4.68.29,5.55,2.52,5.76l2.59.29v3.1H60.34v-3.1l2.31-.29c2.52-.28,2.88-.93,2.88-5.76V118.15c0-3.32-.94-4.4-3.53-4.83L59.91,113l.43-2.95,10-1.3,1.59.87Z"/><path d="M82.66,143.64c0-11.74,6.41-19.44,17.43-19.44,11.38,0,16.27,7.84,16.27,19.37,0,12-5.83,19.58-17.14,19.58S82.66,155.38,82.66,143.64Zm26.72-.07c0-10.45-3.53-15.2-9.65-15.2S89.65,133,89.65,143.64s3.81,15.48,9.93,15.48S109.38,154.44,109.38,143.57Z"/><path d="M136.52,143.64c0-11.74,6.41-19.44,17.42-19.44,11.38,0,16.28,7.84,16.28,19.37,0,12-5.84,19.58-17.14,19.58C141.63,163.15,136.52,155.38,136.52,143.64Zm26.71-.07c0-10.45-3.53-15.2-9.65-15.2S143.5,133,143.5,143.64s3.82,15.48,9.94,15.48S163.23,154.44,163.23,143.57Z"/><path d="M189.51,162.36l-11.45-29.31c-1.37-3.45-1.8-4.17-3.81-4.61l-1.08-.21.64-3.24h14.12v3.24l-4.25.57,9.94,27.94h.28l9.51-27.94-4.61-.57.5-3.24h12.61v3.17l-1,.14c-2.38.36-2.74.94-4,4.1l-10.23,30Z"/><path d="M214.06,143.64c0-11.74,6.41-19.44,17.43-19.44,11.37,0,16.27,7.84,16.27,19.37,0,12-5.83,19.58-17.14,19.58S214.06,155.38,214.06,143.64Zm26.72-.07c0-10.45-3.53-15.2-9.65-15.2s-10.08,4.61-10.08,15.27,3.81,15.48,9.93,15.48S240.78,154.44,240.78,143.57Z"/><path d="M267.92,143.64c0-11.74,6.41-19.44,17.42-19.44,11.38,0,16.28,7.84,16.28,19.37,0,12-5.84,19.58-17.14,19.58C273,163.15,267.92,155.38,267.92,143.64Zm26.71-.07c0-10.45-3.53-15.2-9.65-15.2S274.9,133,274.9,143.64s3.82,15.48,9.94,15.48S294.63,154.44,294.63,143.57Z"/><path d="M319.83,153.21c0,4.68.29,5.55,2.52,5.76l2.59.29v3.1h-16.7v-3.1l2.3-.29c2.52-.28,2.88-.93,2.88-5.76V133.92c0-3.32-1-4.25-3.53-4.68l-2.09-.36.44-3,10.51-1.29,1.08.5Zm-4.18-36.07c-2.88,0-4.68-1.58-4.68-4.61s1.8-4.46,4.68-4.46,4.76,1.51,4.76,4.46S318.68,117.14,315.65,117.14Z"/><path d="M330.84,143.64c0-11.74,6.41-19.44,17.43-19.44,11.38,0,16.27,7.84,16.27,19.37,0,12-5.83,19.58-17.13,19.58C336,163.15,330.84,155.38,330.84,143.64Zm26.72-.07c0-10.45-3.53-15.2-9.65-15.2s-10.08,4.61-10.08,15.27,3.82,15.48,9.94,15.48S357.56,154.44,357.56,143.57Z"/><path d="M384.34,136.51c0-16.63,5.69-27.29,17.71-27.29s16.85,10.15,16.85,26.35c0,17.43-5.25,27.65-17.49,27.65S384.34,152.85,384.34,136.51Zm27.29-.65c0-17.64-2.74-22.46-9.79-22.46-7.78,0-10.08,7-10.08,22.53,0,18.08,2.8,23.26,9.86,23.26S411.63,153.72,411.63,135.86Z"/><path d="M440.64,154.44c0,3.31,1.88,3.81,4.11,4.1l3.46.43v3.39H425.52V159l3.17-.35c3-.37,5-.87,5-4.18V122c0-3.24-.57-4.4-2.88-4.83l-4.82-.86.29-2.95,12.89-3.46,1.43.5Z"/><path d="M454.32,136.51c0-16.63,5.69-27.29,17.72-27.29s16.85,10.15,16.85,26.35c0,17.43-5.26,27.65-17.5,27.65S454.32,152.85,454.32,136.51Zm27.29-.65c0-17.64-2.73-22.46-9.79-22.46-7.78,0-10.08,7-10.08,22.53,0,18.08,2.81,23.26,9.86,23.26S481.61,153.72,481.61,135.86Z"/><path d="M508.32,136.51c0-16.63,5.69-27.29,17.72-27.29s16.84,10.15,16.84,26.35c0,17.43-5.25,27.65-17.49,27.65S508.32,152.85,508.32,136.51Zm27.29-.65c0-17.64-2.73-22.46-9.79-22.46-7.78,0-10.08,7-10.08,22.53,0,18.08,2.81,23.26,9.86,23.26S535.61,153.72,535.61,135.86Z"/><path d="M583,148c0,9.79-8.35,15.12-18.15,15.12-11.88,0-16.92-5.76-16.92-13.18,0-7.92,6.12-12.09,10.44-14.68-4.61-2.89-8.35-6.2-8.35-12.39,0-7.42,5.62-13.61,16.13-13.61,8.21,0,15.05,3.89,15.05,11.59,0,6.34-3.89,10.44-8.79,13.9C578,137.73,583,141.05,583,148Zm-20.45-10.51c-4,2.59-7.78,6.12-7.78,11.73,0,6.63,4.47,9.51,10.51,9.51,9.08,0,10.37-6.55,10.37-9.29C575.64,143.35,569,140.76,562.54,137.52Zm8.57-7.56a13.26,13.26,0,0,0,3.74-9.29c0-3.75-2.3-7.13-8.71-7.13s-9.29,3.67-9.29,7.42c0,6,5.33,8.85,11.16,11.66A23.64,23.64,0,0,0,571.11,130Z"/><path d="M588,136.51c0-16.63,5.68-27.29,17.71-27.29s16.85,10.15,16.85,26.35c0,17.43-5.26,27.65-17.5,27.65S588,152.85,588,136.51Zm27.29-.65c0-17.64-2.74-22.46-9.8-22.46-7.77,0-10.08,7-10.08,22.53,0,18.08,2.81,23.26,9.87,23.26S615.32,153.72,615.32,135.86Z"/><path d="M31.83,234.21c0,4.68.08,5.48,2.52,5.84l2,.28v3H20.17v-3.1l2.3-.29c2.52-.28,2.88-.93,2.88-5.76V215c0-3.31-1-4.39-3.53-4.83l-2.08-.36.43-3,9.43-1.22,1,.43.65,5c3.6-3.31,7.49-5.83,13-5.83,6.41,0,11,3.16,11,13v16c0,4.61.36,5.48,2.88,5.76l2.52.36v3H44.43v-3l2.09-.28c2.23-.29,2.31-1.23,2.31-5.4V218.81c0-5.12-2.09-8.07-7.06-8.07a19.53,19.53,0,0,0-9.94,3.31Z"/><path d="M77.41,234.21c0,4.68.07,5.48,2.52,5.84l2,.28v3H65.74v-3.1l2.31-.29c2.52-.28,2.88-.93,2.88-5.76V215c0-3.31-1-4.39-3.53-4.83l-2.09-.36.43-3,9.44-1.22,1,.43.65,5c3.6-3.31,7.49-5.83,13-5.83,6.41,0,11,3.16,11,13v16c0,4.61.36,5.48,2.88,5.76l2.52.36v3H90v-3l2.09-.28c2.23-.29,2.3-1.23,2.3-5.4V218.81c0-5.12-2.09-8.07-7.05-8.07a19.47,19.47,0,0,0-9.94,3.31Z"/><path d="M111.39,224.64c0-11.74,6.41-19.44,17.43-19.44,11.37,0,16.27,7.84,16.27,19.37,0,12-5.83,19.58-17.14,19.58S111.39,236.38,111.39,224.64Zm26.72-.07c0-10.45-3.53-15.2-9.65-15.2s-10.08,4.61-10.08,15.27,3.81,15.48,9.93,15.48S138.11,235.44,138.11,224.57Z"/><path d="M163.16,234.21c0,4.68.07,5.48,2.52,5.84l2,.28v3H151.5v-3.1l2.3-.29c2.52-.28,2.88-.93,2.88-5.76V215c0-3.31-1-4.39-3.53-4.83l-2.09-.36.44-3,9.43-1.22,1,.43.64,5c3.6-3.31,7.49-5.83,13-5.83,6.4,0,11,3.16,11,13v16c0,4.61.36,5.48,2.88,5.76l2.52.36v3h-16.2v-3l2.09-.28c2.23-.29,2.3-1.23,2.3-5.4V218.81c0-5.12-2.08-8.07-7.05-8.07a19.53,19.53,0,0,0-9.94,3.31Z"/><path d="M197.14,224.64c0-11.74,6.41-19.44,17.43-19.44,11.38,0,16.27,7.84,16.27,19.37,0,12-5.83,19.58-17.13,19.58C202.26,244.15,197.14,236.38,197.14,224.64Zm26.72-.07c0-10.45-3.53-15.2-9.65-15.2s-10.08,4.61-10.08,15.27,3.81,15.48,9.93,15.48S223.86,235.44,223.86,224.57Z"/><path d="M237.32,224.64c0-11.74,6.41-19.44,17.42-19.44,11.38,0,16.28,7.84,16.28,19.37,0,12-5.83,19.58-17.14,19.58S237.32,236.38,237.32,224.64Zm26.71-.07c0-10.45-3.53-15.2-9.65-15.2S244.3,214,244.3,224.64s3.82,15.48,9.94,15.48S264,235.44,264,224.57Z"/><path d="M289.09,234.21c0,4.68.07,5.48,2.52,5.84l2,.28v3h-16.2v-3.1l2.31-.29c2.52-.28,2.88-.93,2.88-5.76V215c0-3.31-1-4.39-3.53-4.83L277,209.8l.43-3,9.44-1.22,1,.43.65,5c3.6-3.31,7.49-5.83,13-5.83,6.41,0,11,3.16,11,13v16c0,4.61.36,5.48,2.88,5.76l2.52.36v3h-16.2v-3l2.09-.28c2.23-.29,2.3-1.23,2.3-5.4V218.81c0-5.12-2.09-8.07-7.05-8.07a19.47,19.47,0,0,0-9.94,3.31Z"/><path d="M323.07,224.64c0-11.74,6.41-19.44,17.43-19.44,11.37,0,16.27,7.84,16.27,19.37,0,12-5.83,19.58-17.14,19.58S323.07,236.38,323.07,224.64Zm26.72-.07c0-10.45-3.53-15.2-9.65-15.2s-10.08,4.61-10.08,15.27,3.81,15.48,9.93,15.48S349.79,235.44,349.79,224.57Z"/><path d="M376.5,214.7h23.18V200.59c0-4.68-.14-5.47-2.52-5.69l-2.88-.29v-3.38h17.93v3.38l-2.88.29c-2.45.22-2.74.86-2.74,5.18v33.85c0,4.61.36,5.4,2.88,5.69l2.67.35v3.39H394.43V240l2.95-.35c2-.22,2.3-1.08,2.3-5.26V219H376.5v15c0,4.68,0,5.4,2.52,5.69l2.88.35v3.39H364V240l2.88-.35c2.52-.29,2.73-.8,2.73-5.62V200.16c0-4.18-.5-5-2.88-5.26l-2.66-.29v-3.38h17.71v3.38l-2.95.29c-2.09.22-2.3,1.08-2.3,5.26Z"/><path d="M419.41,218c0-15.33,7.34-27.72,23.25-27.72,14.69,0,20.67,11.88,20.67,26.36,0,15.84-7,27.57-22.39,27.57S419.41,232.27,419.41,218Zm36.36-.72c0-16.7-5.76-22.54-13.9-22.54S427,200.59,427,217.37c0,17.42,6.34,22.39,14.4,22.39C449.15,239.76,455.77,233.93,455.77,217.29Z"/><path d="M483.06,214.7h23.18V200.59c0-4.68-.14-5.47-2.52-5.69l-2.88-.29v-3.38h17.93v3.38l-2.88.29c-2.45.22-2.74.86-2.74,5.18v33.85c0,4.61.36,5.4,2.88,5.69l2.67.35v3.39H501V240l2.95-.35c2-.22,2.3-1.08,2.3-5.26V219H483.06v15c0,4.68,0,5.4,2.52,5.69l2.88.35v3.39H470.53V240l2.88-.35c2.52-.29,2.73-.8,2.73-5.62V200.16c0-4.18-.5-5-2.88-5.26l-2.66-.29v-3.38h17.71v3.38l-2.95.29c-2.09.22-2.3,1.08-2.3,5.26Z"/><path d="M539.22,214.7H562.4V200.59c0-4.68-.14-5.47-2.52-5.69l-2.88-.29v-3.38h17.93v3.38l-2.88.29c-2.45.22-2.74.86-2.74,5.18v33.85c0,4.61.36,5.4,2.88,5.69l2.67.35v3.39H557.14V240l3-.35c2-.22,2.3-1.08,2.3-5.26V219H539.22v15c0,4.68,0,5.4,2.52,5.69l2.88.35v3.39H526.69V240l2.88-.35c2.52-.29,2.73-.8,2.73-5.62V200.16c0-4.18-.5-5-2.88-5.26l-2.66-.29v-3.38h17.71v3.38l-3,.29c-2.09.22-2.3,1.08-2.3,5.26Z"/><path d="M582.13,218c0-15.33,7.34-27.72,23.25-27.72,14.69,0,20.67,11.88,20.67,26.36,0,15.84-7,27.57-22.39,27.57S582.13,232.27,582.13,218Zm36.36-.72c0-16.7-5.76-22.54-13.9-22.54s-14.83,5.84-14.83,22.62c0,17.42,6.34,22.39,14.4,22.39C611.87,239.76,618.49,233.93,618.49,217.29Z"/><path d="M645.78,214.7H669V200.59c0-4.68-.14-5.47-2.52-5.69l-2.88-.29v-3.38h17.93v3.38l-2.88.29c-2.45.22-2.74.86-2.74,5.18v33.85c0,4.61.36,5.4,2.88,5.69l2.67.35v3.39H663.71V240l2.95-.35c2-.22,2.3-1.08,2.3-5.26V219H645.78v15c0,4.68,0,5.4,2.51,5.69l2.89.35v3.39H633.25V240l2.88-.35c2.52-.29,2.73-.8,2.73-5.62V200.16c0-4.18-.5-5-2.88-5.26l-2.66-.29v-3.38H651v3.38l-2.95.29c-2.09.22-2.3,1.08-2.3,5.26Z"/><path d="M688.69,218c0-15.33,7.34-27.72,23.25-27.72,14.69,0,20.67,11.88,20.67,26.36,0,15.84-7,27.57-22.39,27.57C694.66,244.22,688.69,232.27,688.69,218Zm36.36-.72c0-16.7-5.76-22.54-13.9-22.54s-14.83,5.84-14.83,22.62c0,17.42,6.34,22.39,14.4,22.39C718.42,239.76,725.05,233.93,725.05,217.29Z"/><path d="M739.09,218c0-15.33,7.34-27.72,23.25-27.72,14.69,0,20.67,11.88,20.67,26.36,0,15.84-7,27.57-22.39,27.57C745.06,244.22,739.09,232.27,739.09,218Zm36.36-.72c0-16.7-5.76-22.54-13.9-22.54-8,0-14.83,5.84-14.83,22.62,0,17.42,6.33,22.39,14.4,22.39C768.82,239.76,775.45,233.93,775.45,217.29Z"/><g class="b"><path d="M670.67,497.48a35,35,0,0,0-3.59-.15h-.9c-2,0-3.49.08-4.45.15q-8.13.79-11.53,7.15t-3.43,21q0,14.45,3.43,20.47,3.33,5.77,11.53,6.56a34,34,0,0,0,3.55.16h.9c2,0,3.53-.08,4.49-.16q8.13-.78,11.52-7.15t3.44-21q0-14.46-3.44-20.47-3.32-5.79-11.52-6.57m-4.26,51.22h-.7a20.18,20.18,0,0,1-3.24-.2,8.19,8.19,0,0,1-6.33-4.73q-2.61-5.34-2.73-18.55v-1.49q0-12,2.42-17.11a8.32,8.32,0,0,1,6.25-4.92,27.47,27.47,0,0,1,3.9-.27h.71a20.58,20.58,0,0,1,3.24.19,8.22,8.22,0,0,1,6.33,4.73q2.61,5.36,2.73,18.56v1.48q0,12-2.42,17.11a8.28,8.28,0,0,1-6.25,4.92,25.8,25.8,0,0,1-3.91.28M623.8,497.48a35.21,35.21,0,0,0-3.6-.15h-.9c-2,0-3.49.08-4.45.15q-8.13.79-11.52,7.15t-3.44,21q0,14.45,3.44,20.47,3.31,5.77,11.52,6.56a34.25,34.25,0,0,0,3.56.16h.89c2,0,3.53-.08,4.5-.16q8.12-.78,11.52-7.15t3.44-21q0-14.46-3.44-20.47-3.32-5.79-11.52-6.57m-4.26,51.22h-.7a20.41,20.41,0,0,1-3.25-.2,8.19,8.19,0,0,1-6.32-4.73q-2.62-5.34-2.74-18.55v-1.49q0-12,2.42-17.11a8.34,8.34,0,0,1,6.25-4.92,27.52,27.52,0,0,1,3.91-.27h.7a20.41,20.41,0,0,1,3.24.19,8.22,8.22,0,0,1,6.33,4.73q2.63,5.36,2.74,18.56v1.48q0,12-2.43,17.11a8.28,8.28,0,0,1-6.25,4.92,25.64,25.64,0,0,1-3.9.28m-35.47-51v25.19H561.88V497.72h-6v54.69h6V527h22.19v25.39h6V497.72Zm-51.21-.24a35.13,35.13,0,0,0-3.59-.15h-.9c-2,0-3.49.08-4.46.15q-8.11.79-11.52,7.15t-3.44,21q0,14.45,3.44,20.47,3.32,5.77,11.52,6.56a34.39,34.39,0,0,0,3.56.16h.9c2,0,3.53-.08,4.49-.16q8.13-.78,11.52-7.15t3.44-21q0-14.46-3.44-20.47-3.32-5.79-11.52-6.57M528.6,548.7h-.7a20.18,20.18,0,0,1-3.24-.2,8.19,8.19,0,0,1-6.33-4.73q-2.62-5.34-2.74-18.55v-1.49q0-12,2.43-17.11a8.32,8.32,0,0,1,6.25-4.92,27.35,27.35,0,0,1,3.9-.27h.7a20.64,20.64,0,0,1,3.25.19,8.22,8.22,0,0,1,6.32,4.73q2.63,5.36,2.74,18.56v1.48q0,12-2.42,17.11a8.29,8.29,0,0,1-6.25,4.92,25.8,25.8,0,0,1-3.91.28m-35.47-51v25.19H470.94V497.72h-6.05v54.69h6.05V527h22.19v25.39h6.06V497.72Zm-44.06,0v25.19H426.88V497.72h-6.05v54.69h6.05V527h22.19v25.39h6.05V497.72Zm-51.21-.24a35.13,35.13,0,0,0-3.59-.15h-.9c-2,0-3.49.08-4.46.15q-8.12.79-11.52,7.15t-3.44,21q0,14.45,3.44,20.47,3.32,5.77,11.52,6.56a34.39,34.39,0,0,0,3.56.16h.9c2,0,3.53-.08,4.49-.16q8.13-.78,11.52-7.15t3.44-21q0-14.46-3.44-20.47-3.31-5.79-11.52-6.57M393.6,548.7h-.7a20.18,20.18,0,0,1-3.24-.2,8.19,8.19,0,0,1-6.33-4.73q-2.62-5.34-2.74-18.55v-1.49q0-12,2.43-17.11a8.32,8.32,0,0,1,6.25-4.92,27.35,27.35,0,0,1,3.9-.27h.7a20.64,20.64,0,0,1,3.25.19,8.22,8.22,0,0,1,6.32,4.73q2.63,5.36,2.74,18.56v1.48q0,12-2.42,17.11a8.29,8.29,0,0,1-6.25,4.92,25.8,25.8,0,0,1-3.91.28m-35.47-51v25.19H335.94V497.72h-6.05v54.69h6.05V527h22.19v25.39h6.06V497.72Zm-53,15.23q-2.49,0-3.75.12-6.82.54-9.68,5.12t-2.89,15.08q0,10.38,2.89,14.68t9.68,4.73q1.14.12,3.75.12t3.75-.12q6.79-.55,9.69-5.12t2.89-15.08q0-10.38-2.89-14.68t-9.69-4.73q-1.17-.12-3.75-.12m.16,36.06a21.07,21.07,0,0,1-3-.16q-3.75-.93-5.16-3.24-2-3.32-2.14-12.62v-.7q0-8.67,1.87-11.95Q298.28,518,302,517a17.31,17.31,0,0,1,2.93-.2h.7a17.2,17.2,0,0,1,2.27.12c2.5.62,4.23,1.72,5.19,3.28q2,3.32,2.15,12.58v.7q0,8.71-1.87,11.95a8,8,0,0,1-5.12,3.4,25.33,25.33,0,0,1-3,.2m-47.7-33.75a9.22,9.22,0,0,0-.78-1.92l-5.27.36a18.54,18.54,0,0,1,.43,3.71v35h5.86v-33a33.23,33.23,0,0,1,9.41-2c.6,0,1.15,0,1.64,0a12,12,0,0,1,2.66.23,4,4,0,0,1,2.46,1.64c.57.84.89,2.79.94,5.86v27.31h5.86V521.16a8.18,8.18,0,0,0-1.64-5.08q-2.19-3.14-8.28-3.13-4.7,0-13.29,2.31m-30-2.31q-2.49,0-3.75.12-6.83.54-9.68,5.12t-2.89,15.08q0,10.38,2.89,14.68t9.68,4.73q1.14.12,3.75.12t3.75-.12c4.54-.37,7.76-2.07,9.69-5.12s2.89-8.1,2.89-15.08-1-11.82-2.89-14.68-5.08-4.37-9.69-4.73q-1.17-.12-3.75-.12m.16,36.06a21.07,21.07,0,0,1-3-.16q-3.75-.93-5.15-3.24-2-3.32-2.15-12.62v-.7q0-8.67,1.87-11.95,1.37-2.36,5.12-3.36a17.4,17.4,0,0,1,2.93-.2h.7a17.09,17.09,0,0,1,2.27.12c2.5.62,4.23,1.72,5.19,3.28q2,3.32,2.15,12.58v.7q0,8.71-1.87,11.95a8,8,0,0,1-5.12,3.4,25.33,25.33,0,0,1-3,.2M187.35,513q-2.5,0-3.75.12-6.84.54-9.69,5.12T171,533.27q0,10.38,2.89,14.68t9.69,4.73q1.14.12,3.75.12t3.75-.12q6.79-.55,9.69-5.12t2.89-15.08q0-10.38-2.89-14.68t-9.69-4.73q-1.17-.12-3.75-.12m.16,36.06a21.07,21.07,0,0,1-3-.16q-3.75-.93-5.16-3.24-2-3.32-2.15-12.62v-.7q0-8.67,1.88-11.95,1.37-2.36,5.12-3.36a17.31,17.31,0,0,1,2.93-.2h.7a16.93,16.93,0,0,1,2.26.12c2.5.62,4.24,1.72,5.2,3.28q2,3.32,2.15,12.58v.7q0,8.71-1.88,11.95a8,8,0,0,1-5.11,3.4,25.33,25.33,0,0,1-3,.2m-47.7-33.75a9.22,9.22,0,0,0-.78-1.92l-5.27.36a19.31,19.31,0,0,1,.43,3.71v35h5.86v-33a33.16,33.16,0,0,1,9.41-2c.6,0,1.15,0,1.64,0a12,12,0,0,1,2.66.23,4,4,0,0,1,2.46,1.64q.85,1.26.94,5.86v27.31H163V521.16a8.18,8.18,0,0,0-1.65-5.08q-2.18-3.14-8.28-3.13-4.68,0-13.28,2.31m-30-2.31q-2.49,0-3.75.12c-4.56.36-7.78,2.07-9.69,5.12s-2.89,8.1-2.89,15.08,1,11.82,2.89,14.68,5.08,4.36,9.69,4.73q1.14.12,3.75.12t3.75-.12q6.8-.55,9.69-5.12t2.89-15.08q0-10.38-2.89-14.68t-9.69-4.73q-1.17-.12-3.75-.12M110,549a21.07,21.07,0,0,1-3-.16q-3.75-.93-5.16-3.24-2-3.32-2.14-12.62v-.7q0-8.67,1.87-11.95,1.37-2.36,5.12-3.36a17.31,17.31,0,0,1,2.93-.2h.7a17.2,17.2,0,0,1,2.27.12c2.5.62,4.23,1.72,5.19,3.28q2,3.32,2.15,12.58v.7q0,8.71-1.88,11.95a8,8,0,0,1-5.11,3.4,25.33,25.33,0,0,1-3,.2m-47.7-33.75a9.22,9.22,0,0,0-.78-1.92l-5.27.36a19.31,19.31,0,0,1,.43,3.71v35h5.86v-33a33.16,33.16,0,0,1,9.41-2c.6,0,1.15,0,1.64,0a12,12,0,0,1,2.66.23,4,4,0,0,1,2.46,1.64q.85,1.26.94,5.86v27.31h5.86V521.16a8.18,8.18,0,0,0-1.64-5.08q-2.19-3.14-8.29-3.13-4.68,0-13.28,2.31m-37.26,0a9.8,9.8,0,0,0-.78-1.92L19,513.7a18.54,18.54,0,0,1,.43,3.71v35h5.86v-33a33.29,33.29,0,0,1,9.42-2c.59,0,1.14,0,1.64,0a11.92,11.92,0,0,1,2.65.23,4,4,0,0,1,2.46,1.64q.87,1.26.94,5.86v27.31h5.86V521.16a8.18,8.18,0,0,0-1.64-5.08q-2.19-3.14-8.28-3.13Q33.6,513,25,515.26"/><path d="M578.76,417.33c-1.43,0-2.5,0-3.21.11q-5.89.8-8.32,6.88t-2.46,20.74q0,14.54,2.46,20.74t8.32,6.88a29.87,29.87,0,0,0,3.21.12,31,31,0,0,0,3.2-.12q5.89-.82,8.32-6.88,2.46-6.21,2.46-20.74t-2.46-20.74q-2.41-6.09-8.32-6.88c-.65-.07-1.72-.11-3.2-.11m0,51.44a10,10,0,0,1-2.46-.23q-2.89-.78-4-4.92-1.44-5.16-1.44-18.56t1.44-18.55q1.14-4.18,4-4.92a12.73,12.73,0,0,1,4.92,0q2.89.78,4,4.92,1.46,5.14,1.45,18.55t-1.45,18.56q-1.12,4.14-4,4.92a10,10,0,0,1-2.46.23M555.05,427.6a10.16,10.16,0,0,0-2.23-6.87q-2.93-3.41-9.53-3.4t-9.57,3.4a10,10,0,0,0-2.27,6.87,17.06,17.06,0,0,0,2.58,9.49,25.44,25.44,0,0,0,5.27,5.47q-8.94,6.45-9.41,15.74c0,.55,0,1.07,0,1.57,0,4,.91,7.11,2.74,9.22q2.49,2.88,7.5,3.59a30.17,30.17,0,0,0,3.2.12,31,31,0,0,0,3.2-.12,11,11,0,0,0,7.54-4.06q2.73-3.48,2.74-9.38c0-.62,0-1.27-.08-1.95a18.3,18.3,0,0,0-2.66-8.17,20.68,20.68,0,0,0-6.44-6.87q7.45-6,7.46-14.65m-16.92-4.37q1.33-2.19,5.16-2.19t5.16,2.19a9.16,9.16,0,0,1,.85,4.57,13.82,13.82,0,0,1-2.46,8,23.4,23.4,0,0,1-3.12,3.9,17.46,17.46,0,0,1-4-3.9,13.76,13.76,0,0,1-2.47-8,8.77,8.77,0,0,1,.9-4.57M548.64,451a13.74,13.74,0,0,1,2.15,6.41c0,.62,0,1.21,0,1.75q0,8.2-5.08,9.58a13.27,13.27,0,0,1-4.92,0q-5.08-1.38-5.08-9.58c0-.54,0-1.13,0-1.75a13.74,13.74,0,0,1,2.15-6.41,15.92,15.92,0,0,1,5.35-5.35,15.92,15.92,0,0,1,5.35,5.35m-38.05-33.63c-1.43,0-2.5,0-3.2.11q-5.89.8-8.32,6.88t-2.46,20.74q0,14.54,2.46,20.74t8.32,6.88a29.65,29.65,0,0,0,3.2.12,31.18,31.18,0,0,0,3.21-.12q5.9-.82,8.32-6.88,2.46-6.21,2.46-20.74t-2.46-20.74q-2.43-6.09-8.32-6.88c-.65-.07-1.72-.11-3.21-.11m0,51.44a10,10,0,0,1-2.46-.23c-1.92-.52-3.27-2.16-4-4.92q-1.44-5.16-1.45-18.56t1.45-18.55c.75-2.79,2.1-4.43,4-4.92a10,10,0,0,1,2.46-.24,9.85,9.85,0,0,1,2.46.24q2.9.78,4,4.92,1.44,5.14,1.44,18.55t-1.44,18.56q-1.14,4.14-4,4.92a9.92,9.92,0,0,1-2.46.23m-55.82-51.44c-1.43,0-2.5,0-3.2.11q-5.9.8-8.32,6.88t-2.46,20.74q0,14.54,2.46,20.74t8.32,6.88a29.65,29.65,0,0,0,3.2.12,31.18,31.18,0,0,0,3.21-.12q5.89-.82,8.32-6.88,2.46-6.21,2.46-20.74t-2.46-20.74q-2.43-6.09-8.32-6.88c-.65-.07-1.72-.11-3.21-.11m0,51.44a10,10,0,0,1-2.46-.23c-1.92-.52-3.27-2.16-4-4.92q-1.44-5.16-1.45-18.56t1.45-18.55c.75-2.79,2.1-4.43,4-4.92a12.73,12.73,0,0,1,4.92,0q2.89.78,4,4.92,1.44,5.14,1.44,18.55t-1.44,18.56q-1.14,4.14-4,4.92a10,10,0,0,1-2.46.23m-28.16-51a18.49,18.49,0,0,1-2.42,1.33,11.2,11.2,0,0,1-4,1.21v3.47h6v48.68h6.06V417.33Zm-25.7-.39c-1.44,0-2.5,0-3.21.11q-5.9.8-8.32,6.88t-2.46,20.74q0,14.54,2.46,20.74t8.32,6.88a29.74,29.74,0,0,0,3.21.12,31,31,0,0,0,3.2-.12q5.89-.82,8.32-6.88,2.46-6.21,2.46-20.74t-2.46-20.74q-2.43-6.09-8.32-6.88c-.65-.07-1.72-.11-3.2-.11m0,51.44a9.92,9.92,0,0,1-2.46-.23q-2.9-.78-4-4.92Q393,458.46,393,445.06t1.44-18.55q1.14-4.18,4-4.92a9.85,9.85,0,0,1,2.46-.24,10,10,0,0,1,2.46.24c1.92.52,3.27,2.16,4,4.92q1.44,5.14,1.45,18.55t-1.45,18.56c-.75,2.76-2.1,4.4-4,4.92a10,10,0,0,1-2.46.23M342.35,433q-2.5,0-3.75.12-6.84.54-9.69,5.12T326,453.27q0,10.38,2.89,14.68t9.69,4.73q1.14.12,3.75.12t3.75-.12q6.79-.56,9.69-5.12t2.89-15.08q0-10.38-2.89-14.68t-9.69-4.73q-1.17-.12-3.75-.12m.16,36.06a21.07,21.07,0,0,1-3-.16q-3.75-.93-5.16-3.24-2-3.32-2.15-12.62v-.7q0-8.67,1.88-12,1.36-2.35,5.12-3.36a17.31,17.31,0,0,1,2.93-.2h.7a16.93,16.93,0,0,1,2.26.12c2.5.62,4.24,1.72,5.2,3.28q2,3.31,2.15,12.58v.7q0,8.71-1.88,12a8,8,0,0,1-5.11,3.4,25.33,25.33,0,0,1-3,.2M317.08,423.3a3.78,3.78,0,0,0,1.13-2.77,4.35,4.35,0,0,0-1.13-2.93,3.49,3.49,0,0,0-2.7-1.37,3.54,3.54,0,0,0-2.77,1.37,4.3,4.3,0,0,0-1.13,2.93,3.88,3.88,0,0,0,3.9,3.91,3.69,3.69,0,0,0,2.7-1.14m-5.43,49.11h5.66V433.34h-5.66ZM286.53,433q-2.5,0-3.75.12-6.84.54-9.69,5.12t-2.89,15.08q0,10.38,2.89,14.68t9.69,4.73q1.14.12,3.75.12t3.75-.12q6.8-.56,9.69-5.12t2.89-15.08q0-10.38-2.89-14.68t-9.69-4.73q-1.17-.12-3.75-.12m.16,36.06a21.07,21.07,0,0,1-3-.16q-3.75-.93-5.16-3.24-2-3.32-2.15-12.62v-.7q0-8.67,1.88-12,1.36-2.35,5.12-3.36a17.31,17.31,0,0,1,2.93-.2h.7a16.93,16.93,0,0,1,2.26.12c2.5.62,4.24,1.72,5.2,3.28q2,3.31,2.15,12.58v.7q0,8.71-1.88,12a8,8,0,0,1-5.11,3.4,25.33,25.33,0,0,1-3,.2M226.41,433q-2.49,0-3.75.12-6.82.54-9.68,5.12t-2.89,15.08q0,10.38,2.89,14.68t9.68,4.73q1.14.12,3.75.12t3.75-.12c4.54-.37,7.76-2.07,9.69-5.12s2.89-8.1,2.89-15.08-1-11.82-2.89-14.68-5.08-4.37-9.69-4.73Q229,433,226.41,433m.16,36.06a21.07,21.07,0,0,1-3-.16q-3.75-.93-5.15-3.24-2-3.32-2.15-12.62v-.7q0-8.67,1.87-12,1.37-2.35,5.12-3.36a17.31,17.31,0,0,1,2.93-.2h.7a17.2,17.2,0,0,1,2.27.12c2.5.62,4.23,1.72,5.19,3.28q2,3.31,2.15,12.58v.7q0,8.71-1.87,12a8,8,0,0,1-5.12,3.4,25.33,25.33,0,0,1-3,.2m-29.73-35.67-8.39,34.53h-.2l-8.95-34.53h-6l11.37,39.07h7.42l10.78-39.07Zm-47.3-.39q-2.5,0-3.75.12-6.84.54-9.69,5.12t-2.89,15.08q0,10.38,2.89,14.68t9.69,4.73q1.13.12,3.75.12t3.75-.12q6.79-.56,9.69-5.12t2.89-15.08q0-10.38-2.89-14.68t-9.69-4.73q-1.17-.12-3.75-.12M149.7,469a21.07,21.07,0,0,1-3-.16q-3.75-.93-5.16-3.24-2-3.32-2.15-12.62v-.7q0-8.67,1.88-12,1.37-2.35,5.11-3.36a17.4,17.4,0,0,1,2.93-.2h.71a17,17,0,0,1,2.26.12,8.05,8.05,0,0,1,5.2,3.28q2,3.31,2.15,12.58v.7q0,8.71-1.88,12a8,8,0,0,1-5.12,3.4,25.13,25.13,0,0,1-3,.2M89.42,433q-2.49,0-3.75.12c-4.56.36-7.78,2.07-9.69,5.12s-2.89,8.1-2.89,15.08,1,11.82,2.89,14.68,5.08,4.36,9.69,4.73q1.14.12,3.75.12t3.75-.12q6.8-.56,9.69-5.12t2.89-15.08q0-10.38-2.89-14.68t-9.69-4.73Q92,433,89.42,433M89.58,469a21.07,21.07,0,0,1-3-.16q-3.75-.93-5.16-3.24-2-3.32-2.15-12.62v-.7q0-8.67,1.88-12Q82.55,438,86.3,437a17.31,17.31,0,0,1,2.93-.2h.7a17.2,17.2,0,0,1,2.27.12c2.5.62,4.23,1.72,5.19,3.28q2,3.31,2.15,12.58v.7q0,8.71-1.88,12a8,8,0,0,1-5.11,3.4,25.33,25.33,0,0,1-3,.2m-30.35,3.4H64.7v-58.6H59.23ZM35.28,433q-2.51,0-3.75.12-6.84.54-9.69,5.12T19,453.27q0,10.38,2.89,14.68t9.69,4.73q1.14.12,3.75.12t3.75-.12q6.8-.56,9.69-5.12t2.89-15.08q0-10.38-2.89-14.68T39,433.07q-1.17-.12-3.75-.12M35.44,469a21.07,21.07,0,0,1-3-.16q-3.75-.93-5.16-3.24-2-3.32-2.15-12.62v-.7q0-8.67,1.88-12Q28.41,438,32.16,437a17.31,17.31,0,0,1,2.93-.2h.7a16.93,16.93,0,0,1,2.26.12c2.5.62,4.24,1.72,5.2,3.28q2,3.31,2.15,12.58v.7q0,8.71-1.88,12a8,8,0,0,1-5.11,3.4,25.33,25.33,0,0,1-3,.2"/><path d="M561.53,337.72v25.19H539.34V337.72h-6.05v54.69h6.05V367h22.19v25.39h6.06V337.72Zm-42.11,0-11.25,49.61h-.43l-11.25-49.61h-6.44l13.71,54.69h8.4l13.71-54.69Zm-44.41,0v25.19H452.82V337.72h-6.05v54.69h6.05V367H475v25.39h6.05V337.72Zm-63.91,0v25.19H388.91V337.72h-6.05v54.69h6.05V367H411.1v25.39h6.06V337.72Zm-52.26,7.34,7,29.1H351.88Zm-2.54-7.34-15.24,54.69h6.45l3.4-14.14h15.86l3.39,14.14h6.45l-14.84-54.69Zm-30.28,0v25.19H303.84V337.72h-6.06v54.69h6.06V367H326v25.39h6.06V337.72Zm-63.9,0v25.19H239.93V337.72h-6.06v54.69h6.06V367h22.19v25.39h6.05V337.72Zm-43.48,54.69h6.06V337.72h-6.06Zm-15.82-54.69v25.19H180.63V337.72h-6v54.69h6V367h22.19v25.39h6.05V337.72Zm-63.91,0v25.19H116.73V337.72h-6.06v54.69h6.06V367h22.18v25.39H145V337.72Zm-51.21-.24a34.86,34.86,0,0,0-3.59-.15h-.9c-2,0-3.49.08-4.45.15q-8.13.79-11.53,7.15t-3.43,21q0,14.44,3.43,20.47,3.33,5.78,11.53,6.56a34.18,34.18,0,0,0,3.55.16h.9c2,0,3.53-.08,4.49-.16q8.13-.78,11.53-7.15t3.43-21q0-14.46-3.43-20.47-3.33-5.79-11.53-6.57M83.45,388.7h-.71a20.27,20.27,0,0,1-3.24-.2,8.19,8.19,0,0,1-6.33-4.73q-2.61-5.34-2.73-18.55v-1.49q0-12,2.42-17.11a8.32,8.32,0,0,1,6.25-4.92,27.52,27.52,0,0,1,3.91-.27h.7a20.49,20.49,0,0,1,3.24.19,8.24,8.24,0,0,1,6.33,4.73q2.61,5.36,2.73,18.56v1.48q0,12-2.42,17.11a8.28,8.28,0,0,1-6.25,4.92,25.75,25.75,0,0,1-3.9.28M48,337.72v25.19H25.79V337.72H19.73v54.69h6.06V367H48v25.39H54V337.72Z"/></g><line class="e" x1="20" y1="300" x2="780.5" y2="300"/><path class="f" d="M782,300h0M17,300h0"/></g></svg>