<svg xmlns="http://www.w3.org/2000/svg" xmlns:xlink="http://www.w3.org/1999/xlink" viewBox="0 0 800 430"><defs><style>.a,.d,.e{fill:none;}.b{clip-path:url(#a);}.c{fill:#e5e5e5;}.d,.e{stroke:#000;stroke-linecap:round;stroke-linejoin:round;}.d{stroke-dasharray:0 2.99;}.f{fill:red;}</style><clipPath id="a"><rect class="a" width="800" height="430"/></clipPath></defs><title>dArtboard 9</title><g class="b"><rect class="c" x="0.5" width="799" height="430"/><g class="b"><path d="M70.4,75.66v-6.8c0-8.7-2.1-13.6-10-13.6-3,0-8.4.4-8.4,4.2a6.88,6.88,0,0,0,.2,1.3h3.3a15.92,15.92,0,0,1,.6,3.6c0,3.4-2.4,5.3-5.7,5.3-3.6,0-5.8-2.2-5.8-6.2,0-7.3,7.4-12.4,17.3-12.4,12.5,0,18,4.9,18,18.9v22.8c0,4.3.7,5.6,3.1,5.6a10,10,0,0,0,3.3-.6l.91,3.4a16.08,16.08,0,0,1-7.31,1.7c-5.2,0-8.2-1.9-9-7.1-3.1,4.6-8.5,7.2-14.7,7.2-7.7,0-14-3.4-14-12.8,0-10.9,8.9-14.5,21.3-14.5Zm0,12.5v-8.3H64.8c-9.1,0-12.1,3.8-12.1,9.7,0,5,1.8,7.9,7.1,7.9C64.8,97.46,70.4,94.26,70.4,88.16Z"/><path d="M107.3,76.46c0,12.9,3.7,20.6,14.1,20.6,7.3,0,10.8-4.8,12.5-8.9l4.4,1.5c-1.4,4.6-6.3,13.3-18.9,13.3-14.7,0-22.5-9.5-22.5-24.5,0-18,10.1-27.4,24.4-27.4,9.9,0,17.1,5.4,17.1,13.5,0,5.9-3.4,8.2-7.2,8.2-3.5,0-6.4-2.2-6.4-5.8a9.86,9.86,0,0,1,1-4.4h3.4a8.92,8.92,0,0,0,.3-2.2c0-3.3-2.8-4.6-7.9-4.6C112.1,55.76,107.3,63.16,107.3,76.46Z"/><path d="M177,97.86v4H150.2v-4l6.5-.7V57l-6.5-.7v-3.9l14.4-.6.7,8.7h.4c2.9-5.2,7-9.4,14.4-9.4,5.5,0,10.2,3.3,10.2,9.3,0,5.4-2.8,7.8-7,7.8-4,0-6.5-2.5-6.4-6.8l3.2-1.3a5,5,0,0,0,.2-1.2c0-1.8-1.5-2.4-3.3-2.4-5.3,0-10.8,6.9-10.8,12.7v28Z"/><path d="M206.8,101.16V57l-7.5-.7v-3.9l17-.6v44.8c0,10-2.4,26.4-17.7,26.4-6.3,0-11.7-3-11.7-9.2,0-3.6,2.2-6.7,6.4-6.7,2.9,0,5.3,1.8,5.7,5.4l-3.4,2c-.1,2.4.7,4.2,4.1,4.2C206.7,118.66,206.8,112.16,206.8,101.16ZM209.9,29c3.6,0,6.3,1.6,6.3,6.1,0,3.9-2.2,6.1-6.2,6.1-4.7,0-6.3-2.7-6.3-6C203.7,31.66,205.6,29,209.9,29Z"/><path d="M262.3,57.06H249.1v40.1l12,.7v4H232v-4l7.6-.7V57.06h-7.9v-4.9h7.9v-4.7c0-13.6,6.3-22.9,19.3-22.9,7.4,0,12.3,3.7,12.3,9.6,0,4.1-2.2,6.8-6.1,6.8-4.1,0-5.9-2.5-5.7-6.3l2.9-1a6.8,6.8,0,0,0,.3-1.9c0-2.3-1.8-3.2-4.5-3.2-8,0-9,6.8-9,13.7v9.9h13.2Z"/><path d="M269,52.16h22.1v4l-6.9.4,11.6,34.1h.4l11.5-34.1-6.9-.4v-4h17.8v4l-5,.4-19.1,53c-3.1,8.6-5.7,13.4-14.1,13.4-6.1,0-11.5-3.1-11.5-9.5,0-3.7,2.3-7,6.6-7,3.2,0,5.6,2.1,5.7,6.6l-3.8,2.1c-.4,2.5,1.3,3.4,4,3.4,4.2,0,5.3-2.7,8.8-12.9l.9-2.8-17.6-46.3-4.5-.4Z"/></g><path d="M466.34,96.24c-2.12,2-4.55,3.92-6.46,5.4-1.49,1-3.71,1.91-7.85,1.91-5.4,0-12.5-3-12.5-13.25A13.81,13.81,0,0,1,443,80.55c4.35-2.33,12.3-4.88,23.11-7.53V67.83c0-7.21-1.59-10.71-9.43-10.71a23.09,23.09,0,0,0-5.83.64c-1.17,2.75-1.17,6.15-1,9.22l-4.45,1.27h-1.91c-.31-3.81-.84-7.63-1.38-11.13,5.2-3.07,14.42-5.72,19.19-5.72,9.75,0,13.25,5.09,13.25,14.2V87.44a29.08,29.08,0,0,0,1.59,8.8A23.34,23.34,0,0,0,483.52,99v3.5c-2.55-.11-5.2-.21-7.85-.21-2.44,0-4.87,0-7.42.21a30.36,30.36,0,0,0-1.16-6.15Zm-.21-19.19c-6.78,1.48-11.76,3.18-14.42,5.41-2,1.69-2.54,4.34-2.54,6.67,0,4.88,2.33,7.64,6.79,7.64s7.63-2.44,10.17-4.88Z"/><path d="M530.69,68.57h-1.81l-4.34-.95a23.93,23.93,0,0,0-1-8.8A18.44,18.44,0,0,0,513.94,56C506.62,56,501,61.89,501,74.29c0,11.66,3.82,21.63,16.44,21.63,5,0,7.95-1.38,12.29-4l1.7,3.6a103.24,103.24,0,0,1-9.33,6.58,21.6,21.6,0,0,1-8.27,1.48c-13.36,0-22.47-9.75-22.47-25,0-17.28,10.92-27.13,24.17-27.13,5.93,0,12.61,2,16.32,3.5A130.08,130.08,0,0,0,530.69,68.57Z"/><path d="M549.45,68.46a35.37,35.37,0,0,0-.85-8,15.06,15.06,0,0,0-6.47-2l-.42-3.07a54.64,54.64,0,0,0,13.14-3.92l2,1.16a18.21,18.21,0,0,0,0,5.94l.53.21a90,90,0,0,1,6.89-6.46,12,12,0,0,1,4.87-.85,10.35,10.35,0,0,1,9.33,5.09l-6.15,8.05h-1.8c-1.27-3.39-3.07-4.87-5.83-4.87-2.54,0-4.45,1.37-6.78,3.28V90.72A21.52,21.52,0,0,0,559,96.24,29.18,29.18,0,0,0,568.42,99v3.61q-6.2-.33-12.08-.32c-4.24,0-8.38.1-12.62.32V99.1a12.31,12.31,0,0,0,4.45-1.91,44.91,44.91,0,0,0,1.28-8.69Z"/><path d="M593,68.36a40.92,40.92,0,0,0-.85-8,14.93,14.93,0,0,0-5.83-2.12l-.53-3a71.23,71.23,0,0,0,15-3.92l2.12,1.06a53.18,53.18,0,0,0-1.38,10.07V94c0,6.78-.11,11.34-.53,16.11C598.42,112.67,590.79,121,588,123.9l-2.65-2.33c5.3-8.06,7.63-15.16,7.63-25.12ZM590.57,36a6.22,6.22,0,0,0,6.15,6.14A6.2,6.2,0,1,0,590.57,36Z"/><path d="M624,58.29h-6.68V54.05l7.32-1.59c.1-4.35.53-8.06,1.69-11,3.08-7.52,10.39-11.66,18.34-11.66A23.41,23.41,0,0,1,655.34,33l-4.45,8.38h-2c-2.22-3.61-5.19-6.15-9-6.15-2.86,0-6.36,1-7.21,10.49-.1,1.59-.21,4.67-.21,6.68,4.67-.1,10.5-.42,15.48-.85a41.45,41.45,0,0,0-1.27,6.79H632.44V90.51A22.33,22.33,0,0,0,633.5,96a34,34,0,0,0,10.39,3v3.61c-4.35-.22-8.9-.32-13.46-.32-4,0-8.06.1-12.19.32V99.1a12.31,12.31,0,0,0,4.45-1.91A44.22,44.22,0,0,0,624,88.5Z"/><path d="M693,57.33c-.85-.42-5.09-.63-6.47-.63V52.56h18.34v3.61a17.07,17.07,0,0,0-4.56,2.44L683,103.23c-4.34,11.24-9.54,19.82-20.35,19.82a15.05,15.05,0,0,1-2.12-.1l-1.59-8.38,1.06-.84a14.32,14.32,0,0,0,4.88,1c5.72,0,9.85-4,11.87-11.13l-17-45.69a12.39,12.39,0,0,0-4.14-1.16V52.56h20.57V56.7a19.55,19.55,0,0,0-5.94.84l-.42,1.17L681.2,91.78h.74l11.35-33.39Z"/><path d="M478.32,187.74h-1.8l-4.35-1a23.74,23.74,0,0,0-.95-8.8,18.6,18.6,0,0,0-9.65-2.86c-7.31,0-12.93,5.94-12.93,18.34,0,11.66,3.82,21.62,16.43,21.62,5,0,7.95-1.38,12.3-4l1.69,3.61a101.57,101.57,0,0,1-9.32,6.57,21.64,21.64,0,0,1-8.27,1.49c-13.36,0-22.47-9.76-22.47-25,0-17.28,10.91-27.14,24.16-27.14,5.94,0,12.62,2,16.33,3.5A127.56,127.56,0,0,0,478.32,187.74Z"/><path d="M530.58,214.14c-2.76,2.23-8.59,6.25-10.18,7.21a23.58,23.58,0,0,1-8.8,1.38c-12.4,0-22-9.44-22-25.34,0-15.69,9.43-26.82,23.53-26.82,12.4,0,17.7,8.91,17.7,20.46l-3.07,2.33-28.52,1c0,12.19,4.88,20.77,16.43,20.77,5.3,0,8.06-1.27,13.15-4.34Zm-9.44-25.55c-.1-7.1-2.43-13.46-9.32-13.46s-11.88,5.3-12.51,15.16Z"/><path d="M444.93,307.47a41.1,41.1,0,0,0-.85-8,14.88,14.88,0,0,0-6.46-2l-.43-3.08a46.75,46.75,0,0,0,13.15-3.92l2,1.06a24,24,0,0,0,.43,5.62l.53.1a64.84,64.84,0,0,1,7.73-5.51,21.15,21.15,0,0,1,7.64-1.27c10.7,0,15.58,6,15.58,15.79v23.86a21.53,21.53,0,0,0,1.06,5.51,29.94,29.94,0,0,0,7.31,2.44v3.6c-3.81-.21-7.42-.32-11.13-.32s-7.52.11-11.45.32v-3.5c1.59-.53,3.5-1.06,4.46-1.91a45,45,0,0,0,1.27-8.69V307.89c0-7.63-3-11-10.07-11-4.88,0-9.54,2.65-12.3,4.88v28.41a22,22,0,0,0,1.06,5.51,28.52,28.52,0,0,0,7.32,2.44v3.6c-3.93-.21-7.64-.32-11.35-.32s-7.42.11-11.23.32v-3.5a12.14,12.14,0,0,0,4.45-1.91,45,45,0,0,0,1.27-8.69Z"/><path d="M508.85,306.94a31.43,31.43,0,0,0-.85-7.53,21.05,21.05,0,0,0-6.36-1.9l-.42-3.08c5.72-1.06,9.22-2,13-3.92l2,.95a20.41,20.41,0,0,0,.42,5.62l.53.21,6.89-5.19a21,21,0,0,1,7.63-1.59c5.41,0,10,2.12,12.51,7.31l8.48-5.72a18,18,0,0,1,7.74-1.59c9.12,0,14.21,6,14.21,16.11v23.54a28.92,28.92,0,0,0,1.16,5.51,28.52,28.52,0,0,0,7.32,2.44v3.6c-3.93-.21-7.64-.32-11.45-.32s-7.63.11-11.66.32v-3.5a12.56,12.56,0,0,0,5-1.91,45.73,45.73,0,0,0,1.17-8.69V308.42c0-7.52-2.66-11.55-9.44-11.55-5.72,0-11.24,4.45-11.24,4.45a23.29,23.29,0,0,1,.53,5.62V328a37.72,37.72,0,0,0,1.17,7.63,20.52,20.52,0,0,0,6.89,2.44v3.49c-3.6-.21-7-.21-10.6-.21-3.82,0-7.63.11-11.45.21v-3.39a12.94,12.94,0,0,0,4.45-1.91,56.93,56.93,0,0,0,1.06-8.69V308.42c0-7.52-2.75-11.55-9.54-11.55-6,0-10.6,4.77-10.6,4.77v28.52a22.42,22.42,0,0,0,1.06,5.51,27.29,27.29,0,0,0,7.32,2.44v3.6c-3.82-.21-7.53-.32-11.24-.32s-7.52.11-11.34.32v-3.5a12.14,12.14,0,0,0,4.45-1.91,44.93,44.93,0,0,0,1.17-8.69Z"/><path d="M626.61,306.3a43,43,0,0,0-.74-7.1,13.49,13.49,0,0,0-5.19-1.91l-.64-2.86a71.68,71.68,0,0,0,14.1-3.92l2,1.17a31.34,31.34,0,0,0-1.06,5.83v29a29.08,29.08,0,0,0,1.59,8.8,24.32,24.32,0,0,0,7.32,2.76v3.6q-4-.31-8-.32c-2.44,0-4.77.11-7.21.32a22.27,22.27,0,0,0-1.17-5.94l-.74-.21c-2.54,1.91-5.09,3.82-7.74,5.83a18.62,18.62,0,0,1-7,1.27c-10.07,0-15.37-5.61-15.37-16.21V306.3a33.22,33.22,0,0,0-1-7.1,12.39,12.39,0,0,0-5.09-1.91l-.63-2.86a74.09,74.09,0,0,0,14.1-3.92l2.12,1.17a31.34,31.34,0,0,0-1.06,5.83v27.13c0,7.53,2.43,11.56,9.86,11.56,5.4,0,11.44-4.77,11.44-4.77Z"/><path d="M687,296.45c-.85-.43-5.09-.64-6.46-.64v-4.13H698.9v3.6a16.86,16.86,0,0,0-4.55,2.44L677,342.66h-6.15l-17-45.68a12.58,12.58,0,0,0-4.13-1.17v-4.13h20.56v4.13a19.51,19.51,0,0,0-5.93.85l-.43,1.16,11.35,33H676l11.34-33.28Z"/><path d="M713.21,329.31V284.68a35.82,35.82,0,0,0-.85-7.95,17.09,17.09,0,0,0-7.31-2l-.53-3.08a73.69,73.69,0,0,0,16-3.92l2,1.17a54.15,54.15,0,0,0-.85,8.79v11a45.54,45.54,0,0,1-.53,7.63l.64.32a85,85,0,0,1,7.31-4.77,20.06,20.06,0,0,1,7.64-1.38c9.75,0,18.76,5.94,18.76,23.64,0,15.9-10.5,28.41-24.91,28.51a47.69,47.69,0,0,1-18.45-4.24A51.93,51.93,0,0,0,713.21,329.31Zm32.33-13c0-12.51-4.66-19.61-12-19.61a20.57,20.57,0,0,0-11.44,4V334.4a15.64,15.64,0,0,0,9.64,3.6C741.51,338,745.54,328.78,745.54,316.27Z"/><path d="M50.58,195.63c0,12.91,3.7,20.61,14.1,20.61,7.3,0,10.8-4.8,12.5-8.91l4.4,1.5c-1.4,4.61-6.3,13.31-18.9,13.31-14.7,0-22.5-9.5-22.5-24.51,0-18,10.1-27.4,24.4-27.4,9.9,0,17.1,5.4,17.1,13.5,0,5.9-3.4,8.2-7.2,8.2-3.5,0-6.4-2.2-6.4-5.8a9.86,9.86,0,0,1,1-4.4h3.4a8.92,8.92,0,0,0,.3-2.2c0-3.3-2.8-4.6-7.9-4.6C55.38,174.93,50.58,182.33,50.58,195.63Z"/><path d="M117.28,170.23c12,0,19.3,6.9,19.3,21.7,0,1.3-.1,2.8-.2,4.2h-31.8c0,12.31,3.6,20,13.9,20,6.9,0,10.5-2.8,13-8.6l4.4,1.5c-2.6,7.8-9,13.1-19.3,13.1-15.2,0-22.4-10.2-22.4-25.31C94.18,179.93,104.18,170.23,117.28,170.23Zm9.6,20.6v-2.2c0-9.1-3.1-13.8-9.9-13.8-7.8,0-11.8,7.3-12.4,16Z"/><path d="M51.36,291.48l.7,9.5h.3a19.6,19.6,0,0,1,17.5-10.1c10.6,0,15.2,5.3,15.2,17V337l6.6.7v4H69v-4l6.6-.7V308c0-6.6-1.5-10.4-9.2-10.4-7.1,0-13.3,4.6-13.3,12.7V337l6.8.7v4H37.06v-4l6.5-.7v-40.2l-6.5-.7v-3.9Z"/><path d="M117.06,291.58l.5,9.4h.4c2.8-4.9,7.6-10.1,17-10.1,7.7,0,12,3.2,13.5,10,2.8-4.8,7.9-10,16.5-10,10.6,0,14.7,5.3,14.7,17V337l6.6.7v4h-22.7v-4l6.6-.7V308c0-6.6-1-10.4-8.7-10.4-6.3,0-12.3,4.4-12.3,13.8V337l6.6.7v4h-22.7v-4l6.6-.7V308c0-6.6-1-10.4-8.7-10.4-6.4,0-12.3,4.6-12.3,12.9V337l6.8.7v4h-22.8v-4l6.5-.7v-40.2l-6.5-.7v-3.9Z"/><path d="M211.86,325.88c0,6.6,1.7,10.2,9.1,10.2,7.1,0,13-4.4,13-13.5v-25.8l-6.8-.7v-3.9l16.3-.6V337l6.5.7v4h-14.5l-.5-8.5h-.4a18.68,18.68,0,0,1-16.8,9.6c-10.6,0-15.4-5.3-15.4-17v-29l-6.6-.7v-3.9l16.1-.6Z"/><path d="M256.56,292h22v4l-6.9.4,11.6,35.6h.4l11.6-35.6-6.9-.4v-4h17.8v4l-5,.4-16,45.3h-7.8l-16.3-45.3-4.5-.4Z"/><path d="M328.56,299.28c2.6-4.3,7.9-8.4,16.1-8.4,12.3,0,19,8.6,19,25.5,0,17.4-8.7,26.4-22.1,26.4-7.6,0-12.3-2.3-15.8-5.5l-3.9,5.4h-2.8v-70.9l-6.5-.7v-3.8l16-.61Zm2.6,2.7a12.86,12.86,0,0,0-2.6,8.3v14.8a12.53,12.53,0,0,0,12.7,12.7c9.3,0,11.8-7.2,11.8-20.6,0-12.8-2.3-20.1-11.6-20.1A12.66,12.66,0,0,0,331.16,302Z"/><line class="d" x1="401" y1="18.99" x2="401" y2="406.5"/><path class="e" d="M401,408h0m0-392h0"/><path class="f" d="M25.54,396.43c2.79,0,3.58,1.18,3.58,2.95a3,3,0,0,1-1.93,3l2.28,4.16H28l-2-3.87a5.49,5.49,0,0,1-.7.05h-1.5v3.82H22.33V396.43Zm2.16,3c0-1.36-.69-1.88-2.19-1.88H23.72v4h1.57C26.88,401.57,27.7,400.83,27.7,399.44Z"/><path class="f" d="M37.22,396.43v1.15H32.65v3.19h4v1.12h-4v3.48h4.57v1.13h-6V396.43Z"/><path class="f" d="M38.79,401.54c0-2.8,1.45-5.25,4.86-5.25a7.46,7.46,0,0,1,2.43.4l.15,1.27h0a7,7,0,0,0-2.44-.48c-2,0-3.52,1.15-3.52,4.08,0,2.19.93,3.93,3.24,3.93a4.76,4.76,0,0,0,1.67-.25v-2.61H43.28v-1.06H46.5v4.51a8.16,8.16,0,0,1-3.17.56C40,406.64,38.79,404.2,38.79,401.54Z"/><path class="f" d="M48.72,401.67v-5.24h1.39v6.46c0,1.7.63,2.57,2.35,2.57s2.24-1,2.24-2.56v-6.47h1.39v5.25c0,3-.45,5-3.69,5C49.57,406.64,48.72,405.52,48.72,401.67Z"/><path class="f" d="M60,396.43v8.94h4.43v1.13H58.6V396.43Z"/><path class="f" d="M70.53,396.43l3.52,10.07H72.61l-.94-2.76h-4l-.91,2.76H65.38l3.53-10.07Zm-.82,1.24h0l-1.66,5h3.36Z"/><path class="f" d="M78.84,396.43c2.78,0,3.58,1.18,3.58,2.95a3,3,0,0,1-1.93,3l2.28,4.16H81.26l-2.05-3.87a5.24,5.24,0,0,1-.7.05H77v3.82H75.63V396.43Zm2.15,3c0-1.36-.68-1.88-2.18-1.88H77v4h1.57C80.18,401.57,81,400.83,81,399.44Z"/><path class="f" d="M86,396.43V406.5H84.63V396.43Z"/><path class="f" d="M88,406.15l-.11-1.2H88a6,6,0,0,0,2.43.56c1.39,0,2.09-.65,2.09-1.69s-1-1.52-2-2c-1.2-.5-2.5-1.09-2.5-2.87,0-1.31.84-2.69,3.12-2.69a6.19,6.19,0,0,1,2.16.39l.11,1.16h0a6.88,6.88,0,0,0-2.16-.42c-1.37,0-1.85.7-1.85,1.45,0,1,.94,1.44,2.05,1.92s2.46,1.12,2.46,2.94c0,1.3-.78,2.91-3.33,2.91A6.15,6.15,0,0,1,88,406.15Z"/><path class="f" d="M101.63,396.43v1.15H97.06v3.19h4v1.12h-4v3.48h4.57v1.13H95.68V396.43Z"/><path class="f" d="M107,396.43c2.69,0,4.65,1.09,4.65,4.8s-1.62,5.27-4.95,5.27h-2.87V396.43Zm3.2,4.92c0-3.53-1.61-3.83-4.06-3.83h-.92v7.89h1.65C109.12,405.41,110.18,404,110.18,401.35Z"/><path class="f" d="M115.71,406.15l-.11-1.2h.07a6,6,0,0,0,2.43.56c1.39,0,2.09-.65,2.09-1.69s-1-1.52-2-2c-1.2-.5-2.5-1.09-2.5-2.87,0-1.31.84-2.69,3.12-2.69a6.19,6.19,0,0,1,2.16.39l.11,1.16h0a6.88,6.88,0,0,0-2.16-.42c-1.37,0-1.85.7-1.85,1.45,0,1,.94,1.44,2,1.92s2.46,1.12,2.46,2.94c0,1.3-.78,2.91-3.33,2.91A6.15,6.15,0,0,1,115.71,406.15Z"/><path class="f" d="M129.32,396.43v1.15h-4.57v3.19h4v1.12h-4v3.48h4.57v1.13h-5.95V396.43Z"/><path class="f" d="M134.71,396.43c2.79,0,3.58,1.18,3.58,2.95a3,3,0,0,1-1.93,3l2.28,4.16h-1.51l-2-3.87a5.49,5.49,0,0,1-.7.05h-1.5v3.82H131.5V396.43Zm2.16,3c0-1.36-.69-1.88-2.19-1.88h-1.79v4h1.57C136.05,401.57,136.87,400.83,136.87,399.44Z"/><path class="f" d="M141.89,396.43V406.5H140.5V396.43Z"/><path class="f" d="M150.57,396.43v1.15H146v3.49h4v1.12h-4v4.31h-1.39V396.43Z"/><path class="f" d="M151.59,406.15l-.11-1.2h.07a6,6,0,0,0,2.44.56c1.38,0,2.08-.65,2.08-1.69s-1-1.52-2-2c-1.21-.5-2.51-1.09-2.51-2.87,0-1.31.84-2.69,3.12-2.69a6.19,6.19,0,0,1,2.16.39l.11,1.16h0a6.88,6.88,0,0,0-2.16-.42c-1.37,0-1.85.7-1.85,1.45,0,1,.94,1.44,2.05,1.92s2.46,1.12,2.46,2.94c0,1.3-.78,2.91-3.33,2.91A6.18,6.18,0,0,1,151.59,406.15Z"/><path class="f" d="M161.61,403.57a2.68,2.68,0,0,1,2.27-2.67,2.19,2.19,0,0,1-1.79-2.22c0-1.23.92-2.39,3-2.39a6.15,6.15,0,0,1,2.2.39l.12,1.18h-.05a5.07,5.07,0,0,0-2.15-.45c-1,0-1.81.38-1.81,1.44s.94,1.54,2.16,1.54h1l.15,1.11h-1.23c-1.51,0-2.56.76-2.56,2s1,2,2.46,2c2.27,0,2.86-1.14,2.86-3.2V399.4h1.18l.11,1h1.26l.16,1.11h-1.36v1.13c0,2.6-1.42,4-4.32,4C163.1,406.64,161.61,405.63,161.61,403.57Z"/><path class="f" d="M174.27,397.63v-1.2h7.55v1.2h-3v8.87h-1.4v-8.87Z"/><path class="f" d="M189.24,396.43v1.15h-4.57v3.19h4v1.12h-4v3.48h4.57v1.13h-6V396.43Z"/><path class="f" d="M194.63,396.43c2.79,0,3.58,1.18,3.58,2.95a3,3,0,0,1-1.93,3l2.28,4.16h-1.51l-2-3.87a5.49,5.49,0,0,1-.7.05h-1.5v3.82h-1.39V396.43Zm2.16,3c0-1.36-.69-1.88-2.19-1.88h-1.79v4h1.57C196,401.57,196.79,400.83,196.79,399.44Z"/><path class="f" d="M202.55,396.43l2.58,7.91h0l2.56-7.91h2.18V406.5H208.6v-8.84h0l-2.72,8h-1.45l-2.69-8h0v8.84h-1.3V396.43Z"/><path class="f" d="M214,396.43V406.5h-1.39V396.43Z"/><path class="f" d="M218.5,396.43l4.66,8.24h0v-8.24h1.28V406.5h-1.71l-4.69-8.18H218v8.18h-1.28V396.43Z"/><path class="f" d="M231.22,396.43l3.52,10.07H233.3l-.94-2.76h-4l-.91,2.76h-1.43l3.53-10.07Zm-.82,1.24h0l-1.66,5h3.36Z"/><path class="f" d="M237.7,396.43v8.94h4.43v1.13h-5.81V396.43Z"/><path class="f" d="M243.36,406.15l-.11-1.2h.07a6,6,0,0,0,2.43.56c1.39,0,2.09-.65,2.09-1.69s-1-1.52-2-2-2.5-1.09-2.5-2.87c0-1.31.84-2.69,3.12-2.69a6.19,6.19,0,0,1,2.16.39l.11,1.16h0a6.88,6.88,0,0,0-2.16-.42c-1.37,0-1.85.7-1.85,1.45,0,1,.94,1.44,2.05,1.92s2.46,1.12,2.46,2.94c0,1.3-.78,2.91-3.33,2.91A6.15,6.15,0,0,1,243.36,406.15Z"/><path class="f" d="M428.75,396.43c2.69,0,4.65,1.09,4.65,4.8s-1.61,5.27-4.94,5.27h-2.87V396.43Zm3.21,4.92c0-3.53-1.61-3.83-4.06-3.83H427v7.89h1.65C430.9,405.41,432,404,432,401.35Z"/><path class="f" d="M433.88,396.43h1.54l2.41,5h0l2.42-5h1.5l-3.28,6.27v3.8h-1.37v-3.78Z"/><path class="f" d="M444.84,396.43l4.66,8.24h.05v-8.24h1.27V406.5h-1.71l-4.69-8.18h0v8.18h-1.29V396.43Z"/><path class="f" d="M457.57,396.43l3.51,10.07h-1.44l-.94-2.76h-3.95l-.91,2.76h-1.43l3.53-10.07Zm-.83,1.24h0l-1.67,5h3.36Z"/><path class="f" d="M464.86,396.43l2.58,7.91h0l2.56-7.91h2.17V406.5h-1.3v-8.84h0l-2.72,8h-1.46l-2.69-8h0v8.84h-1.3V396.43Z"/><path class="f" d="M476.32,396.43V406.5h-1.38V396.43Z"/><path class="f" d="M478.49,401.61c0-2.87,1.49-5.32,4.64-5.32a7.59,7.59,0,0,1,2.41.4l.13,1.22h-.05a7.72,7.72,0,0,0-2.38-.43c-2,0-3.32,1.34-3.32,4,0,1.89.69,4,3.32,4a6.63,6.63,0,0,0,2.38-.47h.06l-.11,1.2a7.37,7.37,0,0,1-2.57.45C479.81,406.64,478.49,404.27,478.49,401.61Z"/><path class="f" d="M489.64,406.15l-.11-1.2h.06a6.05,6.05,0,0,0,2.44.56c1.39,0,2.09-.65,2.09-1.69s-1-1.52-2-2c-1.2-.5-2.51-1.09-2.51-2.87,0-1.31.85-2.69,3.13-2.69a6.19,6.19,0,0,1,2.16.39l.11,1.16h0a6.88,6.88,0,0,0-2.16-.42c-1.37,0-1.85.7-1.85,1.45,0,1,.94,1.44,2.05,1.92s2.46,1.12,2.46,2.94c0,1.3-.78,2.91-3.33,2.91A6.15,6.15,0,0,1,489.64,406.15Z"/><path class="f" d="M503.25,396.43v1.15h-4.57v3.19h4v1.12h-4v3.48h4.57v1.13h-6V396.43Z"/><path class="f" d="M508.64,396.43c2.78,0,3.58,1.18,3.58,2.95a3,3,0,0,1-1.93,3l2.28,4.16h-1.51l-2-3.87a5.52,5.52,0,0,1-.71.05h-1.49v3.82h-1.39V396.43Zm2.15,3c0-1.36-.68-1.88-2.18-1.88h-1.79v4h1.56C510,401.57,510.79,400.83,510.79,399.44Z"/><path class="f" d="M515.82,396.43V406.5h-1.39V396.43Z"/><path class="f" d="M524.5,396.43v1.15h-4.57v3.49h4v1.12h-4v4.31h-1.38V396.43Z"/><path class="f" d="M525.52,406.15l-.11-1.2h.07a6,6,0,0,0,2.43.56c1.39,0,2.09-.65,2.09-1.69s-1-1.52-2-2c-1.2-.5-2.5-1.09-2.5-2.87,0-1.31.84-2.69,3.12-2.69a6.19,6.19,0,0,1,2.16.39l.11,1.16h0a6.88,6.88,0,0,0-2.16-.42c-1.37,0-1.85.7-1.85,1.45,0,1,.94,1.44,2,1.92s2.46,1.12,2.46,2.94c0,1.3-.78,2.91-3.33,2.91A6.15,6.15,0,0,1,525.52,406.15Z"/><path class="f" d="M535.54,403.57a2.68,2.68,0,0,1,2.27-2.67,2.19,2.19,0,0,1-1.79-2.22c0-1.23.92-2.39,3.05-2.39a6.2,6.2,0,0,1,2.2.39l.11,1.18h0a5.08,5.08,0,0,0-2.16-.45c-1,0-1.8.38-1.8,1.44s.94,1.54,2.16,1.54h1l.15,1.11h-1.23c-1.51,0-2.56.76-2.56,2s1,2,2.46,2c2.27,0,2.86-1.14,2.86-3.2V399.4h1.18l.11,1h1.26l.15,1.11h-1.36v1.13c0,2.6-1.41,4-4.31,4C537,406.64,535.54,405.63,535.54,403.57Z"/><path class="f" d="M548.2,397.63v-1.2h7.55v1.2h-3v8.87h-1.4v-8.87Z"/><path class="f" d="M563.17,396.43v1.15H558.6v3.19h4v1.12h-4v3.48h4.57v1.13h-6V396.43Z"/><path class="f" d="M568.56,396.43c2.78,0,3.58,1.18,3.58,2.95a3,3,0,0,1-1.93,3l2.28,4.16H571l-2.05-3.87a5.24,5.24,0,0,1-.7.05h-1.49v3.82h-1.39V396.43Zm2.15,3c0-1.36-.68-1.88-2.18-1.88h-1.79v4h1.56C569.9,401.57,570.71,400.83,570.71,399.44Z"/><path class="f" d="M576.48,396.43l2.58,7.91h0l2.56-7.91h2.17V406.5h-1.3v-8.84h0l-2.72,8h-1.46l-2.69-8h0v8.84h-1.3V396.43Z"/><path class="f" d="M587.94,396.43V406.5h-1.38V396.43Z"/><path class="f" d="M592.42,396.43l4.67,8.24h0v-8.24h1.28V406.5H596.7l-4.7-8.18h0v8.18h-1.29V396.43Z"/><path class="f" d="M605.15,396.43l3.52,10.07h-1.45l-.93-2.76h-3.95l-.91,2.76H600l3.53-10.07Zm-.82,1.24h0l-1.67,5H606Z"/><path class="f" d="M611.63,396.43v8.94h4.43v1.13h-5.81V396.43Z"/><path class="f" d="M617.29,406.15l-.12-1.2h.08a6,6,0,0,0,2.43.56c1.39,0,2.09-.65,2.09-1.69s-1-1.52-2-2c-1.2-.5-2.5-1.09-2.5-2.87,0-1.31.84-2.69,3.12-2.69a6.19,6.19,0,0,1,2.16.39l.11,1.16h0a6.88,6.88,0,0,0-2.16-.42c-1.37,0-1.85.7-1.85,1.45,0,1,.94,1.44,2,1.92s2.47,1.12,2.47,2.94c0,1.3-.78,2.91-3.33,2.91A6.15,6.15,0,0,1,617.29,406.15Z"/></g></svg>