<svg xmlns="http://www.w3.org/2000/svg" xmlns:xlink="http://www.w3.org/1999/xlink" viewBox="0 0 800 500"><defs><style>.a,.d{fill:none;}.b{clip-path:url(#a);}.c{fill:#e5e5e5;}.d{stroke:red;stroke-width:2px;}</style><clipPath id="a"><rect class="a" width="800" height="500"/></clipPath></defs><title>dArtboard 3</title><g class="b"><rect class="c" x="0.5" width="799" height="500"/><g class="b"><ellipse class="d" cx="126.5" cy="64.75" rx="26.5" ry="25.75"/><ellipse class="d" cx="400" cy="111.75" rx="26.5" ry="25.75"/><ellipse class="d" cx="418.75" cy="233.5" rx="26.5" ry="25.75"/><ellipse class="d" cx="593.5" cy="259.25" rx="26.5" ry="25.75"/><ellipse class="d" cx="490.5" cy="227" rx="26.5" ry="19.25"/><ellipse class="d" cx="186.5" cy="366" rx="26.5" ry="25.75"/><ellipse class="d" cx="250.5" cy="260.25" rx="35.5" ry="25.75"/><ellipse class="d" cx="44.5" cy="389.25" rx="26.5" ry="43.25"/><ellipse class="d" cx="652" cy="391.75" rx="31" ry="18"/><path d="M453.71,39.25a10.8,10.8,0,0,0-.89-4.41,11.08,11.08,0,0,0-2.44-3.55,11.67,11.67,0,0,0-3.62-2.4,11.52,11.52,0,0,0-8.88,0,11.72,11.72,0,0,0-3.63,2.4,11.08,11.08,0,0,0-2.44,3.55,11,11,0,0,0-.89,4.41v72.22a11.18,11.18,0,0,0,.89,4.44,10.93,10.93,0,0,0,2.44,3.59,11.3,11.3,0,0,0,3.63,2.37,12,12,0,0,0,8.88,0,11.25,11.25,0,0,0,3.62-2.37,11.18,11.18,0,0,0,3.33-8ZM369.54,83.52a12.66,12.66,0,0,1,2.71-3.89A12.82,12.82,0,0,1,376.18,77a11.9,11.9,0,0,1,4.75-1,12.12,12.12,0,0,1,4.79,1,12.65,12.65,0,0,1,4,2.64,12.05,12.05,0,0,1,2.67,3.89,12.49,12.49,0,0,1,0,9.65,12.1,12.1,0,0,1-2.67,3.9,12.79,12.79,0,0,1-4,2.63,12,12,0,0,1-4.79,1,11.73,11.73,0,0,1-4.75-1,13,13,0,0,1-3.93-2.63,12.7,12.7,0,0,1-2.71-3.9,12.14,12.14,0,0,1,0-9.65M348.49,102a35.68,35.68,0,0,0,7.62,11.21,36.12,36.12,0,0,0,11.21,7.55A33.93,33.93,0,0,0,381,123.53a26.72,26.72,0,0,0,8-1.18,33.46,33.46,0,0,0,7.29-3.26,10.32,10.32,0,0,0,3.58,2.67,11.25,11.25,0,0,0,4.7,1,11.41,11.41,0,0,0,4.59-.93,11.27,11.27,0,0,0,3.7-2.51,12.39,12.39,0,0,0,2.48-3.7,11.15,11.15,0,0,0,.93-4.55V87.87a35.72,35.72,0,0,0-10.48-24.65,35.82,35.82,0,0,0-11.13-7.47,35.06,35.06,0,0,0-27.27,0,35.86,35.86,0,0,0-11.21,7.58,36.37,36.37,0,0,0-7.62,11.21,34.74,34.74,0,0,0,0,27.42M312.71,76.25a11.69,11.69,0,0,1,4.7,2.14q1.77,1.33,3.77,2.67a13.28,13.28,0,0,0,4.26,1.88,10.3,10.3,0,0,0,4.81,0,13,13,0,0,0,5.36-3,10.41,10.41,0,0,0,3.63-8.25,12.73,12.73,0,0,0-1.11-4.7,15.63,15.63,0,0,0-3-4.44A31.48,31.48,0,0,0,324,55.31a37.16,37.16,0,0,0-13.51-2.45,36.54,36.54,0,0,0-14.2,2.78,36,36,0,0,0-19.39,19,34.72,34.72,0,0,0,.07,27.9,34.87,34.87,0,0,0,7.81,11,36.36,36.36,0,0,0,11.54,7.33,37.55,37.55,0,0,0,14.17,2.66A37.15,37.15,0,0,0,324,121.09a31.5,31.5,0,0,0,11.06-7.18,14.85,14.85,0,0,0,3-4.4,12.72,12.72,0,0,0,1.07-4.66,10.7,10.7,0,0,0-.81-4.48,10.14,10.14,0,0,0-2.74-3.77,13,13,0,0,0-5.36-3,10.3,10.3,0,0,0-4.81,0,13.66,13.66,0,0,0-4.26,1.85c-1.33.86-2.59,1.74-3.77,2.62a11.65,11.65,0,0,1-4.7,2.15,10.46,10.46,0,0,1-2.15.22c-.71,0-1.44,0-2.18-.07A8.71,8.71,0,0,1,304,99a13.64,13.64,0,0,1-3.44-3,14.16,14.16,0,0,1-2.26-3.81,10.26,10.26,0,0,1,0-8,14.85,14.85,0,0,1,2.26-3.85,12.89,12.89,0,0,1,3.44-3,9.63,9.63,0,0,1,4.37-1.33,20.51,20.51,0,0,1,4.33.15m-49.25-12a11.38,11.38,0,0,0-.85-4.37,11.25,11.25,0,0,0-2.37-3.62,11,11,0,0,0-3.55-2.44,10.75,10.75,0,0,0-4.4-.89,11.43,11.43,0,0,0-4.55.89,11.72,11.72,0,0,0-6.22,6.06,10.58,10.58,0,0,0-.92,4.37V111.4a10.45,10.45,0,0,0,.92,4.4,12.13,12.13,0,0,0,2.48,3.59,11.34,11.34,0,0,0,3.66,2.44,11.48,11.48,0,0,0,4.48.89,11.18,11.18,0,0,0,4.44-.89,10.93,10.93,0,0,0,3.59-2.44,11.89,11.89,0,0,0,2.4-3.59,10.75,10.75,0,0,0,.89-4.4ZM240.89,41.5a12.52,12.52,0,0,0,2.59,3.82,12.78,12.78,0,0,0,3.81,2.59,11.62,11.62,0,0,0,9.25,0,13.1,13.1,0,0,0,3.85-2.59A12.12,12.12,0,0,0,263,41.5a11.62,11.62,0,0,0,0-9.25,12.19,12.19,0,0,0-2.63-3.81,12.43,12.43,0,0,0-3.85-2.55,12.09,12.09,0,0,0-9.25,0,12.14,12.14,0,0,0-3.81,2.55,12.6,12.6,0,0,0-2.59,3.81,11.62,11.62,0,0,0,0,9.25m-21.23-2.25a11,11,0,0,0-.89-4.41,11.22,11.22,0,0,0-2.43-3.55,11.63,11.63,0,0,0-3.66-2.4,11.38,11.38,0,0,0-4.46-.89,11.08,11.08,0,0,0-4.42.89,11.67,11.67,0,0,0-3.62,2.4,11.22,11.22,0,0,0-2.43,3.55,11,11,0,0,0-.89,4.41V53.16h-1.19a11.54,11.54,0,0,0-4.5.89A11.36,11.36,0,0,0,185,60.12a11,11,0,0,0-.89,4.44A11.24,11.24,0,0,0,185,69a11.47,11.47,0,0,0,2.45,3.62,11.72,11.72,0,0,0,3.66,2.48,11,11,0,0,0,4.48.93h1.18v35.44a11.18,11.18,0,0,0,.89,4.44,10.93,10.93,0,0,0,2.44,3.59,11.3,11.3,0,0,0,3.63,2.37,11.51,11.51,0,0,0,4.44.85,11.77,11.77,0,0,0,4.47-.85,11.26,11.26,0,0,0,3.67-2.37,11.18,11.18,0,0,0,3.33-8V76h1.11a11.8,11.8,0,0,0,4.58-.89A11.48,11.48,0,0,0,229,72.7a11.47,11.47,0,0,0,3.35-8.14,11,11,0,0,0-.89-4.44,11.36,11.36,0,0,0-6.14-6.07,11.8,11.8,0,0,0-4.58-.89h-1.11ZM134.22,83.5a12.8,12.8,0,0,1,2.7-3.89A12.94,12.94,0,0,1,140.85,77a11.77,11.77,0,0,1,4.73-1,12,12,0,0,1,4.77,1,12.6,12.6,0,0,1,4,2.62,12.15,12.15,0,0,1,0,17.39,12.63,12.63,0,0,1-4,2.63,12,12,0,0,1-4.77,1,11.77,11.77,0,0,1-4.73-1A13,13,0,0,1,136.92,97a12.76,12.76,0,0,1-2.7-3.88,12.07,12.07,0,0,1,0-9.62m25.09,37.26A35.4,35.4,0,0,0,178,102a35.2,35.2,0,0,0,0-27.42,36.35,36.35,0,0,0-7.55-11.21,35.56,35.56,0,0,0-11.17-7.58A34.14,34.14,0,0,0,145.58,53a33.14,33.14,0,0,0-8.06,1,38.86,38.86,0,0,0-7.4,2.67A11.17,11.17,0,0,0,126.38,54a11.55,11.55,0,0,0-4.7-1,11.18,11.18,0,0,0-4.44.89,11.84,11.84,0,0,0-3.63,2.4,11.29,11.29,0,0,0-2.44,3.56,10.88,10.88,0,0,0-.89,4.4v72.22a11.18,11.18,0,0,0,3.33,8,11.45,11.45,0,0,0,8.07,3.22,11.82,11.82,0,0,0,4.48-.85,11.32,11.32,0,0,0,3.66-2.37,10.93,10.93,0,0,0,2.44-3.59,11.18,11.18,0,0,0,.89-4.44V121.31a39.12,39.12,0,0,0,6,1.63,35.42,35.42,0,0,0,20.17-2.18M32,102a35.8,35.8,0,0,0,18.84,18.76,35.21,35.21,0,0,0,27.38,0A35.4,35.4,0,0,0,96.93,102a35.31,35.31,0,0,0,0-27.42,36.35,36.35,0,0,0-7.55-11.21,35.56,35.56,0,0,0-11.17-7.58,35.1,35.1,0,0,0-27.38,0,35.86,35.86,0,0,0-11.21,7.58A36.58,36.58,0,0,0,32,74.58,34.85,34.85,0,0,0,32,102M53.12,83.5A12.68,12.68,0,0,1,59.74,77a11.81,11.81,0,0,1,4.74-1,12,12,0,0,1,4.77,1,12.6,12.6,0,0,1,4,2.62,12.21,12.21,0,0,1,2.67,3.89,12.53,12.53,0,0,1,0,9.62A12.17,12.17,0,0,1,73.21,97a12.63,12.63,0,0,1-4,2.63,12,12,0,0,1-4.77,1,11.81,11.81,0,0,1-4.74-1A12.92,12.92,0,0,1,55.82,97a12.76,12.76,0,0,1-2.7-3.88,12.07,12.07,0,0,1,0-9.62"/><path d="M479,202q-6.87,8.78-6.86,18.46,0,5.82,2.35,9.24t8,4.81l3.28.73q4,.87,5.07,2.51t1.11,7.53a17.51,17.51,0,0,1-3.26,10.45q-3.25,4.54-7.66,5.28-2.53-.15-5.49-3.64a16.67,16.67,0,0,1-3.62-6c-.43-1.65-1.24-2.53-2.42-2.62a4.08,4.08,0,0,0-3.29,1.39l-3.25,2.71q-1.8,2.06,0,6.19a24.49,24.49,0,0,0,6.22,8.13,14.49,14.49,0,0,0,10,4h1.09a17.62,17.62,0,0,0,10.33-3.34,25.09,25.09,0,0,0,7.52-8.1q5.77-10.19,5.78-18,0-13.11-9-15.07l-4.14-.88a14.18,14.18,0,0,1-5.63-2.14q-1.57-1.28-1.58-4.55,0-7.65,3.3-11.8c2.2-2.76,4.55-4.42,7-5a8,8,0,0,1,3.72,1.68,10.38,10.38,0,0,1,2.28,2.36,30.4,30.4,0,0,1,1.69,3.53c.7,1.65,1.1,2.57,1.2,2.77q1.29,3,4.4.78l4.48-2.5q2.53-1.56,1-4.62A29.7,29.7,0,0,0,505.7,197a13.71,13.71,0,0,0-9.32-3.81h-2.24q-8.31,0-15.18,8.78m-47.22-3.45c.77-2.92-.06-4.39-2.48-4.39h-6.33q-2.32,0-3.08,3.83l-17.92,67.5a3.38,3.38,0,0,0,.19,2.64c.43.79.94,1.19,1.54,1.19H408a4,4,0,0,0,3.71-2q4.92-8.76,16.46-26.21,6.08-9.49,10.05-15.93t6.79-10.5a31.29,31.29,0,0,1,3.8-4.89,3.91,3.91,0,0,1,2.42-1.34c.67,0,1,.42,1,1.27a24.59,24.59,0,0,1-1.16,5.23l-15.53,50.81c-.68,2.36-.29,3.54,1.15,3.54h7.73a2.28,2.28,0,0,0,2.39-2.1l16.55-60.34c1.11-3.66,1.38-6.43.83-8.31S462.89,195.5,462,195a7.29,7.29,0,0,0-3.72-.8h-3.11q-3.69,0-8.85,4.07t-10.08,12.12l-15.39,25.55Zm-61.67,61.59q-4.86-.43-4.57-13.82.57-17.75,7.07-31a38,38,0,0,1,5.28-8.87q2.72-3.21,6-3.13a4.27,4.27,0,0,1,4.32,3.06c.69,2,1,5.89.89,11.7a70,70,0,0,1-10.49,35.64q-4.29,6.54-8.5,6.4m-11.2,6.22a12.94,12.94,0,0,0,8.77,4.11q13.33.51,21.24-13.15a80.28,80.28,0,0,0,12-40.54q.58-11.56-2.53-16.4-4.14-7-11.6-7.45-14.34-.28-23.62,17.42a86.08,86.08,0,0,0-9.94,37.51q-.44,12.72,5.65,18.5m-6.59-71.54a3.72,3.72,0,0,0-2.6-.66h-4.92c-2.26,0-3.64,1-4.12,3l-18.06,68.8q-.87,3.4,3.27,3.4h4.36a4.11,4.11,0,0,0,4.43-3.24l17.91-68.8q.38-1.81-.27-2.46m-7.63-21a7.31,7.31,0,0,0-.07,10.08A6,6,0,0,0,349.1,186h1.16a7.59,7.59,0,0,0,5.42-2.06,6.62,6.62,0,0,0,2.16-4.95,7.31,7.31,0,0,0-2.09-5.13,6.17,6.17,0,0,0-4.56-2.24h-1.37a6.86,6.86,0,0,0-5.17,2.16m-21-5.85h-3.77a4.1,4.1,0,0,0-4.42,3.25l-5.95,23h-5.92q-2.38,0-3.25,2.78l-1.16,3.92c-.72,2.33-.1,3.49,1.88,3.49H307l-15.38,60.2a4.15,4.15,0,0,0,.54,3.43,3.87,3.87,0,0,0,3.35,1.34h2.74a4.14,4.14,0,0,0,4.47-3.26l15.69-61.71h7.67c1.88,0,3.19-1.07,3.91-3.21l1-3.77q1-3.21-2.24-3.21h-7.67L327,171.34c.57-2.27-.51-3.4-3.26-3.4M280.52,193.7a16,16,0,0,0-12,4q-5.56,4.59-11.39,13.4t-9.82,25.48q-4,16.65.11,25.69,1.4,3,7.42,6t9,2.21q3-.84,8.31-5.39,12.72-10.26,8-13.08l-2.24-1.44q-3.1-1.95-4.77.29-5.43,6.49-9.9,8.89c-.87.19-2.12-.21-3.76-1.2s-2.55-2.08-2.75-3.28q-1.32-7.38,1.26-18.39a79.29,79.29,0,0,1,8.5-21.4q5.92-10.37,11.27-11.38,3.11-.72,8.46,4.7l1.59,1.81q1.95,2.08,4.48-.73l2.46-2.81q1.8-2.1-.58-4.63-7.23-8.08-13.66-8.71M221.1,216q5.06-11.09,11.82-11.09c2.3,0,3.44,2,3.44,6a23.64,23.64,0,0,1-3.19,11.7,33.06,33.06,0,0,1-8.12,9.69,50.4,50.4,0,0,1-11.82,6.94A121.58,121.58,0,0,1,221.1,216m15.61,16.84q10.35-10.59,10.42-22.51t-5.93-14.45a16.47,16.47,0,0,0-11.4-.91,22.92,22.92,0,0,0-9,4.95q-10.35,9.9-16.14,29.34T201,260q1.81,8.4,12.29,11.09,4.62.87,12.21-5.18t10.41-11.45c.43-1.17,0-2.26-1.29-3.29l-2.8-1.75a2.27,2.27,0,0,0-3,.3q-8,9.13-13.36,11.18-6-1.17-4-12.14a64.92,64.92,0,0,0,25.28-15.86m-48.14-35.58c.29-1.21.22-2-.22-2.46a3.73,3.73,0,0,0-2.61-.66h-4.57q-3.4,0-4.14,3L159,265.93q-.94,3.4,3.27,3.4h4.28a4.22,4.22,0,0,0,4.51-3.24l11.35-43.93c2.06,3.84,3.51,6.08,4.36,6.7a4.63,4.63,0,0,0,3.65.51l5.63-1a2,2,0,0,0,1.52-1.12,1.25,1.25,0,0,0-.51-1.55c-2.45-2.26-3.68-4.7-3.68-7.3q0-1.87,5-8.16a75,75,0,0,1,7.84-8.89,14,14,0,0,0,3.61-4.34q1.38-3.31-3-3.32h-1.45q-4.62,0-6.46,1.26c-1.23.85-3.18,2.95-5.86,6.33a130.86,130.86,0,0,0-8.7,12.73Zm-41.69,0c.28-1.21.21-2-.22-2.46a3.78,3.78,0,0,0-2.62-.66h-4.57q-3.41,0-4.13,3l-18.07,68.8q-.93,3.4,3.27,3.4h4.29a4.22,4.22,0,0,0,4.5-3.24l11.35-43.93c2.06,3.84,3.52,6.08,4.36,6.7a4.63,4.63,0,0,0,3.65.51l5.64-1a2,2,0,0,0,1.51-1.12,1.25,1.25,0,0,0-.5-1.55c-2.46-2.26-3.69-4.7-3.69-7.3q0-1.87,4.95-8.16a76,76,0,0,1,7.84-8.89,14.17,14.17,0,0,0,3.62-4.34q1.37-3.31-3-3.32h-1.44c-3.09,0-5.24.42-6.47,1.26s-3.18,2.95-5.85,6.33A129,129,0,0,0,142.62,214ZM85.49,260.15q-4.86-.43-4.57-13.82.57-17.75,7.07-31a38,38,0,0,1,5.28-8.87q2.72-3.21,6-3.13a4.27,4.27,0,0,1,4.32,3.06c.69,2,1,5.89.89,11.7A70,70,0,0,1,94,253.75q-4.29,6.54-8.5,6.4m-11.2,6.22a12.94,12.94,0,0,0,8.77,4.11q13.34.51,21.23-13.15a80.19,80.19,0,0,0,12-40.54q.58-11.56-2.53-16.4-4.14-7-11.6-7.45-14.34-.28-23.62,17.42a85.94,85.94,0,0,0-9.94,37.51q-.44,12.72,5.65,18.5M60,193.7a16,16,0,0,0-12,4,60.75,60.75,0,0,0-11.39,13.4q-5.82,8.82-9.83,25.48t.12,25.69q1.39,3,7.41,6t9,2.21q3-.84,8.31-5.39Q64.3,254.8,59.6,252l-2.24-1.44q-3.11-1.95-4.77.29-5.42,6.49-9.9,8.89c-.86.19-2.12-.21-3.75-1.2s-2.56-2.08-2.75-3.28q-1.32-7.38,1.25-18.39a79.61,79.61,0,0,1,8.5-21.4q5.93-10.37,11.28-11.38,3.11-.72,8.45,4.7l1.59,1.81c1.3,1.39,2.8,1.15,4.48-.73L74.2,207q1.8-2.1-.58-4.63Q66.39,194.33,60,193.7"/><path d="M719,246q0,6.36-4.14,10c-2.77,2.41-6.51,3.62-11.25,3.62s-8.49-1.21-11.25-3.62-4.19-5.75-4.29-10V222.21q.15-6.36,4.29-10t11.25-3.63q6.81,0,11,3.41a11.87,11.87,0,0,1,4.37,9.47Zm0-75v33a20.47,20.47,0,0,0-6.73-4.95,22.72,22.72,0,0,0-10.14-2.15q-11.85,0-19,6.44t-7.1,18.87V246q.15,11.69,6.81,18.5t19.24,6.8a25,25,0,0,0,9.17-1.85,18,18,0,0,0,7.7-5.55v6.22h12V171ZM612.73,198.08v72.08h12V221.47a11.86,11.86,0,0,1,4.36-9.47q4.21-3.41,11-3.41,7.1,0,11.32,3.63t4.22,10v48h12v-48q0-11.7-7-18.5t-19.09-6.81a25.57,25.57,0,0,0-9,1.78,19.13,19.13,0,0,0-7.84,5.32v-5.92Zm-24.57,58.24q-4.14,3.33-11.25,3.33t-11.32-3.33a10.81,10.81,0,0,1-4.22-8.95,10.62,10.62,0,0,1,4.22-8.88q4.21-3.26,11.32-3.26,6.81,0,11,3.11t4.44,9a10.89,10.89,0,0,1-4.14,8.95m-26.49-36.63a13.14,13.14,0,0,1,5.25-8.21,16.82,16.82,0,0,1,10-2.89q7.11,0,11.25,3.63t4.14,10v6.51a20.7,20.7,0,0,0-6.95-3.85,26.5,26.5,0,0,0-8.44-1.33q-12.57,0-20,6.36t-7.48,17.47q0,11.1,7.48,17.54t20,6.43a27.72,27.72,0,0,0,8.59-1.4,15.35,15.35,0,0,0,6.8-4.22v4.44h12v-48q0-11.7-7.47-18.5t-19.91-6.81q-11.1,0-18.2,5.62t-9,15.69Z"/><path d="M755.09,353.59q-8.54,35-15.9,64.67c-1.4-.33-2.43-1.8-3.11-4.4q-3.9-15.18-14.81-60.27H709.78q13.58,47.69,18.06,64.1a11.45,11.45,0,0,0,6.15,7.73,30.65,30.65,0,0,0,3,1.15q-2.46,9.84-4.19,16.48-3.25,12.29-6.14,15.32a10.27,10.27,0,0,1-7.09,3.11h-1.08a12.54,12.54,0,0,1-2.82-.29l-.43,8a18.81,18.81,0,0,0,6.07.72,15.67,15.67,0,0,0,12.93-6.21q3.25-4,7.37-17.63,7.95-26.59,23.35-92.5Zm-61.5,60a36.37,36.37,0,0,1-6.36,3.83,11.31,11.31,0,0,1-4.55,1.23,3.77,3.77,0,0,1-2.89-1.16q-1.51-1.59-1.95-5.71c-.2-1.83-.29-5.64-.29-11.42V361.46h14.16v-7.22H677.55V339.13H671a28.83,28.83,0,0,1-.94,5.64q-1.59,6.08-4.77,8.45a13.13,13.13,0,0,1-8.16,2.68h-.94v5.56h10.55v49.87q0,8.67,5.56,12.64a14,14,0,0,0,8.38,2.6q8.39,0,16.12-7.73Zm-54-78.56a7,7,0,0,0,2.09-5.13,8,8,0,0,0-2.09-5.42,6.47,6.47,0,0,0-5-2.53,6.6,6.6,0,0,0-5.13,2.53,8,8,0,0,0-2.1,5.42,7.17,7.17,0,0,0,7.23,7.23,6.81,6.81,0,0,0,5-2.1m-10.05,90.84H640V353.59H629.56Zm-27.82,0h10.12V317.45H601.74Zm-17-56.8q0-8.08-2.24-11.2-3.56-5-14.24-5-12.8,0-29.85,3.83l2.53,7.37a124.77,124.77,0,0,1,21-3.25c1.16,0,2.22-.07,3.18-.07a19,19,0,0,1,5.35.58,4.23,4.23,0,0,1,2.75,2.31q.64,1.46.65,6.79v13.23q-21.26,0-28.4,2-5.64,1.51-8,7.59a23.62,23.62,0,0,0-1.51,8.74q0,12.44,2,17.71t8.24,6.57a19.08,19.08,0,0,0,3.75.36,25.72,25.72,0,0,0,9-1.73q5.57-2.23,15.47-6.79a18.56,18.56,0,0,0,.14,2.53,14.11,14.11,0,0,0,1.59,5.27l9.47-1.3a67,67,0,0,1-.79-10.12Zm-10.92,42.71q-11.26,5.28-13,6a17.75,17.75,0,0,1-6.22,1.37q-5.64,0-7.15-6.29a35.3,35.3,0,0,1-.8-7.87c0-1,0-2,.07-3q.36-4.77,1.59-6.72,1.74-2.74,7.38-3.54,4.83-.72,18.21-.72ZM519.5,353.59H508.73v56.29a40.94,40.94,0,0,1-10,5.57,32.22,32.22,0,0,1-13.15,3.1h-.94q-5.64-.21-7.44-4-1.67-3.48-1.67-13.73V353.59H464.8v47.19q0,14.67,2.45,18.86,3.54,6.93,15,6.93a40,40,0,0,0,17-3.75,78.77,78.77,0,0,0,10-5.06c.05.82.12,1.54.22,2.17a13.9,13.9,0,0,0,1.44,5.92l9.54-.65a66,66,0,0,1-.87-10.12ZM414.43,427.15q1.67.15,3.18.15,13,0,19.94-9.83v52.46h10.84V365.15a53.56,53.56,0,0,1,.87-9.47l-9.54-1.37a29.93,29.93,0,0,0-2.09,8,23.72,23.72,0,0,0-5.71-4.34,31.81,31.81,0,0,0-16.34-4.4q-11.62,0-17.41,8.6-6.07,9.1-6.07,28.25t5.35,27.68q5.06,8,17,9M437.63,373v32.66A27.1,27.1,0,0,1,431.7,414a17.89,17.89,0,0,1-12.57,5.13,11.5,11.5,0,0,1-1.31-.07q-7.21-.44-10.4-5.06-4.49-6.51-4.48-23.63t4-23.85q3-5,9.33-5,13.94,0,21.32,11.49M341.08,393.4c.14-2.4.22-4.69.22-6.86q0-12.72-3.55-20.74-5.42-12.44-18.93-12.94h-1.37q-12.21,0-19.08,8.46Q290,371.43,290,390.44q0,18.57,6.07,26.38,5.42,8.52,18.06,9.61c1.35.1,2.72.14,4.12.14a49.27,49.27,0,0,0,22.84-5.7l-3.9-5.79a39.41,39.41,0,0,1-9.4,3,48.33,48.33,0,0,1-9.18,1,29.27,29.27,0,0,1-3-.15q-7.08-.86-10.12-5.42-4.54-5.06-4.55-20.09Zm-40.18-7.22q.51-15,5.49-21,3.69-4.48,10.55-4.48,8.74,0,12.29,7.44,2.67,5.64,3,18.07Zm-35.41-32.59L250,417.47h-.36L233,353.59H221.91l21,72.26h13.73l19.95-72.26ZM208.9,368.4q0-8.31-2.6-12a8,8,0,0,0-6.86-3.54q-7.31,0-14.6,6.8a34.69,34.69,0,0,0-5.85,6.79,86.69,86.69,0,0,0-1.09-12.86l-10.48.65A114.65,114.65,0,0,1,168.58,370v55.86h10.84V380.61a24,24,0,0,1,5.28-11.2q4.7-5.64,9.75-5.63,3.69,0,3.69,4.62ZM151,353.59H140.25v56.29a40.94,40.94,0,0,1-10,5.57,32.25,32.25,0,0,1-13.15,3.1h-.94q-5.64-.21-7.45-4-1.65-3.48-1.66-13.73V353.59H96.31v47.19q0,14.67,2.46,18.86,3.54,6.93,15,6.93a39.89,39.89,0,0,0,17-3.75,79,79,0,0,0,10-5.06c0,.82.12,1.54.21,2.17a13.88,13.88,0,0,0,1.45,5.92l9.54-.65a66,66,0,0,1-.87-10.12ZM77.16,412.48a44.55,44.55,0,0,1-22.69,5.71q-6.8,0-10-5.13-4.05-6.65-4-24.06t4-23.71q3-4.69,10-4.69h2.1q10.84,0,18,3.46l4.7-5.92q-2.67-2.1-8.82-3.83a60,60,0,0,0-14.16-1.45H54.76c-.72,0-1.42,0-2.09.08q-12.15.72-17.56,9t-5.5,27.82q0,19.65,5.42,28.18t18.07,8.67q17.13,0,28.76-8.81Z"/></g></g></svg>