<svg xmlns="http://www.w3.org/2000/svg" xmlns:xlink="http://www.w3.org/1999/xlink" viewBox="0 0 800 500"><defs><style>.a,.d,.e,.f,.g,.h{fill:none;}.b{clip-path:url(#a);}.c{fill:#e5e5e5;}.d,.e,.f,.g,.h{stroke:red;}.d,.e{stroke-width:1.07px;}.d{stroke-dasharray:3.21 2.14;}.f{stroke-dasharray:3 2;}.g{stroke-dasharray:2.97 1.97;}</style><clipPath id="a"><rect class="a" width="800" height="500"/></clipPath></defs><title>dArtboard 4</title><g class="b"><rect class="c" x="0.5" width="799" height="500"/><line class="d" x1="779" y1="82.78" x2="107.57" y2="82.78"/><line class="d" x1="779" y1="167.54" x2="107.57" y2="167.54"/><line class="e" x1="779" y1="145.3" x2="107.57" y2="145.3"/><line class="d" x1="779" y1="57.98" x2="107.57" y2="57.98"/><path d="M47,80.38v5.48h2.71v.69H46.1V80.38Z"/><path d="M50.33,85.47c0-.93.69-1.24,1.72-1.3l.86,0v-.38c0-.67-.41-.73-.9-.73a5.11,5.11,0,0,0-1.25.21h0l.06-.66a5.42,5.42,0,0,1,1.39-.2c.88,0,1.55.24,1.55,1.38v1.81c0,.34.06.44.27.44a1.18,1.18,0,0,0,.31,0l0,.59a1.57,1.57,0,0,1-.57.09A.64.64,0,0,1,53,86a1.58,1.58,0,0,1-1.37.62C50.76,86.64,50.33,86.18,50.33,85.47Zm2.59-.27v-.53l-.77,0c-.67,0-1,.27-1,.72s.26.62.72.62C52.53,86,52.92,85.66,52.92,85.2Z"/><path d="M55.2,85.47V83.06h-.71v-.6h.71V81.37l.81-.2v1.29h1.11l.05.6H56v2.26c0,.54.18.66.58.66a2.29,2.29,0,0,0,.7-.14h0l-.08.64a2.63,2.63,0,0,1-.86.16C55.51,86.64,55.2,86.21,55.2,85.47Z"/><path d="M58,81a.48.48,0,0,1,.51-.53A.53.53,0,1,1,58,81Zm.92,1.44v4.09h-.82V82.46Z"/><path d="M60.94,82.46,61,83h0a1.39,1.39,0,0,1,1.32-.65,1.37,1.37,0,0,1,1.49,1.57v2.61H63V84c0-.68-.28-1-.9-1A1,1,0,0,0,61,84v2.53H60.2V82.46Z"/><path d="M66.34,82.46h.9l.91,1.44,1-1.44H70l-1.37,2L70,86.55h-.91L68.1,85l-1,1.54h-.9l1.5-2.1Z"/><path d="M72.57,83.79v.65H70.36v-.65Z"/><path d="M74.28,80.38V83h0a1.39,1.39,0,0,1,1.29-.63c1.08,0,1.5.63,1.5,1.57v2.61h-.82V84c0-.68-.27-1-.89-1a1,1,0,0,0-1.09,1v2.52h-.81V80.38Z"/><path d="M78.06,84.49A1.87,1.87,0,0,1,80,82.37c1.21,0,1.7.69,1.7,1.91v.4H78.91A1.17,1.17,0,0,0,80.23,86a3.3,3.3,0,0,0,1.29-.29h0l-.08.68a3.53,3.53,0,0,1-1.36.27C78.7,86.64,78.06,85.87,78.06,84.49ZM80,83c-.49,0-1,.25-1.08,1.14h2C80.91,83.44,80.72,83,80,83Z"/><path d="M82.59,81a.48.48,0,0,1,.51-.53.53.53,0,1,1-.51.53Zm.92,1.44v4.09H82.7V82.46Z"/><path d="M85,87.88l-.07-.67h0a5.05,5.05,0,0,0,1.41.26c.85,0,1.19-.36,1.19-1.06V86h0a1.37,1.37,0,0,1-1.2.56c-1,0-1.76-.56-1.76-2.07a1.9,1.9,0,0,1,1.87-2.12,1.6,1.6,0,0,1,1.16.44l.05-.35h.71v3.91c0,1.34-.87,1.75-1.89,1.75A4.47,4.47,0,0,1,85,87.88ZM87.52,85V83.45a1.29,1.29,0,0,0-1-.42c-.63,0-1.16.38-1.16,1.5,0,.91.37,1.4,1.1,1.4A1,1,0,0,0,87.52,85Z"/><path d="M90.4,80.38V83h0a1.39,1.39,0,0,1,1.29-.63c1.07,0,1.49.63,1.49,1.57v2.61h-.81V84c0-.68-.28-1-.9-1a1,1,0,0,0-1.08,1v2.52h-.82V80.38Z"/><path d="M94.59,85.47V83.06h-.71v-.6h.71V81.37l.82-.2v1.29h1.1l.06.6H95.41v2.26c0,.54.17.66.57.66a2.23,2.23,0,0,0,.7-.14h0l-.08.64a2.58,2.58,0,0,1-.86.16C94.9,86.64,94.59,86.21,94.59,85.47Z"/><path d="M37.71,164v5.48h2.71v.7H36.86V164Z"/><path d="M41.09,169.14c0-.93.69-1.24,1.72-1.3l.86,0v-.38c0-.67-.41-.73-.9-.73a4.67,4.67,0,0,0-1.25.21h0l0-.67a5.43,5.43,0,0,1,1.39-.19c.88,0,1.55.24,1.55,1.38v1.81c0,.34.06.44.27.44a1.81,1.81,0,0,0,.31,0l0,.58a1.64,1.64,0,0,1-.58.1.64.64,0,0,1-.68-.61,1.6,1.6,0,0,1-1.36.62C41.52,170.31,41.09,169.85,41.09,169.14Zm2.59-.27v-.53l-.77,0c-.67,0-1,.28-1,.73s.26.61.72.61C43.29,169.7,43.68,169.33,43.68,168.87Z"/><path d="M46,169.14v-2.41h-.71v-.61H46V165l.82-.2v1.28h1.1l.06.61H46.78V169c0,.54.17.66.57.66a2.53,2.53,0,0,0,.7-.13h0l-.08.64a2.58,2.58,0,0,1-.86.16C46.27,170.31,46,169.88,46,169.14Z"/><path d="M48.75,164.69a.48.48,0,0,1,.51-.54.53.53,0,1,1-.51.54Zm.92,1.43v4.1h-.82v-4.1Z"/><path d="M51.7,166.12l0,.56h0a1.41,1.41,0,0,1,1.32-.65,1.37,1.37,0,0,1,1.49,1.57v2.61h-.81V167.7c0-.68-.28-1-.9-1a1,1,0,0,0-1.08,1v2.53H51v-4.1Z"/><path d="M58.9,168.2c0-1.3.71-2.16,1.86-2.16a1.64,1.64,0,0,1,1.11.36V164h.82v6.18H62l-.05-.53h0a1.4,1.4,0,0,1-1.24.62C59.62,170.31,58.9,169.7,58.9,168.2Zm3,.52v-1.63a1.3,1.3,0,0,0-1-.4c-.63,0-1.16.39-1.16,1.53,0,.93.38,1.45,1.11,1.45A.94.94,0,0,0,61.87,168.72Z"/><path d="M63.71,168.16A1.87,1.87,0,0,1,65.65,166c1.2,0,1.7.69,1.7,1.9,0,.11,0,.29,0,.41H64.56a1.15,1.15,0,0,0,1.31,1.29,3.18,3.18,0,0,0,1.3-.29h0l-.08.69a3.48,3.48,0,0,1-1.35.27C64.34,170.31,63.71,169.53,63.71,168.16Zm1.92-1.51a1,1,0,0,0-1.07,1.14h2C66.56,167.11,66.36,166.65,65.63,166.65Z"/><path d="M68.09,170l-.07-.69h0a3.31,3.31,0,0,0,1.35.33c.58,0,.87-.18.87-.57s-.42-.49-.89-.61c-.75-.19-1.29-.44-1.29-1.2s.59-1.24,1.6-1.24a3.48,3.48,0,0,1,1.16.19l.08.68h0a3.54,3.54,0,0,0-1.16-.22c-.56,0-.83.18-.83.52s.39.5.92.65c.75.2,1.22.43,1.22,1.16s-.49,1.29-1.63,1.29A3.33,3.33,0,0,1,68.09,170Z"/><path d="M71.77,168.16a1.88,1.88,0,0,1,2-2.12,3.24,3.24,0,0,1,1.12.19l0,.68h0a3,3,0,0,0-1.08-.21c-.77,0-1.24.42-1.24,1.44s.42,1.5,1.26,1.5a2.64,2.64,0,0,0,1.1-.23h0l-.06.67a3,3,0,0,1-1.18.23C72.27,170.31,71.77,169.37,71.77,168.16Z"/><path d="M75.63,168.16A1.87,1.87,0,0,1,77.57,166c1.21,0,1.7.69,1.7,1.9v.41H76.48a1.16,1.16,0,0,0,1.32,1.29,3.13,3.13,0,0,0,1.29-.29h0l-.08.69a3.53,3.53,0,0,1-1.36.27C76.27,170.31,75.63,169.53,75.63,168.16Zm1.93-1.51a1,1,0,0,0-1.08,1.14h2C78.48,167.11,78.29,166.65,77.56,166.65Z"/><path d="M81,166.12l0,.56h0a1.41,1.41,0,0,1,1.32-.65,1.37,1.37,0,0,1,1.5,1.57v2.61h-.82V167.7c0-.68-.27-1-.89-1a1,1,0,0,0-1.09,1v2.53h-.81v-4.1Z"/><path d="M84.86,168.2c0-1.3.71-2.16,1.87-2.16a1.62,1.62,0,0,1,1.1.36V164h.82v6.18h-.72l-.05-.53h0a1.41,1.41,0,0,1-1.25.62C85.58,170.31,84.86,169.7,84.86,168.2Zm3,.52v-1.63a1.28,1.28,0,0,0-1-.4c-.62,0-1.16.39-1.16,1.53,0,.93.38,1.45,1.11,1.45A.94.94,0,0,0,87.83,168.72Z"/><path d="M89.67,168.16A1.87,1.87,0,0,1,91.61,166c1.2,0,1.7.69,1.7,1.9,0,.11,0,.29,0,.41H90.52a1.16,1.16,0,0,0,1.31,1.29,3.15,3.15,0,0,0,1.3-.29h0l-.08.69a3.53,3.53,0,0,1-1.36.27C90.31,170.31,89.67,169.53,89.67,168.16Zm1.92-1.51a1,1,0,0,0-1.07,1.14h2C92.52,167.11,92.32,166.65,91.59,166.65Z"/><path d="M95,166.12l0,.69h0a1.25,1.25,0,0,1,1.14-.78,1.28,1.28,0,0,1,.43.06l.08.8h0a2.4,2.4,0,0,0-.49-.07,1,1,0,0,0-1.08,1v2.41h-.81v-4.1Z"/><path d="M45.31,140.31v5.48H48v.7H44.46v-6.18Z"/><path d="M48.69,145.4c0-.92.69-1.23,1.72-1.29l.86-.05v-.37c0-.67-.41-.73-.9-.73a5.08,5.08,0,0,0-1.25.2h0l.06-.66a5.42,5.42,0,0,1,1.39-.2c.88,0,1.55.24,1.55,1.39v1.81c0,.33.06.44.27.44a1.21,1.21,0,0,0,.31-.06l0,.59a1.57,1.57,0,0,1-.57.09.64.64,0,0,1-.68-.61,1.58,1.58,0,0,1-1.37.62C49.12,146.57,48.69,146.12,48.69,145.4Zm2.59-.26v-.54l-.77,0c-.67,0-1,.28-1,.72s.26.62.72.62C50.89,146,51.28,145.59,51.28,145.14Z"/><path d="M53.56,145.4V143h-.72v-.61h.72v-1.08l.81-.2v1.28h1.11l.05.61H54.37v2.25c0,.54.18.66.58.66a2.23,2.23,0,0,0,.7-.14h0l-.08.65a2.86,2.86,0,0,1-.86.15C53.87,146.57,53.56,146.14,53.56,145.4Z"/><path d="M56.35,141a.48.48,0,0,1,.51-.53.53.53,0,1,1-.51.53Zm.92,1.44v4.1h-.82v-4.1Z"/><path d="M59.3,142.39l0,.56h0a1.38,1.38,0,0,1,1.32-.66c.94,0,1.49.51,1.49,1.58v2.61h-.81V144c0-.68-.28-1-.9-1a1,1,0,0,0-1.08,1v2.54h-.82v-4.1Z"/><path d="M67.5,146.09l0,.4h-.71v-6.18h.82v2.55l0,0a1.43,1.43,0,0,1,1.28-.58c.89,0,1.67.55,1.67,2s-.72,2.27-1.88,2.27A1.59,1.59,0,0,1,67.5,146.09Zm2.21-1.76c0-.78-.28-1.38-1.08-1.38a1,1,0,0,0-1.06,1v1.55a1.29,1.29,0,0,0,1,.43C69.35,145.89,69.71,145.27,69.71,144.33Z"/><path d="M71.25,145.4c0-.92.69-1.23,1.72-1.29l.86-.05v-.37c0-.67-.4-.73-.89-.73a5.09,5.09,0,0,0-1.26.2h0l0-.66a5.42,5.42,0,0,1,1.39-.2c.89,0,1.56.24,1.56,1.39v1.81c0,.33.06.44.26.44a1.13,1.13,0,0,0,.31-.06l0,.59a1.63,1.63,0,0,1-.58.09.65.65,0,0,1-.68-.61,1.55,1.55,0,0,1-1.36.62C71.68,146.57,71.25,146.12,71.25,145.4Zm2.59-.26v-.54l-.77,0c-.67,0-1,.28-1,.72s.26.62.73.62A.9.9,0,0,0,73.84,145.14Z"/><path d="M75.74,146.29l-.07-.69h0a3.48,3.48,0,0,0,1.35.33c.58,0,.87-.18.87-.58s-.42-.49-.89-.61c-.75-.19-1.29-.44-1.29-1.19s.59-1.25,1.6-1.25a3.48,3.48,0,0,1,1.16.2l.08.68h0a3.54,3.54,0,0,0-1.16-.22c-.56,0-.83.18-.83.52s.39.5.92.64c.76.21,1.22.43,1.22,1.16s-.49,1.29-1.62,1.29A3.37,3.37,0,0,1,75.74,146.29Z"/><path d="M79.42,144.42a1.87,1.87,0,0,1,1.94-2.12c1.2,0,1.7.7,1.7,1.91,0,.11,0,.28,0,.4H80.27a1.17,1.17,0,0,0,1.31,1.3,3.31,3.31,0,0,0,1.3-.29h0l-.08.69a3.81,3.81,0,0,1-1.36.26C80.05,146.57,79.42,145.8,79.42,144.42Zm1.92-1.51a1,1,0,0,0-1.07,1.14h2C82.27,143.38,82.07,142.91,81.34,142.91Z"/><path d="M83.51,141v-.64h1.36v6.18h-.82V141Z"/><path d="M86.05,141a.51.51,0,1,1,.5.53A.47.47,0,0,1,86.05,141Zm.92,1.44v4.1h-.82v-4.1Z"/><path d="M89,142.39l0,.56h0a1.4,1.4,0,0,1,1.33-.66c.94,0,1.49.51,1.49,1.58v2.61H91V144c0-.68-.27-1-.89-1a1,1,0,0,0-1.08,1v2.54h-.82v-4.1Z"/><path d="M92.85,144.42a1.87,1.87,0,0,1,1.94-2.12c1.2,0,1.7.7,1.7,1.91,0,.11,0,.28,0,.4H93.7a1.16,1.16,0,0,0,1.31,1.3,3.35,3.35,0,0,0,1.3-.29h0l-.07.69a3.81,3.81,0,0,1-1.36.26C93.48,146.57,92.85,145.8,92.85,144.42Zm1.92-1.51a1,1,0,0,0-1.07,1.14h2C95.7,143.38,95.5,142.91,94.77,142.91Z"/><path d="M38.93,54.62V60.1h2.71v.69H38.08V54.62Z"/><path d="M42.31,59.71c0-.93.69-1.24,1.72-1.3l.86,0V58c0-.67-.41-.73-.9-.73a5.11,5.11,0,0,0-1.25.21h0l0-.66a5.42,5.42,0,0,1,1.39-.2c.88,0,1.55.24,1.55,1.38v1.82c0,.33.06.43.27.43a1.18,1.18,0,0,0,.31-.05l0,.59a1.67,1.67,0,0,1-.58.09.64.64,0,0,1-.68-.61,1.58,1.58,0,0,1-1.37.62C42.74,60.88,42.31,60.42,42.31,59.71Zm2.59-.26v-.54l-.77,0c-.67,0-1,.27-1,.72s.26.62.72.62C44.51,60.28,44.9,59.9,44.9,59.45Z"/><path d="M47.18,59.71v-2.4h-.71V56.7h.71V55.61l.82-.19V56.7h1.1l0,.61H48v2.25c0,.54.17.66.57.66a2.23,2.23,0,0,0,.7-.14h0l-.08.65a2.86,2.86,0,0,1-.86.15C47.49,60.88,47.18,60.45,47.18,59.71Z"/><path d="M50,55.26a.48.48,0,0,1,.51-.53.47.47,0,0,1,.51.52c0,.36-.18.54-.51.54A.47.47,0,0,1,50,55.26Zm.92,1.44v4.09h-.82V56.7Z"/><path d="M52.92,56.7l0,.55h0a1.4,1.4,0,0,1,1.32-.65,1.37,1.37,0,0,1,1.49,1.57v2.61H55V58.28c0-.68-.28-1-.9-1a1,1,0,0,0-1.08,1v2.53h-.81V56.7Z"/><path d="M58.44,58.73a1.88,1.88,0,0,1,2-2.12,3.2,3.2,0,0,1,1.12.2l0,.68h0a2.87,2.87,0,0,0-1.09-.22c-.77,0-1.23.42-1.23,1.44s.42,1.51,1.25,1.51a2.77,2.77,0,0,0,1.1-.23h0l-.06.67a3.26,3.26,0,0,1-1.18.22C58.94,60.88,58.44,59.94,58.44,58.73Z"/><path d="M62.25,59.71c0-.93.68-1.24,1.71-1.3l.86,0V58c0-.67-.4-.73-.89-.73a5,5,0,0,0-1.25.21h0l0-.66a5.48,5.48,0,0,1,1.39-.2c.89,0,1.56.24,1.56,1.38v1.82c0,.33.06.43.27.43a1.24,1.24,0,0,0,.31-.05l0,.59a1.57,1.57,0,0,1-.57.09.64.64,0,0,1-.68-.61,1.58,1.58,0,0,1-1.37.62C62.68,60.88,62.25,60.42,62.25,59.71Zm2.58-.26v-.54l-.76,0c-.67,0-1,.27-1,.72s.26.62.72.62C64.45,60.28,64.83,59.9,64.83,59.45Z"/><path d="M67.72,56.7l0,.53h0a1.46,1.46,0,0,1,1.33-.62c.88,0,1.66.52,1.66,2s-.73,2.29-1.88,2.29a1.78,1.78,0,0,1-1.1-.34v1.74H67V56.7Zm2.2,2c0-.8-.27-1.39-1.08-1.39a1,1,0,0,0-1,1v1.63a1.47,1.47,0,0,0,.95.36C69.57,60.23,69.92,59.57,69.92,58.66Z"/><path d="M74.28,54.62v2.61h0a1.39,1.39,0,0,1,1.29-.63c1.08,0,1.5.63,1.5,1.57v2.61h-.82V58.28c0-.68-.27-1-.89-1a1,1,0,0,0-1.09,1v2.52h-.81V54.62Z"/><path d="M78.06,58.73A1.87,1.87,0,0,1,80,56.61c1.21,0,1.7.7,1.7,1.91v.4H78.91a1.17,1.17,0,0,0,1.32,1.3,3.3,3.3,0,0,0,1.29-.29h0l-.08.68a3.53,3.53,0,0,1-1.36.27C78.7,60.88,78.06,60.11,78.06,58.73ZM80,57.22c-.49,0-1,.25-1.08,1.14h2C80.91,57.68,80.72,57.22,80,57.22Z"/><path d="M82.59,55.26a.48.48,0,0,1,.51-.53.53.53,0,1,1-.51.53Zm.92,1.44v4.09H82.7V56.7Z"/><path d="M85,62.13l-.07-.68h0a4.71,4.71,0,0,0,1.41.26c.85,0,1.19-.36,1.19-1.06v-.4h0a1.37,1.37,0,0,1-1.2.56c-1,0-1.76-.56-1.76-2.07a1.91,1.91,0,0,1,1.87-2.12,1.6,1.6,0,0,1,1.16.44l.05-.35h.71v3.91c0,1.34-.87,1.75-1.89,1.75A4.77,4.77,0,0,1,85,62.13Zm2.55-2.91V57.69a1.29,1.29,0,0,0-1-.42c-.63,0-1.16.38-1.16,1.5,0,.92.37,1.4,1.1,1.4A1,1,0,0,0,87.52,59.22Z"/><path d="M90.4,54.62v2.61h0a1.39,1.39,0,0,1,1.29-.63c1.07,0,1.49.63,1.49,1.57v2.61h-.81V58.28c0-.68-.28-1-.9-1a1,1,0,0,0-1.08,1v2.52h-.82V54.62Z"/><path d="M94.59,59.71v-2.4h-.71V56.7h.71V55.61l.82-.19V56.7h1.1l.06.61H95.41v2.25c0,.54.17.66.57.66a2.23,2.23,0,0,0,.7-.14h0l-.08.65a2.86,2.86,0,0,1-.86.15C94.9,60.88,94.59,60.45,94.59,59.71Z"/><line class="f" x1="618.78" y1="262.03" x2="391" y2="262.03"/><line class="g" x1="322" y1="378.12" x2="161" y2="378.12"/><line class="h" x1="326" y1="386.78" x2="161" y2="386.78"/><line class="f" x1="618.78" y1="277.98" x2="391" y2="277.98"/><path d="M626.33,270.36c0-.93.68-1.24,1.71-1.3l.86,0v-.38c0-.67-.4-.73-.89-.73a4.61,4.61,0,0,0-1.25.21h0l0-.67a5.51,5.51,0,0,1,1.4-.19c.88,0,1.55.24,1.55,1.38v1.81c0,.34.06.44.27.44a1.71,1.71,0,0,0,.3-.05l0,.58a1.53,1.53,0,0,1-.57.1.64.64,0,0,1-.68-.61,1.61,1.61,0,0,1-1.37.62C626.76,271.53,626.33,271.07,626.33,270.36Zm2.58-.27v-.53l-.76,0c-.67,0-1,.28-1,.73s.26.61.72.61C628.53,270.92,628.91,270.55,628.91,270.09Z"/><path d="M630.81,269.42c0-1.3.71-2.16,1.86-2.16a1.64,1.64,0,0,1,1.11.36v-2.36h.82v6.18h-.72l-.06-.53h0a1.43,1.43,0,0,1-1.25.62C631.53,271.53,630.81,270.92,630.81,269.42Zm3,.52v-1.63a1.3,1.3,0,0,0-1-.4c-.63,0-1.16.38-1.16,1.53,0,.93.38,1.45,1.11,1.45A.94.94,0,0,0,633.78,269.94Z"/><path d="M635.14,272.87l-.08-.65h0a2.45,2.45,0,0,0,.52.08c.32,0,.49-.16.49-.68V268h-.66v-.63h1.47v4.26c0,1-.48,1.36-1.12,1.36A2.91,2.91,0,0,1,635.14,272.87Zm.73-7a.51.51,0,1,1,1,0,.47.47,0,0,1-.52.53A.46.46,0,0,1,635.87,265.91Z"/><path d="M638.14,270v-2.66H639v2.52c0,.68.23,1,.83,1a1,1,0,0,0,1.06-1v-2.51h.81v4.1h-.74l0-.54h0a1.38,1.38,0,0,1-1.29.63C638.62,271.53,638.14,271,638.14,270Z"/><path d="M642.69,271.24l-.07-.69h0a3.31,3.31,0,0,0,1.35.33c.58,0,.86-.18.86-.57s-.41-.49-.88-.61c-.76-.19-1.29-.44-1.29-1.2s.59-1.24,1.6-1.24a3.48,3.48,0,0,1,1.16.19l.08.68h0a3.54,3.54,0,0,0-1.16-.22c-.56,0-.83.18-.83.52s.38.5.92.65c.75.2,1.22.43,1.22,1.16s-.49,1.29-1.63,1.29A3.24,3.24,0,0,1,642.69,271.24Z"/><path d="M646.76,270.36V268h-.71v-.61h.71v-1.08l.82-.2v1.28h1.11l0,.61h-1.16v2.25c0,.54.17.66.57.66a2.53,2.53,0,0,0,.7-.13h0l-.07.64a2.64,2.64,0,0,1-.87.16C647.07,271.53,646.76,271.1,646.76,270.36Z"/><path d="M649.55,265.91a.48.48,0,0,1,.51-.54.53.53,0,1,1-.51.54Zm.92,1.43v4.1h-.82v-4.1Z"/><path d="M652.51,267.34l0,.56h0a1.41,1.41,0,0,1,1.32-.65,1.37,1.37,0,0,1,1.5,1.57v2.61h-.82v-2.52c0-.68-.27-1-.89-1a1,1,0,0,0-1.09,1v2.53h-.81v-4.1Z"/><path d="M656.78,272.77l-.08-.68h0a4.71,4.71,0,0,0,1.41.27c.85,0,1.18-.36,1.18-1.07v-.39h0a1.39,1.39,0,0,1-1.2.56c-1,0-1.76-.56-1.76-2.07a1.9,1.9,0,0,1,1.86-2.12,1.61,1.61,0,0,1,1.17.43l0-.35h.71v3.92c0,1.34-.88,1.74-1.89,1.74A4.45,4.45,0,0,1,656.78,272.77Zm2.54-2.9v-1.53a1.26,1.26,0,0,0-1-.42c-.62,0-1.16.37-1.16,1.49,0,.92.38,1.4,1.11,1.4A.94.94,0,0,0,659.32,269.87Z"/><path d="M662.69,267.34h.9l.9,1.45,1-1.45h.87l-1.37,2,1.36,2.11h-.91l-1-1.55-1,1.55h-.9l1.49-2.11Z"/><path d="M668.91,268.67v.66h-2.2v-.66Z"/><path d="M670.63,265.26v2.61h0a1.41,1.41,0,0,1,1.29-.62c1.07,0,1.49.62,1.49,1.57v2.61h-.81v-2.52c0-.68-.28-1-.9-1a1,1,0,0,0-1.08,1v2.53h-.82v-6.18Z"/><path d="M674.41,269.38a1.87,1.87,0,0,1,1.94-2.12c1.2,0,1.7.69,1.7,1.9,0,.11,0,.29,0,.41h-2.78a1.15,1.15,0,0,0,1.31,1.29,3.18,3.18,0,0,0,1.3-.29h0l-.07.69a3.58,3.58,0,0,1-1.36.27C675,271.53,674.41,270.75,674.41,269.38Zm1.92-1.51a1,1,0,0,0-1.07,1.14h2C677.26,268.33,677.06,267.87,676.33,267.87Z"/><path d="M678.94,265.91a.48.48,0,0,1,.51-.54.53.53,0,1,1-.51.54Zm.92,1.43v4.1H679v-4.1Z"/><path d="M681.32,272.77l-.08-.68h0a4.65,4.65,0,0,0,1.41.27c.85,0,1.18-.36,1.18-1.07v-.39h0a1.36,1.36,0,0,1-1.19.56c-1,0-1.76-.56-1.76-2.07a1.9,1.9,0,0,1,1.86-2.12,1.58,1.58,0,0,1,1.16.43l.05-.35h.72v3.92c0,1.34-.88,1.74-1.89,1.74A4.4,4.4,0,0,1,681.32,272.77Zm2.54-2.9v-1.53a1.28,1.28,0,0,0-1-.42c-.63,0-1.16.37-1.16,1.49,0,.92.38,1.4,1.11,1.4A.94.94,0,0,0,683.86,269.87Z"/><path d="M686.75,265.26v2.61h0a1.41,1.41,0,0,1,1.29-.62c1.08,0,1.5.62,1.5,1.57v2.61h-.82v-2.52c0-.68-.27-1-.89-1a1,1,0,0,0-1.08,1v2.53h-.82v-6.18Z"/><path d="M690.94,270.36V268h-.72v-.61h.72v-1.08l.81-.2v1.28h1.11l0,.61h-1.16v2.25c0,.54.17.66.58.66a2.47,2.47,0,0,0,.69-.13h0l-.08.64a2.64,2.64,0,0,1-.87.16C691.24,271.53,690.94,271.1,690.94,270.36Z"/><path d="M84,383.36c0-.93.69-1.24,1.72-1.3l.86,0v-.38c0-.67-.4-.73-.89-.73a4.75,4.75,0,0,0-1.26.21h0l0-.67a5.43,5.43,0,0,1,1.39-.19c.89,0,1.56.24,1.56,1.38v1.81c0,.34.06.44.26.44a1.67,1.67,0,0,0,.31-.05l0,.58a1.59,1.59,0,0,1-.58.1.65.65,0,0,1-.68-.61,1.57,1.57,0,0,1-1.36.62C84.45,384.53,84,384.07,84,383.36Zm2.59-.27v-.53l-.77,0c-.67,0-1,.28-1,.73s.25.61.72.61C86.22,383.92,86.61,383.55,86.61,383.09Z"/><path d="M88.51,382.42c0-1.3.71-2.16,1.86-2.16a1.66,1.66,0,0,1,1.11.36v-2.36h.81v6.18h-.72l0-.53h0a1.4,1.4,0,0,1-1.24.62C89.23,384.53,88.51,383.92,88.51,382.42Zm3,.52v-1.63a1.31,1.31,0,0,0-1-.4c-.63,0-1.16.38-1.16,1.53,0,.93.38,1.45,1.11,1.45A.94.94,0,0,0,91.48,382.94Z"/><path d="M92.83,385.87l-.07-.65h0a2.36,2.36,0,0,0,.52.08c.32,0,.48-.16.48-.68V381h-.65v-.63h1.47v4.26c0,1-.48,1.36-1.12,1.36A3.08,3.08,0,0,1,92.83,385.87Zm.73-7a.48.48,0,0,1,.51-.54.53.53,0,1,1-.51.54Z"/><path d="M95.84,383v-2.66h.82v2.52c0,.68.24,1,.84,1a.94.94,0,0,0,1-1v-2.51h.82v4.1h-.74l0-.54h0a1.39,1.39,0,0,1-1.3.63C96.32,384.53,95.84,384,95.84,383Z"/><path d="M100.39,384.24l-.07-.69h0a3.27,3.27,0,0,0,1.34.33c.59,0,.87-.18.87-.57s-.41-.49-.88-.61c-.76-.19-1.29-.44-1.29-1.2s.58-1.24,1.6-1.24a3.53,3.53,0,0,1,1.16.19l.07.68h0a3.59,3.59,0,0,0-1.16-.22c-.56,0-.83.18-.83.52s.38.5.91.65c.76.2,1.22.43,1.22,1.16s-.49,1.29-1.62,1.29A3.24,3.24,0,0,1,100.39,384.24Z"/><path d="M104.46,383.36V381h-.71v-.61h.71v-1.08l.81-.2v1.28h1.11l.05.61h-1.16v2.25c0,.54.18.66.58.66a2.53,2.53,0,0,0,.7-.13h0l-.08.64a2.58,2.58,0,0,1-.86.16C104.77,384.53,104.46,384.1,104.46,383.36Z"/><path d="M107.25,378.91a.48.48,0,0,1,.51-.54.53.53,0,1,1-.51.54Zm.92,1.43v4.1h-.82v-4.1Z"/><path d="M110.2,380.34l0,.56h0a1.39,1.39,0,0,1,1.32-.65,1.37,1.37,0,0,1,1.49,1.57v2.61h-.81v-2.52c0-.68-.28-1-.9-1a1,1,0,0,0-1.08,1v2.53h-.81v-4.1Z"/><path d="M114.48,385.77l-.08-.68h0a4.65,4.65,0,0,0,1.41.27c.85,0,1.18-.36,1.18-1.07v-.39h0a1.36,1.36,0,0,1-1.19.56c-1,0-1.76-.56-1.76-2.07a1.9,1.9,0,0,1,1.86-2.12,1.58,1.58,0,0,1,1.16.43l.05-.35h.72v3.92c0,1.34-.88,1.74-1.89,1.74A4.45,4.45,0,0,1,114.48,385.77Zm2.54-2.9v-1.53a1.28,1.28,0,0,0-1-.42c-.63,0-1.16.37-1.16,1.49,0,.92.38,1.4,1.11,1.4A.94.94,0,0,0,117,382.87Z"/><path d="M121.51,384l0,.4h-.71v-6.18h.82v2.55l0,0a1.46,1.46,0,0,1,1.29-.57c.89,0,1.67.55,1.67,2s-.72,2.27-1.88,2.27A1.58,1.58,0,0,1,121.51,384Zm2.21-1.76c0-.78-.29-1.38-1.08-1.38a1,1,0,0,0-1.06,1v1.56a1.29,1.29,0,0,0,1,.43C123.36,383.85,123.72,383.22,123.72,382.28Z"/><path d="M125.26,383.36c0-.93.69-1.24,1.72-1.3l.86,0v-.38c0-.67-.4-.73-.89-.73a4.68,4.68,0,0,0-1.26.21h0l0-.67a5.43,5.43,0,0,1,1.39-.19c.89,0,1.56.24,1.56,1.38v1.81c0,.34.05.44.26.44a1.67,1.67,0,0,0,.31-.05l0,.58a1.64,1.64,0,0,1-.58.1.65.65,0,0,1-.68-.61,1.6,1.6,0,0,1-1.36.62C125.69,384.53,125.26,384.07,125.26,383.36Zm2.59-.27v-.53l-.77,0c-.67,0-1,.28-1,.73s.26.61.73.61C127.46,383.92,127.85,383.55,127.85,383.09Z"/><path d="M129.75,384.24l-.07-.69h0a3.31,3.31,0,0,0,1.35.33c.58,0,.87-.18.87-.57s-.42-.49-.89-.61c-.75-.19-1.29-.44-1.29-1.2s.59-1.24,1.6-1.24a3.48,3.48,0,0,1,1.16.19l.08.68h0a3.54,3.54,0,0,0-1.16-.22c-.56,0-.83.18-.83.52s.39.5.92.65c.75.2,1.22.43,1.22,1.16s-.49,1.29-1.63,1.29A3.28,3.28,0,0,1,129.75,384.24Z"/><path d="M133.43,382.38a1.87,1.87,0,0,1,1.94-2.12c1.2,0,1.7.69,1.7,1.9,0,.11,0,.29,0,.41h-2.78a1.15,1.15,0,0,0,1.31,1.29,3.18,3.18,0,0,0,1.3-.29h0l-.07.69a3.58,3.58,0,0,1-1.36.27C134.06,384.53,133.43,383.75,133.43,382.38Zm1.92-1.51a1,1,0,0,0-1.07,1.14h2C136.28,381.33,136.08,380.87,135.35,380.87Z"/><path d="M137.52,378.9v-.64h1.36v6.18h-.82V378.9Z"/><path d="M140.06,378.91a.51.51,0,1,1,1,0,.47.47,0,0,1-.52.53A.46.46,0,0,1,140.06,378.91Zm.91,1.43v4.1h-.81v-4.1Z"/><path d="M143,380.34l0,.56h0a1.42,1.42,0,0,1,1.33-.65,1.37,1.37,0,0,1,1.49,1.57v2.61h-.82v-2.52c0-.68-.27-1-.89-1a1,1,0,0,0-1.08,1v2.53h-.82v-4.1Z"/><path d="M146.86,382.38a1.87,1.87,0,0,1,1.94-2.12c1.2,0,1.7.69,1.7,1.9,0,.11,0,.29,0,.41h-2.78a1.15,1.15,0,0,0,1.31,1.29,3.18,3.18,0,0,0,1.3-.29h0l-.08.69a3.48,3.48,0,0,1-1.35.27C147.49,384.53,146.86,383.75,146.86,382.38Zm1.92-1.51a1,1,0,0,0-1.07,1.14h2C149.71,381.33,149.51,380.87,148.78,380.87Z"/><path d="M154.76,136.2h.48l21.48-71.88-8.64-1V57.72h24.6v5.64l-3.48.36c-4.2.48-4.56,1.08-6.12,6.48l-22.56,74.4h-14L124.16,73.68c-2.64-7.8-3.12-9.24-6.84-10l-3.12-.36V57.72h28.56v5.64l-9.36,1.32Z"/><path d="M240.44,137.88c-6.84,5.28-14,8-22.44,8-18.72,0-28.32-14.28-28.32-32C189.68,91,203.12,81,217.52,81,231,81,241,89.16,241,109.2a48.63,48.63,0,0,1-.36,6.24H201.44c.36,13.68,7.68,21.6,19.08,21.6,6.6,0,11-1.32,16.92-4.32Zm-10.68-29.64C230.48,94.68,225.32,88,216.68,88c-8.88,0-14.64,6.24-15.36,20.28Z"/><path d="M270.56,129.36c0,7.8.6,9.12,4.08,9.48l7,.84v4.92H251.72v-5.16l3.24-.36c4.2-.48,4.8-1.68,4.8-9.72v-32c0-5.52-1.68-7.32-5.88-8l-3.48-.6.72-4.92,15.6-2,1.68.72,1.44,8.64C274,85.68,279.32,81,286.4,81a16.94,16.94,0,0,1,7.2,1.56l-.84,12.6h-1.44c-4.8-2.16-8.28-3-11-3-4.44,0-7.68,3-9.72,4.8Z"/><path d="M340.15,140.76a30.45,30.45,0,0,1-16.56,5.16c-9.71,0-13.91-5.76-13.91-16.8V89.4H300l.72-5.88,9.6-1.32,4-14.88h6.12v15h16.07l-1,7.08H320.36v38c0,7.32,2.15,10.32,7.31,10.32a22.42,22.42,0,0,0,10-2.52Z"/><path d="M368.11,129.36c0,7.8.48,9.24,4.2,9.6l4.32.48v5.16H348.79v-5.16l3.84-.48c4.2-.48,4.8-1.56,4.8-9.6V97.2c0-5.52-1.68-7.08-5.88-7.8l-3.48-.6.72-4.92,17.52-2.16,1.8.84Zm-7-60.12c-4.8,0-7.8-2.64-7.8-7.68s3-7.44,7.8-7.44,7.92,2.52,7.92,7.44S366.19,69.24,361.15,69.24Z"/><path d="M436.51,138.12a33.18,33.18,0,0,1-21.72,7.8c-19.08,0-28.32-14.64-28.32-31.56C386.47,91,400.15,81,417.31,81c6.24,0,15,2.4,18.84,5.28l-1,16.8-7.68-.72-1.68-7.8c-.6-3.84-3-5.88-9.48-5.88-10.8,0-18.24,7.44-18.24,23.76,0,18.72,9.6,24.84,20.16,24.84a29.3,29.3,0,0,0,15-4Z"/><path d="M499,144.12a17.71,17.71,0,0,1-8.16,1.8c-5.88,0-9.48-2.88-10.44-8.88-2.88,4.8-9.12,8.88-17.52,8.88-13.8,0-18.24-7.44-18.24-16.8,0-15.72,13.56-19.2,34.8-20v-6.6c0-9.6-3.24-13.08-11.4-13.08-6.72,0-11.16,1.08-17.88,3.84L448,87.36A42.48,42.48,0,0,1,470.23,81c12.24,0,19.8,4.92,19.8,21.12v31c0,4.92.6,5.88,4.8,6.36l3.84.48ZM479.47,115.8c-16.8.24-23.28,3.12-23.28,12.36,0,6.6,4,9.84,10.32,9.84,8.16,0,13-5.4,13-12.36Z"/><path d="M526.87,129.36c0,7.8.48,9.24,4.2,9.6l4.32.48v5.16H507.55v-5.16l3.84-.48c4.2-.48,4.8-1.56,4.8-9.6V70.92c0-5.52-1.56-7.32-5.88-8l-3.48-.6.72-4.92,16.68-2.16,2.64,1.44Z"/><path d="M564.79,129.36c0,7.8.48,9.24,4.2,9.6l4.32.48v5.16H545.47v-5.16l3.84-.48c4.2-.48,4.8-1.56,4.8-9.6V97.2c0-5.52-1.68-7.08-5.88-7.8l-3.48-.6.72-4.92L563,81.72l1.8.84Zm-7-60.12c-4.8,0-7.8-2.64-7.8-7.68s3-7.44,7.8-7.44,7.92,2.52,7.92,7.44S562.87,69.24,557.83,69.24Z"/><path d="M618.79,140.76a30.45,30.45,0,0,1-16.56,5.16c-9.72,0-13.92-5.76-13.92-16.8V89.4h-9.72l.72-5.88,9.6-1.32,4-14.88H599v15h16.08l-1,7.08H599v38c0,7.32,2.16,10.32,7.32,10.32a22.42,22.42,0,0,0,10-2.52Z"/><path d="M656.11,142.56c-7.32,17.76-10.08,23.28-18,24.84a23.79,23.79,0,0,1-4.2.36c-4.92,0-10.08-1.92-12.36-3.84l2.76-6.36a30.74,30.74,0,0,0,8.52,1.56c7.32,0,10.44-3.48,15.84-16.68L629.23,94.92c-2-4.8-3.24-6-5.88-6.6l-2.88-.6,1.08-5.4H647v5.4l-8.28,1L654.07,129h.24l15.84-40.32-8.88-1,.84-5.4h22.08V87.6l-1.8.24c-4,.48-4.68,1.92-7.32,8.4Z"/><path d="M175.69,386.24v-121h38.23l.66,9.61a27.05,27.05,0,0,1,11-9.28,37.26,37.26,0,0,1,16.72-3.61q8.52,0,14.31,3.28a21.92,21.92,0,0,1,8.63,8.41,21.7,21.7,0,0,1,2.84,10.6v102H226.6V296.88a12.41,12.41,0,0,0-.33-3.17,2.82,2.82,0,0,0-1.2-1.74,4.5,4.5,0,0,0-2.41-.55,5,5,0,0,0-2.84.87,5.36,5.36,0,0,0-2,2.41,8.72,8.72,0,0,0-.66,3.49v88.05Z"/><path d="M293.67,378.81l-20.76-99V265.2h40.21l6.11,77.34h.88l8.74-77.34h37.79v14.86L345,378.81Zm4.15,35,10.05-44.35L347,369.2l-9.39,44.57Z"/><path d="M450.54,389.52q-18.14,0-28.19-4.92t-13.87-12.34a31.41,31.41,0,0,1-3.82-14.42V309.55a34.1,34.1,0,0,1,1.75-10.16,32.13,32.13,0,0,1,5.79-10.59,30.94,30.94,0,0,1,10.7-8.3q6.66-3.28,16.5-3.28a29,29,0,0,1,6.22.65,47.91,47.91,0,0,1,5.68,1.64,26.9,26.9,0,0,1,5.14,2.51,47.24,47.24,0,0,0-5.36-11.36,49.12,49.12,0,0,0-9.39-10.7,63.19,63.19,0,0,0-13.55-8.85,71.53,71.53,0,0,0-17.36-5.79v-3.93l27.09-20.1q16.81,4.14,28.18,12.45a74.81,74.81,0,0,1,18.35,18.79,73.45,73.45,0,0,1,10.05,22.07,87.16,87.16,0,0,1,3.06,22.28v61a33.22,33.22,0,0,1-1.85,10.38,26.09,26.09,0,0,1-6.78,10.37q-4.9,4.82-14.2,7.87T450.54,389.52ZM440.05,274.81l-1.75-.43-15.29-17,28.18-22.29,2.19-1.75,18.13-13.76,4.16.22L488.34,239l-15.73,12.24-2.63,2Zm11.36,90.24c1.75,0,2.95-.44,3.61-1.31a4.19,4.19,0,0,0,1-2.41v-56.8a3.28,3.28,0,0,0-.44-1.64,3.45,3.45,0,0,0-1.52-1.31,6.49,6.49,0,0,0-2.85-.55,7.8,7.8,0,0,0-2.84.44,3.38,3.38,0,0,0-2.18,3.06v56.59a4,4,0,0,0,.55,2.18,3.27,3.27,0,0,0,1.74,1.31A8.49,8.49,0,0,0,451.41,365.05Z"/><path d="M551.7,389.52q-13.77,0-22.62-2.95t-14-7.65a27.52,27.52,0,0,1-7.21-9.83,25.83,25.83,0,0,1-2.08-9.72v-67.3a24.17,24.17,0,0,1,2.08-8.84,29.43,29.43,0,0,1,7.21-10.05q5.13-4.92,14.2-8.09t23.05-3.17q14,0,22.94,3.28t14.09,8.19a29.83,29.83,0,0,1,7.21,9.94,23.46,23.46,0,0,1,2.08,8.74v67.3a27.51,27.51,0,0,1-1.86,9.28,26.8,26.8,0,0,1-6.77,9.94q-4.92,4.82-14.2,7.87T551.7,389.52Zm.87-24.47a4.85,4.85,0,0,0,2.73-.66,3.6,3.6,0,0,0,1.42-2.07,10.79,10.79,0,0,0,.44-3.17V291.64a10.53,10.53,0,0,0-.44-3.28,3.06,3.06,0,0,0-1.53-1.86,7.74,7.74,0,0,0-5.68,0,3.52,3.52,0,0,0-1.64,1.86,8.65,8.65,0,0,0-.54,3.28v67.29a10,10,0,0,0,.54,3.71,3.37,3.37,0,0,0,1.75,1.86A7,7,0,0,0,552.57,365.05Z"/></g></svg>