<svg xmlns="http://www.w3.org/2000/svg" xmlns:xlink="http://www.w3.org/1999/xlink" viewBox="0 0 800 300"><defs><style>.a,.d{fill:none;}.b{clip-path:url(#a);}.c{fill:#e5e5e5;}.d{stroke:red;}</style><clipPath id="a"><rect class="a" width="800" height="300"/></clipPath></defs><title>dArtboard 8</title><g class="b"><rect class="c" x="0.5" width="799" height="300"/><path d="M41.05,69.61H51c2.28,0,3.36-.57,3.93-2.68l1.32-5.41h3.36L58.84,73H31.14V70.3l2.28-.23c2-.23,2.16-.63,2.16-4.45V38.83c0-3.31-.28-3.93-2.28-4.16l-2.11-.23V31.76H46.36v2.68l-3.14.29c-1.94.17-2.17.91-2.17,4.21Z"/><path d="M89.68,72.81a8.49,8.49,0,0,1-3.88.85,4.53,4.53,0,0,1-5-4.22,9.53,9.53,0,0,1-8.32,4.22c-6.56,0-8.67-3.53-8.67-8,0-7.47,6.44-9.12,16.53-9.52V53c0-4.56-1.53-6.21-5.41-6.21a19.85,19.85,0,0,0-8.49,1.82l-1-2.79a20.18,20.18,0,0,1,10.55-3c5.81,0,9.4,2.34,9.4,10V67.56c0,2.34.29,2.79,2.28,3l1.83.23Zm-9.3-13.46c-8,.12-11,1.48-11,5.87,0,3.14,1.88,4.68,4.9,4.68,3.87,0,6.15-2.57,6.15-5.87Z"/><path d="M113.73,65.79c0,3.71.11,4.28,2,4.62l1.71.23V73H104.55V70.58l1.82-.23c2-.22,2.28-.74,2.28-4.56V50.57c0-2.62-.79-3.47-2.79-3.82l-1.65-.28.34-2.34,7.41-1,.8.34.51,3.94c2.85-2.62,5.82-4.62,9.81-4.62,3.3,0,6.1,1.25,7.46,4.73,2.85-2.73,6-4.73,10.27-4.73,4.84,0,8.38,2.51,8.38,10.32V65.79c0,3.65.28,4.34,2.28,4.56l2,.29V73H140.63V70.64l1.66-.23c1.71-.28,1.82-1,1.82-4.27V53.71c0-4.39-1.71-6.39-5.07-6.39A15.2,15.2,0,0,0,131.23,50a18.31,18.31,0,0,1,.23,3.19V65.79c0,3.77.11,4.34,1.88,4.62l1.54.23V73h-11.8V70.64l1.48-.23c1.71-.28,1.82-1,1.82-4.27V53.71c0-4.39-1.71-6.39-4.9-6.39A15,15,0,0,0,113.73,50Z"/><path d="M183.33,72.81a8.49,8.49,0,0,1-3.88.85,4.53,4.53,0,0,1-5-4.22,9.53,9.53,0,0,1-8.32,4.22c-6.56,0-8.67-3.53-8.67-8,0-7.47,6.44-9.12,16.53-9.52V53c0-4.56-1.54-6.21-5.41-6.21a19.92,19.92,0,0,0-8.5,1.82l-1-2.79a20.17,20.17,0,0,1,10.54-3c5.82,0,9.41,2.34,9.41,10V67.56c0,2.34.28,2.79,2.28,3l1.82.23ZM174,59.35c-8,.12-11.06,1.48-11.06,5.87,0,3.14,1.89,4.68,4.91,4.68,3.87,0,6.15-2.57,6.15-5.87Zm-7.41-18.64-2-1.54,7.47-10.32,5,2.34v.86Z"/><path d="M204.93,51.71l-.86-3.3c-.34-1.31-1.19-2.17-4.5-2.17s-6,1.14-6,4.33c0,7.24,16,2.68,16,13.51,0,4.74-3,9.58-11.52,9.58a20,20,0,0,1-9.69-2.22l.63-7.53H192l.74,3.82c.4,1.66,1.49,2.51,5.48,2.51,3.7,0,6.38-1.42,6.38-5,0-8-15.79-2.74-15.79-13.62,0-5.3,4.28-8.84,11.06-8.84a17.29,17.29,0,0,1,8.72,2l-.28,7.35Z"/><path d="M249.39,69.84a16.85,16.85,0,0,1-10.66,3.82c-8.9,0-13.46-6.78-13.46-15.22,0-10.89,6.39-15.62,13.23-15.62,6.38,0,11.17,3.88,11.17,13.4a22,22,0,0,1-.17,3H230.86c.17,6.5,3.65,10.26,9.06,10.26a15.86,15.86,0,0,0,8-2Zm-5.08-14.08c.35-6.44-2.11-9.63-6.21-9.63s-7,3-7.3,9.63Z"/><path d="M269.28,73v-2.5l3-.52v-.22l-6.5-8.56-5.64,7.53L259.19,70l3.65.46V73H251.66v-2.5l1.09-.18c1.76-.34,2.33-.79,3.7-2.56l7.18-9.29-7.35-9.81A5.56,5.56,0,0,0,253,46.3L251.66,46l.52-2.51h12.2V46l-3.54.52v.28l6.1,8.15,6.73-8.49L270,46l.4-2.56h10.37V46l-1.08.17c-1.77.34-2.34.91-3.65,2.73L269,57.7l7.87,10.55a4.75,4.75,0,0,0,2.91,2l1.37.28V73Z"/><path d="M297.66,83.47V81.13l3.08-.34c1.77-.17,2.05-.8,2.05-4.51V69.79a10.42,10.42,0,0,1-8.38,3.87c-6.67,0-11.34-4.84-11.34-14.88,0-12,6-16,12.37-16a10.31,10.31,0,0,1,7.7,3.31l.79-2.68h4.28c-.29,3.3-.4,6.33-.4,9.63v23.2c0,3.82.29,4.34,2.28,4.56l1.54.18v2.45ZM302.74,49A10.57,10.57,0,0,0,296,46.75c-4.56,0-7.47,3.37-7.47,11.58,0,8,2.57,11.4,7.36,11.4a10.06,10.06,0,0,0,6.84-3Z"/><path d="M342.52,66.36c0,2.63.74,3.48,2.8,3.82l1.42.23-.11,2.4-7.18.62-.8-.34-.74-4c-2.85,2.63-6.05,4.62-10.15,4.62-4.79,0-8.5-2.51-8.5-10.32V50.57c0-2.62-.79-3.47-2.79-3.82l-1.65-.28.34-2.34,8.38-1,.8.34V62.77c0,4,1.59,6.5,5.36,6.5a15.54,15.54,0,0,0,7.75-2.62V50.57c0-2.62-.8-3.47-2.79-3.82L333,46.47l.35-2.34,8.38-1,.79.34Z"/><path d="M360.71,65.79c0,3.71.22,4.39,2,4.56l2.05.23V73H351.53V70.58l1.82-.23c2-.22,2.28-.74,2.28-4.56V50.52c0-2.63-.8-3.37-2.79-3.71l-1.66-.28.35-2.34,8.32-1,.86.4ZM357.4,37.23c-2.28,0-3.71-1.25-3.71-3.64s1.43-3.54,3.71-3.54,3.76,1.2,3.76,3.54S359.79,37.23,357.4,37.23Z"/><path d="M386.92,51.71l-.85-3.3c-.34-1.31-1.2-2.17-4.5-2.17s-6.05,1.14-6.05,4.33c0,7.24,16,2.68,16,13.51,0,4.74-3,9.58-11.52,9.58a20,20,0,0,1-9.69-2.22l.63-7.53H374l.74,3.82c.4,1.66,1.48,2.51,5.48,2.51,3.7,0,6.38-1.42,6.38-5,0-8-15.79-2.74-15.79-13.62,0-5.3,4.27-8.84,11.06-8.84a17.29,17.29,0,0,1,8.72,2l-.28,7.35Z"/><path d="M405.73,65.79c0,3.71.23,4.39,2,4.56l2,.23V73H396.56V70.58l1.82-.23c2-.22,2.28-.74,2.28-4.56V50.52c0-2.63-.8-3.37-2.79-3.71l-1.66-.28.35-2.34,8.32-1,.85.4Zm-3.3-28.56c-2.28,0-3.71-1.25-3.71-3.64s1.43-3.54,3.71-3.54,3.76,1.2,3.76,3.54S404.82,37.23,402.43,37.23Z"/><path d="M431.44,71.21a14.48,14.48,0,0,1-7.86,2.45c-4.62,0-6.62-2.74-6.62-8V46.81h-4.62l.35-2.79,4.56-.63,1.88-7.07H422v7.13h7.63l-.45,3.36H422V64.88c0,3.48,1,4.91,3.47,4.91a10.72,10.72,0,0,0,4.74-1.2Z"/><path d="M458.29,69.84a16.85,16.85,0,0,1-10.66,3.82c-8.89,0-13.46-6.78-13.46-15.22,0-10.89,6.39-15.62,13.23-15.62,6.39,0,11.17,3.88,11.17,13.4a22,22,0,0,1-.17,3H439.76c.17,6.5,3.65,10.26,9.07,10.26a15.85,15.85,0,0,0,8-2Zm-5.07-14.08c.34-6.44-2.11-9.63-6.22-9.63s-6.95,3-7.29,9.63Z"/><path d="M498,70a15.76,15.76,0,0,1-10.32,3.7c-9.07,0-13.46-7-13.46-15,0-11.12,6.5-15.85,14.66-15.85,3,0,7.12,1.14,9,2.51l-.46,8L493.74,53l-.8-3.71c-.28-1.82-1.42-2.79-4.5-2.79-5.13,0-8.67,3.53-8.67,11.29,0,8.89,4.56,11.8,9.58,11.8a13.92,13.92,0,0,0,7.13-1.88Z"/><path d="M511.58,65.79c0,3.71.06,4.34,2,4.62l1.59.23V73H502.4V70.58l1.83-.23c2-.22,2.28-.74,2.28-4.56V38c0-2.62-.74-3.48-2.8-3.82l-1.65-.28.34-2.34,7.93-1,1.25.69V47.1c2.51-2.28,5.47-4.28,9.81-4.28,5,0,8.72,2.51,8.72,10.32V65.79c0,3.65.28,4.34,2.28,4.56l2,.29V73H521.5V70.64l1.65-.23c1.77-.23,1.88-1,1.88-4.27V53.59c0-4-1.71-6.38-5.58-6.38a15.41,15.41,0,0,0-7.87,2.62Z"/><path d="M564.25,72.81a8.44,8.44,0,0,1-3.88.85,4.53,4.53,0,0,1-5-4.22,9.52,9.52,0,0,1-8.32,4.22c-6.55,0-8.66-3.53-8.66-8,0-7.47,6.44-9.12,16.53-9.52V53c0-4.56-1.54-6.21-5.42-6.21a19.85,19.85,0,0,0-8.49,1.82l-1-2.79a20.22,20.22,0,0,1,10.55-3c5.81,0,9.4,2.34,9.4,10V67.56c0,2.34.29,2.79,2.28,3l1.83.23ZM555,59.35c-8,.12-11.06,1.48-11.06,5.87,0,3.14,1.88,4.68,4.9,4.68,3.88,0,6.16-2.57,6.16-5.87Z"/><path d="M577.47,65.79c0,3.71.12,4.28,2,4.62l1.71.23V73H568.29V70.58l1.83-.23c2-.22,2.28-.74,2.28-4.56V50.57c0-2.62-.8-3.47-2.8-3.82L568,46.47l.34-2.34,7.42-1,.79.34.52,3.94c2.85-2.62,5.81-4.62,9.8-4.62,3.31,0,6.1,1.25,7.47,4.73,2.85-2.73,6-4.73,10.26-4.73,4.85,0,8.38,2.51,8.38,10.32V65.79c0,3.65.28,4.34,2.28,4.56l2,.29V73H604.38V70.64l1.65-.23c1.71-.28,1.83-1,1.83-4.27V53.71c0-4.39-1.71-6.39-5.08-6.39A15.26,15.26,0,0,0,595,50a18.31,18.31,0,0,1,.23,3.19V65.79c0,3.77.11,4.34,1.88,4.62l1.54.23V73h-11.8V70.64l1.48-.23c1.71-.28,1.83-1,1.83-4.27V53.71c0-4.39-1.71-6.39-4.91-6.39A15,15,0,0,0,577.47,50Z"/><path d="M624.78,50.63c0-2.51-.74-3.48-2.68-3.82l-1.65-.28.34-2.34,7.24-1,.85.4.52,3.54a12.76,12.76,0,0,1,9.12-4.28c6.38,0,10.94,4.68,10.94,14.76,0,11.18-5,16.08-11.91,16.08a10.58,10.58,0,0,1-7.7-3.08v5.65c0,3.7.23,4.39,2,4.56l3.31.34v2.34H621V81l1.54-.18c2-.22,2.28-.79,2.28-4.61Zm5.07,16.76a10.85,10.85,0,0,0,6.79,2.4c4.5,0,7.35-3.54,7.35-12,0-7.52-2.74-10.83-6.9-10.83-2.05,0-4.27.57-7.24,2.62Z"/><path d="M680.3,72.81a8.44,8.44,0,0,1-3.88.85,4.53,4.53,0,0,1-5-4.22,9.52,9.52,0,0,1-8.32,4.22c-6.55,0-8.66-3.53-8.66-8,0-7.47,6.44-9.12,16.53-9.52V53c0-4.56-1.54-6.21-5.42-6.21a19.85,19.85,0,0,0-8.49,1.82l-1-2.79a20.22,20.22,0,0,1,10.55-3c5.81,0,9.41,2.34,9.41,10V67.56c0,2.34.28,2.79,2.28,3l1.82.23ZM671,59.35c-8,.12-11.06,1.48-11.06,5.87,0,3.14,1.88,4.68,4.9,4.68,3.88,0,6.16-2.57,6.16-5.87Z"/><path d="M693.58,65.79c0,3.71.06,4.34,2,4.62l1.6.23V73H684.34V70.58l1.83-.23c2-.22,2.28-.74,2.28-4.56V50.57c0-2.62-.8-3.47-2.79-3.82L684,46.47l.34-2.34,7.47-1,.8.34.51,3.94c2.85-2.62,5.93-4.62,10.26-4.62,5.08,0,8.73,2.51,8.73,10.32V65.79c0,3.65.28,4.34,2.28,4.56l2,.29V73H703.56V70.64l1.65-.23c1.77-.23,1.82-1,1.82-4.27V53.59c0-4-1.65-6.38-5.58-6.38a15.38,15.38,0,0,0-7.87,2.62ZM704.41,33c.74,0,1.2-.18,2.57-2.17l2.1,1.14c-1.65,4.84-3.36,5.93-4.67,5.93-1,0-8.72-2.34-9.92-2.34-.63,0-1.2.23-2.62,2l-2-1c1.77-4.1,3-5.81,4.62-5.81C695.69,30.74,703.73,33,704.41,33Z"/><path d="M746.25,72.81a8.47,8.47,0,0,1-3.88.85,4.53,4.53,0,0,1-5-4.22,9.53,9.53,0,0,1-8.32,4.22c-6.56,0-8.67-3.53-8.67-8,0-7.47,6.45-9.12,16.54-9.52V53c0-4.56-1.54-6.21-5.42-6.21a19.85,19.85,0,0,0-8.49,1.82l-1-2.79a20.22,20.22,0,0,1,10.55-3c5.81,0,9.4,2.34,9.4,10V67.56c0,2.34.29,2.79,2.28,3l1.83.23ZM737,59.35c-8,.12-11.06,1.48-11.06,5.87,0,3.14,1.88,4.68,4.9,4.68,3.88,0,6.16-2.57,6.16-5.87Z"/><path d="M39.4,147.61h9.69c2.17,0,3.31-.57,4.16-2.68l2-5.41h3.31L56.22,151H29.31l.34-2.68,2.28-.28c1.94-.23,2.17-.63,2.68-4.45L38.38,116c.28-2.34.11-3.19-1.83-3.36l-2-.23.34-2.68H49.66l-.34,2.68-3.25.23c-1.88.11-2,1-2.45,4.27Z"/><path d="M86.54,145.56c-.23,1.54.23,2.34,1.83,2.4a14,14,0,0,0,3.25-.4l.51,2.33a15.94,15.94,0,0,1-6,1.77c-2.68,0-4.22-1.37-4.28-4.22-2.17,2.17-4.67,4.22-8.89,4.22-6.67,0-9-6.16-9-11.06,0-13.11,7.18-19.78,14-19.78,2.73,0,4.61,1.37,7,3.71l1-3.08.85-.4,3.54,1.2-1.37,6Zm-2.22-18.24a10.87,10.87,0,0,0-6.39-2.51c-5.58,0-8.77,6.33-8.77,15.34,0,5,1.88,7.58,5.35,7.58a12.52,12.52,0,0,0,7.3-3.08Z"/><path d="M132.88,127.83a18.41,18.41,0,0,1-.23,4.62l-1.82,10.72-.91,7.52-4.73.52-.52-.4L127.92,131c.63-3.82-.34-5.76-3.59-5.76-3.08,0-5.64,1.37-7.92,2.85l-2.23,14.82-.91,7.81-4.73.52-.51-.4,3.42-22.18a9.85,9.85,0,0,0,.23-2c0-1-.52-2.11-2.74-2a15,15,0,0,0-2.74.39l-.51-2.39a19.53,19.53,0,0,1,7-1.71c2.68,0,4.11,1.14,3.94,4.56,2.51-2.56,5.24-4.56,9.4-4.56a8.78,8.78,0,0,1,2.23.29,5.8,5.8,0,0,1,4.33,4.21c2.45-2.39,5.59-4.5,9.52-4.5,4.28,0,7.07,2.45,7,8a20.82,20.82,0,0,1-.28,3.08l-2.06,12.31a11.08,11.08,0,0,0-.22,1.77c0,1.31.68,1.94,2.11,2a11.77,11.77,0,0,0,3.07-.45l.52,2.33a14.93,14.93,0,0,1-6.27,1.77c-3.37,0-4.51-2.11-4.51-4.22a11.7,11.7,0,0,1,.17-2L144,131c.62-3.82-.34-5.76-3.59-5.76A13.89,13.89,0,0,0,132.88,127.83Z"/><path d="M178.88,145.56c-.23,1.54.23,2.34,1.82,2.4a13.92,13.92,0,0,0,3.25-.4l.52,2.33a15.93,15.93,0,0,1-6.05,1.77c-2.68,0-4.21-1.37-4.27-4.22-2.17,2.17-4.68,4.22-8.9,4.22-6.66,0-9-6.16-9-11.06,0-13.11,7.18-19.78,14-19.78,2.74,0,4.62,1.37,7,3.71l1-3.08.85-.4,3.53,1.2-1.36,6Zm-2.22-18.24a10.87,10.87,0,0,0-6.39-2.51c-5.58,0-8.78,6.33-8.78,15.34,0,5,1.88,7.58,5.36,7.58a12.52,12.52,0,0,0,7.3-3.08Zm4.5-16.48a46.12,46.12,0,0,0-11.34,7.64l-1.66-1.71c5.3-7.18,6.84-8.55,8.33-9.52s3.47-.68,4.84,2.4Z"/><path d="M205.16,130.17c-.12-4.73-1.83-5.93-5-5.93s-4.79,1.37-4.79,4c0,6.22,12.2,5.3,12.2,14,0,4.91-4.56,9.41-11.63,9.41-5.25,0-8.33-1.71-8.33-4.9a8,8,0,0,1,1.71-4.56l2.46-.17c.11,4.73,1.54,6.15,5.13,6.15,2.68,0,5.64-1.48,5.64-4.61,0-6.73-12.09-5.13-12.09-14.26,0-5,4.68-8.49,10.61-8.49,4.67,0,8,1.94,8,5.13a7.27,7.27,0,0,1-1.48,4Z"/><path d="M246,145.9a15.32,15.32,0,0,1-11.91,5.76c-7.7,0-10.32-6-10.32-11.46,0-13.28,8.1-19.38,15.17-19.38,4.95,0,8.26,2.85,8.26,7.41,0,9.41-11.06,10.66-18.36,10.55-.05,5,1.54,8.72,7.07,8.72,3.14,0,5.88-1.77,8.44-3.76Zm-4.16-17.67c0-2.16-1.08-4.1-4-4.1-3.76,0-7.81,3.76-8.72,11.28C235.25,135.47,241.86,134.67,241.86,128.23Z"/><path d="M256.79,127.26c-1.19-2.34-1.93-3.13-6-2.34l-.52-2.39a14.89,14.89,0,0,1,5.65-1.71c2.79,0,3.88,1.37,5.36,4.33l4.05,8c3-2.39,6.44-5.07,6.44-7.41,0-1.14-.63-1.65-3.25-1.2l-.4-2.22a14.76,14.76,0,0,1,5.47-1.54c2.51,0,3.65,1.48,3.65,3.25,0,4.16-6.16,8.44-10.49,11.91l4.85,9.64a3.39,3.39,0,0,0,3.42,2.22,11,11,0,0,0,2.5-.28l.52,2.39a15,15,0,0,1-5.76,1.71c-2.51,0-4.05-1.42-6.5-6.44l-3.3-6.73c-2.74,2.45-7.07,5.82-7.07,8,0,1.14.74,1.82,3.36,1.37l.4,2.22a14.76,14.76,0,0,1-5.47,1.54,3.32,3.32,0,0,1-3.65-3.42c0-4.22,6.78-9.18,10.94-12.6Z"/><path d="M296.81,162l-.51-.4,2.28-13.8c-2.11,2-4.56,3.82-8.56,3.82-6.66,0-9.06-6.16-9.06-11.06,0-13.91,7.7-19.78,14-19.78,2.46,0,4.62,1.25,7,3.71l1-3.08.85-.4,3.53,1.2L305.59,131l-2.68,19.5-1.37,11Zm4.62-34.72a10.87,10.87,0,0,0-6.39-2.51c-5.58,0-8.72,6.33-8.72,15.34,0,5,1.82,7.58,5.3,7.58a12.54,12.54,0,0,0,7.3-3.08Z"/><path d="M321,151.66c-5.24,0-8.21-3.36-6.9-11.12l2.06-12.37a11,11,0,0,0,.23-1.88c0-.91-.52-1.76-2.11-1.82a15.07,15.07,0,0,0-3.08.45l-.52-2.33a14.93,14.93,0,0,1,6.28-1.77c2.9,0,4.5,1.6,4.5,4.33a17.6,17.6,0,0,1-.34,3.08l-2.23,13.28c-.57,3.42.35,5.76,3.94,5.76,3.3,0,5.18-1.42,7.52-3l2.05-14.71.92-7.81,4.67-.51.51.4L335.11,145c-.28,2.11.12,3.08,2.28,3a17.63,17.63,0,0,0,2.85-.46l.52,2.39a15.86,15.86,0,0,1-6.5,1.77c-2.68,0-3.93-1.82-3.93-4.45C327.7,149.78,325.19,151.66,321,151.66Z"/><path d="M349.19,133c.34-1.82,1-5.41,1-6.38,0-1.37-.91-2-2.51-2a13,13,0,0,0-3,.39l-.52-2.39a19.53,19.53,0,0,1,7-1.71c3.08,0,4.1,1.65,4.1,3.71,0,.91-.51,4-.74,5.3l-1.88,11.63c-.23,1.31-.68,3.93-.68,4.73,0,1,.57,1.82,2.05,1.82a13.19,13.19,0,0,0,3.59-.62l.51,2.33a14.69,14.69,0,0,1-6.72,1.94c-3.31,0-4.51-2-4.51-4.22a15.23,15.23,0,0,1,.34-2.9Zm3.31-17.73a3,3,0,0,1-3.25-3.3c0-2.34,1.65-3.88,4.22-3.88,2.16,0,3.3,1.14,3.3,3.14C356.77,113.69,355.23,115.23,352.5,115.23Z"/><path d="M379.12,130.17c-.12-4.73-1.83-5.93-5-5.93s-4.79,1.37-4.79,4c0,6.22,12.2,5.3,12.2,14,0,4.91-4.56,9.41-11.63,9.41-5.25,0-8.33-1.71-8.33-4.9a8,8,0,0,1,1.72-4.56l2.45-.17c.11,4.73,1.54,6.15,5.13,6.15,2.68,0,5.64-1.48,5.64-4.61,0-6.73-12.09-5.13-12.09-14.26,0-5,4.68-8.49,10.61-8.49,4.67,0,8,1.94,8,5.13a7.27,7.27,0,0,1-1.48,4Z"/><path d="M391.37,133c.34-1.82,1-5.41,1-6.38,0-1.37-.91-2-2.51-2a13,13,0,0,0-3,.39l-.52-2.39a19.53,19.53,0,0,1,7-1.71c3.07,0,4.1,1.65,4.1,3.71,0,.91-.51,4-.74,5.3l-1.88,11.63c-.23,1.31-.69,3.93-.69,4.73,0,1,.57,1.82,2.06,1.82a13.19,13.19,0,0,0,3.59-.62l.51,2.33a14.69,14.69,0,0,1-6.72,1.94c-3.31,0-4.51-2-4.51-4.22a15.23,15.23,0,0,1,.34-2.9Zm3.3-17.73a3,3,0,0,1-3.24-3.3c0-2.34,1.65-3.88,4.21-3.88,2.17,0,3.31,1.14,3.31,3.14C399,113.69,397.41,115.23,394.67,115.23Z"/><path d="M421.18,147.9a14.5,14.5,0,0,1-9.29,3.76c-5.19,0-6.61-3.42-5.87-8.66l2.56-18.19H404l.69-3.19c5.64-.8,5.81-2.91,7.47-7.3h3l-1,7.13h7.64l-.8,3.36h-7.29l-2.51,17.9c-.46,3.14.4,4.85,2.85,4.85,2.16,0,3.59-.57,6-2Z"/><path d="M447.23,145.9a15.34,15.34,0,0,1-11.91,5.76c-7.7,0-10.32-6-10.32-11.46,0-13.28,8.09-19.38,15.16-19.38,5,0,8.27,2.85,8.27,7.41,0,9.41-11.06,10.66-18.36,10.55-.06,5,1.54,8.72,7.07,8.72,3.14,0,5.87-1.77,8.44-3.76Zm-4.16-17.67c0-2.16-1.08-4.1-4-4.1-3.76,0-7.81,3.76-8.72,11.28C436.46,135.47,443.07,134.67,443.07,128.23Z"/><path d="M485,145.79c-1.94,2.34-5.87,5.87-11.29,5.87-8.15,0-10.6-7-10.6-11.69,0-13.39,8.49-19.15,15.73-19.15,4.11,0,8.21,1.6,8.21,5.64a9.86,9.86,0,0,1-1.71,4.68l-3.08.17c.4-5-1-6.84-4.27-6.84-4.56,0-9.64,4.79-9.64,14.31,0,6.1,3,8.78,6.62,8.78s6.27-2.51,8.26-4.05Z"/><path d="M498.93,125.21c2.73-2.34,5.53-4.39,9.63-4.39,4.73,0,7.07,3,7.18,7.58a20.24,20.24,0,0,1-.28,3.54l-2.23,13.39c-.28,1.83.46,2.63,2.06,2.68a15.26,15.26,0,0,0,3.08-.45l.51,2.33a14.93,14.93,0,0,1-6.27,1.77c-3.65,0-5-2.45-4.39-5.87L510.67,131c.57-3.42-.17-5.76-3.76-5.76a15.37,15.37,0,0,0-8.33,2.85l-2.22,14.82-.91,7.81-4.73.52-.52-.4,5.36-34.89c.4-2.51,0-3-1.82-3.42l-2.57-.57.46-2.4,8.78-1,.85.63Z"/><path d="M545.55,145.56c-.22,1.54.23,2.34,1.83,2.4a14,14,0,0,0,3.25-.4l.51,2.33a15.94,15.94,0,0,1-6,1.77c-2.68,0-4.22-1.37-4.28-4.22-2.16,2.17-4.67,4.22-8.89,4.22-6.67,0-9-6.16-9-11.06,0-13.11,7.18-19.78,14-19.78,2.73,0,4.62,1.37,7,3.71l1-3.08.85-.4,3.54,1.2-1.37,6Zm-2.22-18.24a10.87,10.87,0,0,0-6.38-2.51c-5.59,0-8.78,6.33-8.78,15.34,0,5,1.88,7.58,5.35,7.58a12.52,12.52,0,0,0,7.3-3.08Z"/><path d="M581.06,127.83a18.84,18.84,0,0,1-.22,4.62L579,143.17l-.91,7.52-4.73.52-.51-.4L576.1,131c.63-3.82-.34-5.76-3.59-5.76-3.08,0-5.64,1.37-7.92,2.85l-2.22,14.82-.92,7.81-4.73.52-.51-.4,3.42-22.18a9.85,9.85,0,0,0,.23-2c0-1-.52-2.11-2.74-2a15,15,0,0,0-2.74.39l-.51-2.39a19.53,19.53,0,0,1,7-1.71c2.68,0,4.1,1.14,3.93,4.56,2.51-2.56,5.24-4.56,9.41-4.56a8.7,8.7,0,0,1,2.22.29,5.8,5.8,0,0,1,4.33,4.21c2.45-2.39,5.59-4.5,9.52-4.5,4.28,0,7.07,2.45,7,8a20.82,20.82,0,0,1-.28,3.08l-2.05,12.31a10.12,10.12,0,0,0-.23,1.77c0,1.31.68,1.94,2.11,2a11.84,11.84,0,0,0,3.08-.45l.51,2.33a14.9,14.9,0,0,1-6.27,1.77c-3.37,0-4.5-2.11-4.5-4.22a10.76,10.76,0,0,1,.17-2L592.18,131c.63-3.82-.34-5.76-3.59-5.76A13.92,13.92,0,0,0,581.06,127.83Z"/><path d="M623.24,120.82c6.67,0,9,6.16,9,11.29,0,13.17-6.72,19.55-12.94,19.55a10.46,10.46,0,0,1-8.09-3.48l-1,6.62c-.4,2.5-.34,3.53,2.22,3.82l2.46.28-.46,2.39-9.41.4-.85-.62,1.77-10.55,3.19-21.89c.11-.63.28-1.88.28-2.11,0-1.25-.68-2-2.33-2a12.53,12.53,0,0,0-3.14.39l-.51-2.33a17.6,17.6,0,0,1,6.78-1.77c2.34,0,4.16.68,4.11,4.28A12.5,12.5,0,0,1,623.24,120.82Zm-11.68,24.46a10.75,10.75,0,0,0,6.55,2.22c5.59,0,8.72-5.81,8.72-15.05,0-5-2-7.47-5.18-7.47a12.43,12.43,0,0,0-7.59,3Z"/><path d="M659.67,145.56c-.23,1.54.22,2.34,1.82,2.4a14,14,0,0,0,3.25-.4l.51,2.33a15.89,15.89,0,0,1-6,1.77c-2.68,0-4.22-1.37-4.28-4.22-2.16,2.17-4.67,4.22-8.89,4.22-6.67,0-9-6.16-9-11.06,0-13.11,7.19-19.78,14-19.78,2.74,0,4.62,1.37,7,3.71l1-3.08.86-.4,3.53,1.2-1.37,6Zm-2.23-18.24a10.87,10.87,0,0,0-6.38-2.51c-5.59,0-8.78,6.33-8.78,15.34,0,5,1.88,7.58,5.36,7.58a12.52,12.52,0,0,0,7.29-3.08Z"/><path d="M688.68,120.82c4.27,0,7.24,2.45,7.18,8a20.82,20.82,0,0,1-.28,3.08l-2.11,12.71a8,8,0,0,0-.18,1.54c0,1.2.69,1.82,2.23,1.82a14.11,14.11,0,0,0,3-.45l.52,2.33a14.93,14.93,0,0,1-6.28,1.77c-3,0-4.5-1.59-4.5-4.39a13.17,13.17,0,0,1,.23-2.28l2.34-14c.62-3.82-.52-5.76-3.77-5.76a15.78,15.78,0,0,0-8.32,2.85l-2.22,14.82-.91,7.81-4.74.52-.51-.4,3-19.1.62-4.22c.29-2.11-.45-3-2.68-3a14.82,14.82,0,0,0-2.73.39l-.52-2.39a19.53,19.53,0,0,1,7-1.71c2.68,0,4.1,1.14,3.93,4.56C681.67,122.93,684.52,120.82,688.68,120.82ZM691,111.3c.8,0,1.54-.11,3-2l1.94,1.2c-1.88,4.91-3.71,5.53-5.42,5.53-1,0-8-2.79-9.4-2.79-.75,0-1.43.28-2.85,2l-2-1.19c1.82-4.22,3.42-5.42,5.36-5.42C682.12,108.62,689,111.3,691,111.3Z"/><path d="M725.67,145.56c-.23,1.54.23,2.34,1.82,2.4a13.92,13.92,0,0,0,3.25-.4l.52,2.33a15.93,15.93,0,0,1-6,1.77c-2.68,0-4.21-1.37-4.27-4.22-2.17,2.17-4.68,4.22-8.9,4.22-6.66,0-9-6.16-9-11.06,0-13.11,7.18-19.78,14-19.78,2.74,0,4.62,1.37,7,3.71l1-3.08.85-.4,3.54,1.2-1.37,6Zm-2.22-18.24a10.87,10.87,0,0,0-6.39-2.51c-5.58,0-8.78,6.33-8.78,15.34,0,5,1.88,7.58,5.36,7.58a12.52,12.52,0,0,0,7.3-3.08Z"/><path d="M43.05,224.7H51c2.28,0,3.31-.68,3.88-2.68l1.2-5h5l-.69,12H30.74v-3.24l1.48-.18c2-.34,2.16-.62,2.16-4.44V195.34c0-3.3-.34-3.93-2.28-4.22L30.79,191v-3.19H47.61V191l-2.45.17c-2,.12-2.11,1-2.11,3.77Z"/><path d="M92.58,228.75a15.39,15.39,0,0,1-5.24,1c-4,0-5.59-1.83-6-4.11a9.57,9.57,0,0,1-8.38,4.11c-6.84,0-8.55-4.51-8.55-8.32,0-8.67,8.55-9.18,16.47-9.47v-3.19c0-3.14-1.31-4.79-4.79-4.79a20.57,20.57,0,0,0-8.61,2.22l-1.65-3.81a22.51,22.51,0,0,1,12.14-3.77c7,0,11,2.4,11,11.18v12.71c0,2.34.22,2.85,2.28,3.08l1.14.11ZM80.84,215.87c-5.81,0-8.09,1-8.09,4.5,0,2.51,1.48,3.76,3.87,3.76s4.22-1.42,4.22-3.93Z"/><path d="M117.72,221.4c0,3.7-.12,4.27,1.59,4.56l1.09.17V229H105.92v-2.9l1.37-.23c2-.34,2-.69,2-4.5V207.09c0-2.63-.4-3.31-2.4-3.71l-1.19-.23.45-3.19,10-1,.62.34.4,3.59a12.58,12.58,0,0,1,9.29-4.33c3.48,0,6,1.37,7.36,4.51a12.41,12.41,0,0,1,9.58-4.51c5.18,0,8.26,3,8.26,10V221.4c0,3.64.23,4.27,2.22,4.56l1.37.17V229H140.75v-2.9l.85-.12c1.49-.17,1.77-1,1.77-3.93v-12.6c0-3.65-1.2-5-3.82-5a9.8,9.8,0,0,0-4.9,1.6,13.91,13.91,0,0,1,.17,2.22v13.4c0,3.3.11,3.87,1.54,4.22l.91.17V229H123.88v-2.9l.91-.12c1.48-.28,1.65-1,1.65-4.27V209.48c0-3.65-1.2-5-3.76-5a10.13,10.13,0,0,0-5,1.65Z"/><path d="M186.8,228.75a15.39,15.39,0,0,1-5.24,1c-4.05,0-5.59-1.83-6-4.11a9.57,9.57,0,0,1-8.38,4.11c-6.84,0-8.55-4.51-8.55-8.32,0-8.67,8.55-9.18,16.47-9.47v-3.19c0-3.14-1.31-4.79-4.79-4.79a20.57,20.57,0,0,0-8.61,2.22L160,202.36a22.51,22.51,0,0,1,12.14-3.77c7,0,11,2.4,11,11.18v12.71c0,2.34.22,2.85,2.28,3.08l1.14.11Zm-18.47-31.87-2.79-2.11,7.81-10.09,6,2.8v.62Zm6.73,19c-5.81,0-8.09,1-8.09,4.5,0,2.51,1.48,3.76,3.87,3.76s4.22-1.42,4.22-3.93Z"/><path d="M207,207.83l-.74-3c-.34-1.14-1.31-1.71-3.93-1.71-3.14,0-5,1-5,3.25,0,6.32,16.13,1.53,16.13,13.05,0,6.21-4.68,10.32-13.06,10.32-5.64,0-9.63-1.31-10.94-2.11l.74-7.64H195l.63,3.08c.34,1.37,1.42,2.28,5.13,2.28,2.79,0,5-.91,5-3.48,0-6.9-16-1.2-16-13.28,0-6.61,5.59-10,12.55-10a21,21,0,0,1,9.86,2.17l-.34,7.58Z"/><path d="M253.89,225.73a17.69,17.69,0,0,1-11.23,4c-10.37,0-14.71-6.84-14.71-15.68,0-10.54,6.73-15.45,14.2-15.45,7.07,0,11.74,3.94,11.74,13.91,0,.8-.06,1.94-.17,3.08H236.85c.17,5.7,2.9,8.84,7.75,8.84a14.52,14.52,0,0,0,7.35-2.11Zm-8.09-14.6c.22-5.64-1.31-7.86-4.05-7.86s-4.73,2.22-4.9,7.86Z"/><path d="M272.59,229v-2.9l2.62-.52v-.22l-5.25-6.9-5.7,6.9v.28l3.37.46V229H255.2v-2.9l1.14-.17a4.87,4.87,0,0,0,3.36-2.23l7.36-8.83-7.19-9.69a5.45,5.45,0,0,0-3.19-2.46l-1.31-.34.63-3.19h15v3.25l-3.08.57v.28l4.79,6.45,5.64-6.62v-.23l-3.3-.39.45-3.31H287v3.19l-1.08.17c-1.83.29-2.4,1-3.82,2.63L275.38,213l8,10.77a4.74,4.74,0,0,0,3,2.11l1.37.29V229Z"/><path d="M303.76,239.47v-2.91l2.17-.17c2.05-.29,2.34-.69,2.34-4.16V226a9.12,9.12,0,0,1-7.87,3.76c-6.67,0-11.57-4.68-11.57-14.71,0-12.2,6.16-16.42,12.6-16.42a9.18,9.18,0,0,1,7.52,3.54l1.14-2.91h7c-.28,3.31-.45,6.56-.45,9.86v23.15c0,3.3.23,3.87,2.28,4.16l1.19.17v2.91Zm4.51-33.75a7.84,7.84,0,0,0-4.56-1.65c-4,0-6.1,3.42-6.1,10.2,0,7,2.28,9.75,6.1,9.75a7.43,7.43,0,0,0,4.56-1.77Z"/><path d="M351.13,221.91c0,2.91.17,3.53,2.23,3.7l1,.18-.17,3-9.69.85-.63-.34-.62-3.76a12.49,12.49,0,0,1-9.18,4.22c-5.82,0-8.78-3-8.78-10v-12c0-3.36-.4-3.87-2.45-4.27l-1.2-.29.46-3.13,10.94-1,.63.46v19.21c0,3.53,1.2,5.19,4.05,5.19a9.29,9.29,0,0,0,5-1.6V207.49c0-3.37-.63-3.71-2.68-4.11l-.91-.17.46-3.25,10.89-1,.62.34Z"/><path d="M369.37,221.4c0,3.7.23,4.21,2.22,4.56l1.37.17V229H357.17v-2.9l1.37-.17c2-.35,2.45-.75,2.45-4.56V207.26c0-2.63-.63-3.37-2.62-3.76l-1.26-.29.46-3.25,11.12-1,.68.34Zm-4.9-26.4c-3,0-5-1.77-5-4.84s1.94-4.79,5-4.79,5.07,1.65,5.07,4.79S367.6,195,364.47,195Z"/><path d="M393.94,207.83l-.74-3c-.35-1.14-1.32-1.71-3.94-1.71-3.13,0-5,1-5,3.25,0,6.32,16.14,1.53,16.14,13.05,0,6.21-4.68,10.32-13.06,10.32-5.64,0-9.63-1.31-10.94-2.11l.74-7.64h4.73l.63,3.08c.34,1.37,1.42,2.28,5.13,2.28,2.79,0,5-.91,5-3.48,0-6.9-16-1.2-16-13.28,0-6.61,5.59-10,12.54-10a20.88,20.88,0,0,1,9.86,2.17l-.34,7.58Z"/><path d="M415.71,221.4c0,3.7.23,4.21,2.22,4.56l1.37.17V229H403.51v-2.9l1.37-.17c2.05-.35,2.45-.75,2.45-4.56V207.26c0-2.63-.63-3.37-2.62-3.76l-1.26-.29.46-3.25L415,199l.68.34Zm-4.9-26.4c-3,0-5-1.77-5-4.84s1.94-4.79,5-4.79,5.07,1.65,5.07,4.79S413.94,195,410.81,195Z"/><path d="M442.27,227.27a17.77,17.77,0,0,1-8.95,2.45c-6.27,0-8.55-3.08-8.55-9.41V203.67h-4.1l.45-3.88,4.11-.63,3.65-8.61h4.27v8.67H441l-.57,4.45h-7.24V219.4c0,3.42.51,5.24,3.31,5.24a10.78,10.78,0,0,0,4.5-1.08Z"/><path d="M469.4,225.73a17.69,17.69,0,0,1-11.23,4c-10.37,0-14.7-6.84-14.7-15.68,0-10.54,6.72-15.45,14.19-15.45,7.07,0,11.74,3.94,11.74,13.91,0,.8,0,1.94-.17,3.08H452.36c.17,5.7,2.91,8.84,7.75,8.84a14.58,14.58,0,0,0,7.36-2.11Zm-8.09-14.6c.23-5.64-1.31-7.86-4.05-7.86s-4.73,2.22-4.9,7.86Z"/><path d="M509.7,225.79a17.79,17.79,0,0,1-11.29,3.93c-9.8,0-14.19-6.73-14.19-14.88,0-11,6.21-16.25,15.28-16.25a17.78,17.78,0,0,1,9.46,2.57l-.4,8.15-4.9-.4-.74-3.7c-.23-1.49-1.43-1.83-3.14-1.83-4.33,0-6.84,3.31-6.84,10.26,0,8.55,3.71,10.83,8,10.83a14.37,14.37,0,0,0,6.84-2.05Z"/><path d="M524.46,221.4c0,3.7-.23,4.21,1.77,4.56l1.08.17V229H512.49v-2.9l1.43-.23c2.05-.34,2.16-.69,2.16-4.5V194.83c0-2.45-.23-3.31-2.33-3.82l-1.43-.34.4-2.85,10.2-1.26,1.43.74v15.34a13.33,13.33,0,0,1,9.58-4c5.3,0,8.43,3,8.43,10V221.4c0,3.64.23,4.16,2.28,4.5l1.43.23V229H531.19v-2.9l.91-.12c1.77-.22,1.88-1,1.88-4.27v-12.2c0-3.71-1.65-5.08-4.27-5.08a10.14,10.14,0,0,0-5.25,1.71Z"/><path d="M577,228.75a15.39,15.39,0,0,1-5.24,1c-4.05,0-5.59-1.83-6.05-4.11a9.55,9.55,0,0,1-8.38,4.11c-6.84,0-8.55-4.51-8.55-8.32,0-8.67,8.55-9.18,16.48-9.47v-3.19c0-3.14-1.31-4.79-4.79-4.79a20.57,20.57,0,0,0-8.61,2.22l-1.65-3.81a22.47,22.47,0,0,1,12.14-3.77c7,0,11,2.4,11,11.18v12.71c0,2.34.23,2.85,2.28,3.08l1.14.11Zm-11.74-12.88c-5.82,0-8.1,1-8.1,4.5,0,2.51,1.49,3.76,3.88,3.76s4.22-1.42,4.22-3.93Z"/><path d="M591.27,221.4c0,3.7-.12,4.27,1.59,4.56l1.09.17V229H579.47v-2.9l1.36-.23c2.06-.34,2.06-.69,2.06-4.5V207.09c0-2.63-.4-3.31-2.4-3.71l-1.2-.23.46-3.19,10-1,.63.34.4,3.59a12.56,12.56,0,0,1,9.29-4.33c3.48,0,6,1.37,7.36,4.51a12.39,12.39,0,0,1,9.57-4.51c5.19,0,8.27,3,8.27,10V221.4c0,3.64.23,4.27,2.22,4.56l1.37.17V229H614.3v-2.9l.85-.12c1.48-.17,1.77-1,1.77-3.93v-12.6c0-3.65-1.2-5-3.82-5a9.77,9.77,0,0,0-4.9,1.6,13.91,13.91,0,0,1,.17,2.22v13.4c0,3.3.11,3.87,1.54,4.22l.91.17V229h-13.4v-2.9l.91-.12c1.49-.28,1.66-1,1.66-4.27V209.48c0-3.65-1.2-5-3.76-5a10.13,10.13,0,0,0-5,1.65Z"/><path d="M634.36,207c0-2.85-.52-3.31-2.68-3.71l-.91-.17.45-3.19,10-1,.63.34.4,3.48a12.19,12.19,0,0,1,9.12-4.22c6.39,0,10.78,4.45,10.78,14.65,0,11.92-5.53,16.48-12.2,16.48a10.05,10.05,0,0,1-7.24-3v5c0,3.76,0,4.33,2,4.56l2.51.23v2.91H630.88v-2.91l1.25-.17c2.06-.34,2.23-.74,2.23-4.56Zm8.38,15.39a7.52,7.52,0,0,0,4.61,1.6c3.88,0,6-2.57,6-10.15,0-6.84-2.17-9.29-5.65-9.29a9.47,9.47,0,0,0-5,1.59Z"/><path d="M693.92,228.75a15.39,15.39,0,0,1-5.24,1c-4,0-5.59-1.83-6-4.11a9.57,9.57,0,0,1-8.38,4.11c-6.84,0-8.55-4.51-8.55-8.32,0-8.67,8.55-9.18,16.47-9.47v-3.19c0-3.14-1.31-4.79-4.79-4.79a20.57,20.57,0,0,0-8.61,2.22l-1.65-3.81a22.51,22.51,0,0,1,12.14-3.77c7,0,11,2.4,11,11.18v12.71c0,2.34.22,2.85,2.28,3.08l1.14.11Zm-11.74-12.88c-5.81,0-8.09,1-8.09,4.5,0,2.51,1.48,3.76,3.87,3.76s4.22-1.42,4.22-3.93Z"/><path d="M708.23,221.4c0,3.7,0,4.21,2,4.61l1,.12V229H696.37v-2.9l1.2-.17c2-.35,2.28-.75,2.28-4.56V207c0-2.62-.4-3.25-2.39-3.65l-1.2-.23.45-3.19,10-1,.62.34.4,3.54a13.69,13.69,0,0,1,9.81-4.28c5.13,0,8.61,2.74,8.61,9.75V221.4c0,3.64.17,4.27,2.22,4.56l1.37.17V229H715v-2.9l1-.12c1.71-.28,1.83-1,1.83-4.27V209.42c0-3.53-1.31-5-4.28-5a10.38,10.38,0,0,0-5.3,1.6Zm8.27-32.1c.79,0,1.36-.34,2.45-2l3.07,1.32c-1.48,4.9-2.5,6.44-4.78,6.44-1.94,0-8.21-2.05-9.64-2.05-.91,0-1.37.17-2.68,2l-3.08-1.31c1.6-4.45,2.51-6.33,5.13-6.33C709,187.36,714.73,189.3,716.5,189.3Z"/><path d="M760.5,228.75a15.44,15.44,0,0,1-5.24,1c-4,0-5.59-1.83-6-4.11a9.55,9.55,0,0,1-8.38,4.11c-6.84,0-8.55-4.51-8.55-8.32,0-8.67,8.55-9.18,16.48-9.47v-3.19c0-3.14-1.31-4.79-4.79-4.79a20.57,20.57,0,0,0-8.61,2.22l-1.65-3.81a22.47,22.47,0,0,1,12.14-3.77c7,0,11,2.4,11,11.18v12.71c0,2.34.23,2.85,2.28,3.08l1.14.11Zm-11.74-12.88c-5.82,0-8.1,1-8.1,4.5,0,2.51,1.48,3.76,3.88,3.76s4.22-1.42,4.22-3.93Z"/><line class="d" x1="761" y1="22" x2="761" y2="273"/></g></svg>