<svg xmlns="http://www.w3.org/2000/svg" xmlns:xlink="http://www.w3.org/1999/xlink" viewBox="0 0 800 600"><defs><style>.a,.e,.f,.g{fill:none;}.b{clip-path:url(#a);}.c{fill:#e5e5e5;}.d{fill:red;}.e{stroke:red;}.f,.g{stroke:#000;stroke-linecap:round;stroke-linejoin:round;}.f{stroke-dasharray:0 3;}</style><clipPath id="a"><rect class="a" width="800" height="600"/></clipPath></defs><title>dArtboard 2</title><g class="b"><rect class="c" x="0.5" width="799" height="600"/><path d="M84.94,305.6,65.86,256.76c-2.28-5.76-3-7-6.36-7.68l-1.8-.36,1.08-5.4H82.3v5.4l-7.08,1,16.56,46.56h.48l15.84-46.56-7.68-1,.84-5.4h21v5.28l-1.68.24c-4,.6-4.56,1.56-6.6,6.84l-17,49.92Z"/><path d="M148.42,290.36c0,7.8.48,9.24,4.2,9.6l4.32.48v5.16H129.1v-5.16l3.84-.48c4.2-.48,4.8-1.56,4.8-9.6V258.2c0-5.52-1.68-7.08-5.88-7.8l-3.48-.6.72-4.92,17.52-2.16,1.8.84Zm-7-60.12c-4.8,0-7.8-2.64-7.8-7.68s3-7.44,7.8-7.44,7.92,2.52,7.92,7.44S146.5,230.24,141.46,230.24Z"/><path d="M211.3,305.6,209.38,298c-4.32,5.76-10.68,8.88-18.6,8.88-14.4,0-24-10.56-24-31.32,0-23.52,11.16-33.6,25.8-33.6,5.76,0,11.4,1.8,15.6,6.12v-16.2c0-5.52-1.56-7.32-5.88-8l-3.48-.6.72-4.92,17.28-2.16,2,1.32V292c0,5.4.48,7.08,5,7.92l3.36.6v5Zm-3.12-50.4A22.11,22.11,0,0,0,194,250.4c-9.6,0-15.72,7-15.72,24.12s5.52,24,15.48,24a19.31,19.31,0,0,0,14.4-6.36Z"/><path d="M286.42,298.88c-6.84,5.28-14,8-22.44,8-18.72,0-28.32-14.28-28.32-32C235.66,252,249.1,242,263.5,242c13.44,0,23.52,8.16,23.52,28.2a48.63,48.63,0,0,1-.36,6.24H247.42c.36,13.68,7.68,21.6,19.08,21.6,6.6,0,11-1.32,16.92-4.32Zm-10.68-29.64c.72-13.56-4.44-20.28-13.08-20.28-8.88,0-14.64,6.24-15.36,20.28Z"/><path d="M297.22,274.4c0-19.56,10.68-32.4,29-32.4,19,0,27.12,13.08,27.12,32.28,0,19.92-9.72,32.64-28.55,32.64C305.74,306.92,297.22,294,297.22,274.4Zm44.51-.12c0-17.4-5.88-25.32-16.07-25.32s-16.8,7.68-16.8,25.44,6.36,25.8,16.56,25.8C335.38,300.2,341.73,292.4,341.73,274.28Z"/><path d="M399.93,260.72l-1.8-7c-.71-2.76-2.51-4.56-9.47-4.56s-12.72,2.4-12.72,9.12c0,15.24,33.59,5.64,33.59,28.44,0,10-6.24,20.16-24.23,20.16-10,0-16.68-2.64-20.4-4.68l1.32-15.84h6.6l1.56,8c.84,3.48,3.12,5.28,11.52,5.28,7.8,0,13.43-3,13.43-10.44,0-16.8-33.23-5.76-33.23-28.68,0-11.16,9-18.6,23.28-18.6,8,0,14.75,1.92,18.35,4.2l-.6,15.48Z"/><path d="M426.7,258.44c0-5.28-1.56-7.32-5.64-8l-3.48-.6.72-4.92,15.24-2.16,1.8.84,1.08,7.44c5-5.4,12-9,19.2-9,13.43,0,23,9.84,23,31.08,0,23.52-10.44,33.84-25.07,33.84-6.6,0-12.72-2.64-16.2-6.48v11.88c0,7.8.48,9.24,4.2,9.6l7,.72v4.92H418.66V322.4l3.24-.36c4.2-.48,4.8-1.68,4.8-9.72Zm10.68,35.28a22.68,22.68,0,0,0,14.28,5c9.47,0,15.47-7.44,15.47-25.2,0-15.84-5.75-22.8-14.51-22.8-4.33,0-9,1.2-15.24,5.52Z"/><path d="M543.69,305.12a17.71,17.71,0,0,1-8.16,1.8c-5.88,0-9.48-2.88-10.44-8.88-2.88,4.8-9.12,8.88-17.51,8.88-13.8,0-18.24-7.44-18.24-16.8,0-15.72,13.56-19.2,34.79-20v-6.6c0-9.6-3.24-13.08-11.39-13.08-6.72,0-11.16,1.08-17.88,3.84l-2.16-5.88A42.48,42.48,0,0,1,514.9,242c12.23,0,19.79,4.92,19.79,21.12v31c0,4.92.6,5.88,4.8,6.36l3.84.48ZM524.13,276.8c-16.79.24-23.27,3.12-23.27,12.36,0,6.6,4,9.84,10.32,9.84,8.15,0,12.95-5.4,12.95-12.36Z"/><path d="M571.65,290.36c0,7.8.12,9.12,4.2,9.72l3.36.48v5h-27v-5.16l3.84-.48c4.2-.48,4.8-1.56,4.8-9.6v-32c0-5.52-1.68-7.32-5.88-8l-3.48-.6.72-4.92,15.72-2,1.68.72,1.08,8.28c6-5.52,12.48-9.72,21.6-9.72,10.68,0,18.36,5.28,18.36,21.72v26.64c0,7.68.6,9.12,4.8,9.6l4.2.6v5h-27v-5l3.48-.48c3.72-.48,3.84-2,3.84-9v-26.4c0-8.52-3.48-13.44-11.76-13.44-5.52,0-11.4,2.28-16.56,5.52Z"/><path d="M130.65,439.47h-6.22L95,496.74h-3.4L66.71,439.47h-8V433.1H90.24v6.37H80.18L96.75,480.9,115.11,442,104,439.47V433.1h26.64Z"/><path d="M137.75,495.26V488.9h13V447.31l-10.5-5.62c2.22-3.85,11.54-9,21.75-10.07V488.9h13v6.36Zm19.09-82a7.09,7.09,0,0,1-7.4-7.1,7.18,7.18,0,0,1,7.4-7.11c4,0,7.55,3.26,7.55,7.11A7.4,7.4,0,0,1,156.84,413.27Z"/><path d="M235.13,485.05c-9.17,9.77-15.54,11.69-22.49,11.69-13.32,0-28.42-9.62-28.42-30.34,0-23.23,15.84-34.78,33.6-34.78,6.21,0,12.58,2.07,15.54,5.18V399.21l-11.55-5.77c2.67-4.15,11.25-7.7,22.79-8.44v99.16l11.25,2.66c-2.81,5.48-9.47,9.92-20.72,9.92Zm-1.77-41.88c-3.7-3.56-9.48-5.33-15.54-5.33-12.43,0-21,8.58-21,24.42,0,15.39,8.29,24.86,22.2,24.86a28.69,28.69,0,0,0,14.36-3.55Z"/><path d="M317.86,481.35c-3.84,10.21-12.28,15.39-21.45,15.39-16.88,0-29.6-11.84-29.6-30,0-20.72,12.87-35.08,30.48-35.08,12.88,0,21.17,7.25,21.17,18.21,0,1.92-.15,4.44-.3,5.77H278.05a54.78,54.78,0,0,0-.44,7.1c0,15.24,9.47,22.94,22.49,22.94,7.26,0,13-2.22,17-5.77ZM306.17,447.9c0-5.18-3-10.36-10.95-10.36-7.55,0-13,4.29-15.69,12.73h26.64Z"/><path d="M369.07,496.74c-18.94,0-34.33-13-34.33-32.12,0-20.27,17.61-33,34.78-33,18.5,0,34.33,12.29,34.33,32.12C403.85,484,386.24,496.74,369.07,496.74Zm20.87-33c0-16.43-9.32-26.64-20.42-26.64-12.29,0-20.87,10.06-20.87,27.52,0,16.43,9.32,26.64,20.42,26.64C381.36,491.26,389.94,481.2,389.94,463.74Z"/><path d="M415.84,479.57l3.4-.59,10.36,10.66a11.42,11.42,0,0,0,6.52,1.77c6.8,0,10.8-4,10.8-9.62,0-13-25.31-13.47-25.31-31.22,0-10.66,7.7-18.95,20.87-18.95,6.21,0,11.84,1.33,14.5,4L458.76,447l-3.41.6-8.58-9.33a9.44,9.44,0,0,0-5.18-1.33c-5.77,0-9.92,3.4-9.92,8.73,0,12.14,25.76,12.58,25.76,32.71,0,10.36-8.59,18.35-21.91,18.35-5.92,0-12.87-1-16.13-3.85Z"/><path d="M469.71,534.48v-6.37h13v-80.8l-9.62-5.62c2.07-3.85,10.65-9,20.27-10.07l-.89,11.55c9.33-8.59,15.25-11,23.68-11,13.47,0,27.09,10.22,27.09,31.53,0,20.42-15.4,33-32.71,33-7,0-13.47-1.92-16.58-4.74v36.11h14.36v6.37Zm24.27-50c3.26,4,9.48,6.06,15.69,6.06,11.84,0,21-8,21-25,0-15.39-9.77-24.12-22.06-24.12A31.1,31.1,0,0,0,494,444.94Z"/><path d="M615.34,485.05c-.15,6.51-3.7,11.69-9.92,11.69-6.06,0-11.24-3.7-14.94-9.62-6.66,7-11.4,8.73-18.06,8.73-8.88,0-13.61-4.59-13.61-11.84,0-10.65,12.72-17.46,31.81-21.46l.15-10.8c0-8.88-4.59-13.91-14.35-13.91a35.63,35.63,0,0,0-4,.29l-2.37,13.18h-6.36c-2.81,0-3.7-1-3.7-3.41,0-7.84,11.69-16.28,24.72-16.28,11.83,0,17.16,6.51,17.16,17.76l-.59,37.44c1.48,1,4,1.93,8.73,1.93l4.15-4.15ZM590.48,466.7c-16.87,4.58-20.13,8-20.13,13.76,0,5.18,2.22,7.7,8.14,7.7A19.38,19.38,0,0,0,590,484.31Z"/><path d="M667.43,495.26V488.9h11V456.49c0-11.25-4.59-15.25-13.62-15.25a26.73,26.73,0,0,0-19.54,8.29V488.9h11.55v6.36H621V488.9h13V447.31l-10.51-5.62c2.22-3.85,11.54-9,20.87-10.07l-1.48,17.46c6.66-11.83,16.28-17.46,26.49-17.46,13.32,0,20.27,7.7,20.27,19.83V488.9h13v6.36Z"/><g class="b"><path d="M83.5,112.44c0,4.56.24,5.64,4.08,6.12l6.36.84v6H61.66v-6l6.24-1c4.2-.6,4.68-1.2,4.68-9V80.28c0-5.4-1-7.44-5.76-8l-5.76-.72.6-6,18.24-2,1.56.72,1.32,8.88C87.82,66.72,95.5,63,104.5,63c11.28,0,21,5.88,21,22v24.48c0,7.44.36,8.28,4.56,9l6,1v6h-31.8v-6l6.84-.84c3.24-.36,3.48-1.44,3.48-6V86.16c0-8.4-4.08-13.8-13.32-13.8A30.34,30.34,0,0,0,83.5,78Z"/><path d="M166.42,112.44c0,4.56.24,5.64,4.08,6.12l6.36.84v6H144.58v-6l6.24-1c4.2-.6,4.68-1.2,4.68-9V80.28c0-5.4-1-7.44-5.76-8L144,71.52l.6-6,18.24-2,1.56.72,1.32,8.88c5-6.36,12.72-10.08,21.72-10.08,11.28,0,21,5.88,21,22v24.48c0,7.44.36,8.28,4.56,9l6,1v6h-31.8v-6l6.84-.84c3.24-.36,3.48-1.44,3.48-6V86.16c0-8.4-4.08-13.8-13.32-13.8A30.34,30.34,0,0,0,166.42,78Z"/><path d="M228.7,94.92C228.7,75.36,241.06,63,260.14,63c19.8,0,29.52,12.6,29.52,31.8,0,19.92-11.4,32.16-31,32.16C238.78,127,228.7,114.48,228.7,94.92Zm49-.12c0-16.8-7-23.76-18.12-23.76S240.7,77.76,240.7,94.92s7.44,24,18.6,24C270.22,118.92,277.66,112.32,277.66,94.8Z"/><path d="M323,112.44c0,4.56.24,5.64,4.08,6.12l6.36.84v6H301.18v-6l6.24-1c4.2-.6,4.68-1.2,4.68-9V80.28c0-5.4-1-7.44-5.76-8l-5.76-.72.6-6,18.24-2,1.56.72,1.32,8.88C327.34,66.72,335,63,344,63c11.28,0,21,5.88,21,22v24.48c0,7.44.36,8.28,4.56,9l6,1v6h-31.8v-6l6.84-.84c3.24-.36,3.48-1.44,3.48-6V86.16c0-8.4-4.08-13.8-13.32-13.8A30.34,30.34,0,0,0,323,78Z"/><path d="M385.3,94.92C385.3,75.36,397.66,63,416.74,63c19.8,0,29.51,12.6,29.51,31.8,0,19.92-11.39,32.16-30.95,32.16C395.38,127,385.3,114.48,385.3,94.92Zm49-.12c0-16.8-7-23.76-18.12-23.76S397.3,77.76,397.3,94.92s7.44,24,18.6,24C426.82,118.92,434.26,112.32,434.26,94.8Z"/><path d="M479.62,112.44c0,4.56.24,5.64,4.08,6.12l6.36.84v6H457.78v-6l6.24-1c4.2-.6,4.68-1.2,4.68-9V80.28c0-5.4-1-7.44-5.76-8l-5.76-.72.6-6,18.24-2,1.56.72,1.32,8.88c5-6.36,12.72-10.08,21.72-10.08,11.28,0,21,5.88,21,22v24.48c0,7.44.35,8.28,4.55,9l6,1v6H500.38v-6l6.83-.84c3.25-.36,3.49-1.44,3.49-6V86.16c0-8.4-4.08-13.8-13.32-13.8A30.34,30.34,0,0,0,479.62,78Z"/><path d="M559.66,125.4,542.14,78.48c-1.68-4.32-2.88-5.64-7-6.6l-3.12-.72.6-6.12h29.16v6.12L552,72.48l14,40.92h.48l15-47.76H593l14.64,47.76h.48l14.28-40.92-10.08-1.32.84-6.12h26.28v6.12l-4,.6c-4,.6-4.68,1.68-6.6,7L612,125.4h-11L586.05,78.48,571.29,125.4Z"/><path class="d" d="M124.7,63.72,123,63l-20,2-.6,5.88,5.64.72c4.8.72,5.76,2.76,5.76,8v31.2C108.26,114.6,103,117,96.38,117c-9.36,0-12.84-5.52-12.84-13.8V63.72L81.86,63,61.7,65l-.6,5.88,5.76.72c4.8.72,5.76,2.76,5.76,8V104.4c0,13.8,7.2,22,20.4,22,9,0,16.56-3.48,21.6-9.84l1.8,8.28,1.2.72,17.16-1.68.72-5.88-6.12-.84c-4.32-.6-4.68-1.8-4.68-8Z"/><path class="d" d="M562.18,125.4,541.42,78.48c-2.16-4.92-2.76-5.88-5.76-6.48l-4-.84.72-6.12H561.1v6.12l-9.84,1.08,17.28,41.52h.24l17.28-41.52-8.88-1.08L578,65H603.1v6.12l-3.72.84c-3.84.72-4.32,1.32-6.6,6.48L572.5,125.4Z"/><path class="d" d="M633.1,125.4,612.34,78.48c-2.16-4.92-2.76-5.88-5.76-6.48l-4-.84.72-6.12H632v6.12l-9.84,1.08,17.28,41.52h.24L657,72.24l-8.88-1.08.84-6.12H674v6.12L670.3,72c-3.84.72-4.32,1.32-6.6,6.48L643.42,125.4Z"/><path class="d" d="M240.22,88.56c1.08-13,7.92-18.36,16.56-18.36s13.44,5.4,12.72,18.36Zm39.12,24.36c-6.48,3-11.88,4.56-18.24,4.56-13.68,0-21.12-9.12-21.12-21.84h41.16a42.92,42.92,0,0,0,.36-5.88C281.5,70.44,270.94,63,257.14,63c-15,0-28.44,9.48-28.44,31.68,0,19,8.76,32.28,29.88,32.28,8.28,0,15.48-2.4,23.4-8.76Z"/></g><line class="e" x1="307" y1="141" x2="307" y2="40"/><line class="e" x1="385.5" y1="141" x2="385.5" y2="40"/><line class="e" x1="368.5" y1="141" x2="368.5" y2="40"/><line class="e" x1="447" y1="141" x2="447" y2="40"/><path class="d" d="M49.77,525.6c0-3.08,1.46-5.31,4.52-5.31s4.24,2.28,4.24,5-1.24,5.36-4.47,5.36S49.77,528.17,49.77,525.6Zm7.37-.27c0-2.45-.87-3.88-2.9-3.88s-3.1,1.36-3.1,4,1.15,4,3,4S57.14,528.1,57.14,525.33Z"/><path class="d" d="M62,520.43v8.94h4.42v1.13H60.62V520.43Z"/><path class="d" d="M71.63,520.43c2.69,0,4.65,1.09,4.65,4.8s-1.61,5.27-5,5.27H68.46V520.43Zm3.2,4.92c0-3.53-1.61-3.83-4.06-3.83h-.92v7.89H71.5C73.77,529.41,74.83,528,74.83,525.35Z"/><path class="d" d="M81.05,526v1.06h-3.6V526Z"/><path class="d" d="M82.07,530.15,82,529H82a6,6,0,0,0,2.43.56c1.39,0,2.09-.65,2.09-1.69s-1-1.52-2-2c-1.2-.5-2.5-1.09-2.5-2.87,0-1.31.84-2.69,3.12-2.69a6.19,6.19,0,0,1,2.16.39l.11,1.16h0a6.88,6.88,0,0,0-2.16-.42c-1.37,0-1.85.7-1.85,1.45,0,1,.94,1.44,2,1.92s2.46,1.12,2.46,2.94c0,1.3-.78,2.91-3.33,2.91A6.15,6.15,0,0,1,82.07,530.15Z"/><path class="d" d="M88.54,521.63v-1.2h7.55v1.2h-3v8.87h-1.4v-8.87Z"/><path class="d" d="M96.22,520.43h1.54l2.41,5h0l2.42-5h1.5l-3.28,6.27v3.8H99.46v-3.78Z"/><path class="d" d="M106.82,520.43v8.94h4.43v1.13h-5.82V520.43Z"/><path class="d" d="M119.23,520.43v1.15h-4.57v3.19h4v1.12h-4v3.48h4.57v1.13h-6V520.43Z"/><path class="d" d="M127.29,520.43c2.81,0,3.66,1.33,3.66,3.23,0,2.25-1.38,3.58-3.82,3.58h-1.61v3.26h-1.38V520.43Zm2.23,3.29a1.91,1.91,0,0,0-2.2-2.16h-1.8v4.54h1.57A2.15,2.15,0,0,0,129.52,523.72Z"/><path class="d" d="M136,520.43c2.79,0,3.59,1.18,3.59,3a3,3,0,0,1-1.93,3l2.28,4.16h-1.51l-2-3.87a5.24,5.24,0,0,1-.7,0h-1.5v3.82h-1.38V520.43Zm2.16,3c0-1.36-.69-1.88-2.18-1.88h-1.8v4h1.57C137.33,525.57,138.14,524.83,138.14,523.44Z"/><path class="d" d="M141,525.6c0-3.08,1.45-5.31,4.52-5.31s4.23,2.28,4.23,5-1.23,5.36-4.47,5.36S141,528.17,141,525.6Zm7.37-.27c0-2.45-.87-3.88-2.9-3.88s-3.1,1.36-3.1,4,1.15,4,3,4S148.38,528.1,148.38,525.33Z"/><path class="d" d="M155,520.43c2.81,0,3.66,1.33,3.66,3.23,0,2.25-1.38,3.58-3.82,3.58h-1.61v3.26h-1.38V520.43Zm2.23,3.29a1.91,1.91,0,0,0-2.2-2.16h-1.8v4.54h1.57A2.15,2.15,0,0,0,157.24,523.72Z"/><path class="d" d="M159.93,525.6c0-3.08,1.46-5.31,4.53-5.31s4.23,2.28,4.23,5-1.23,5.36-4.47,5.36S159.93,528.17,159.93,525.6Zm7.37-.27c0-2.45-.87-3.88-2.9-3.88s-3.09,1.36-3.09,4,1.15,4,3,4S167.3,528.1,167.3,525.33Z"/><path class="d" d="M174,520.43c2.79,0,3.59,1.18,3.59,3a3,3,0,0,1-1.93,3l2.28,4.16h-1.51l-2-3.87a5.24,5.24,0,0,1-.7,0h-1.5v3.82h-1.39V520.43Zm2.16,3c0-1.36-.69-1.88-2.19-1.88h-1.79v4h1.57C175.34,525.57,176.15,524.83,176.15,523.44Z"/><path class="d" d="M178.39,521.63v-1.2h7.55v1.2h-3v8.87h-1.4v-8.87Z"/><path class="d" d="M188.86,520.43V530.5h-1.39V520.43Z"/><path class="d" d="M191,525.6c0-3.08,1.45-5.31,4.52-5.31s4.23,2.28,4.23,5-1.23,5.36-4.47,5.36S191,528.17,191,525.6Zm7.37-.27c0-2.45-.87-3.88-2.9-3.88s-3.1,1.36-3.1,4,1.15,4,3,4S198.4,528.1,198.4,525.33Z"/><path class="d" d="M203.63,520.43l4.66,8.24h.05v-8.24h1.27V530.5H207.9l-4.69-8.18h0v8.18h-1.29V520.43Z"/><path class="d" d="M211.54,530.15l-.11-1.2h.07a6,6,0,0,0,2.43.56c1.39,0,2.09-.65,2.09-1.69s-1-1.52-2-2-2.5-1.09-2.5-2.87c0-1.31.84-2.69,3.12-2.69a6.19,6.19,0,0,1,2.16.39l.11,1.16h0a6.88,6.88,0,0,0-2.16-.42c-1.37,0-1.85.7-1.85,1.45,0,1,.94,1.44,2,1.92s2.47,1.12,2.47,2.94c0,1.3-.78,2.91-3.33,2.91A6.15,6.15,0,0,1,211.54,530.15Z"/><path class="d" d="M51.72,329.43v4.38h4.91v-4.38H58V339.5H56.63V335H51.72v4.48H50.33V329.43Z"/><path class="d" d="M59.35,329.43h1.54l2.41,5h0l2.42-5h1.5L64,335.7v3.8H62.58v-3.78Z"/><path class="d" d="M71.86,329.43c2.23,0,3,.91,3,2.38a2.24,2.24,0,0,1-1.82,2.4v0a2.23,2.23,0,0,1,2.31,2.44c0,1.67-1,2.83-3.67,2.83H68.56V329.43Zm1.7,2.59c0-1-.66-1.46-1.82-1.46H70v3.24H71.4C72.82,333.8,73.56,333.1,73.56,332Zm.39,4.54c0-1.35-1-1.64-2.37-1.64H70v3.45h1.66C73.36,338.37,74,337.62,74,336.56Z"/><path class="d" d="M80.5,329.43c2.79,0,3.59,1.18,3.59,2.95a3,3,0,0,1-1.93,3l2.28,4.16H82.93l-2.05-3.87a5.24,5.24,0,0,1-.7.05h-1.5v3.82H77.29V329.43Zm2.16,3c0-1.36-.69-1.88-2.19-1.88H78.68v4h1.57C81.85,334.57,82.66,333.83,82.66,332.44Z"/><path class="d" d="M87.68,329.43V339.5H86.3V329.43Z"/><path class="d" d="M93.58,329.43c2.69,0,4.65,1.09,4.65,4.8s-1.61,5.27-5,5.27H90.41V329.43Zm3.21,4.92c0-3.53-1.62-3.83-4.07-3.83H91.8v7.89h1.65C95.72,338.41,96.79,337,96.79,334.35Z"/><path class="d" d="M106.25,329.43c2.79,0,3.58,1.18,3.58,2.95a3,3,0,0,1-1.93,3l2.28,4.16h-1.51l-2-3.87a5.49,5.49,0,0,1-.7.05h-1.5v3.82H103V329.43Zm2.15,3c0-1.36-.68-1.88-2.18-1.88h-1.79v4H106C107.59,334.57,108.4,333.83,108.4,332.44Z"/><path class="d" d="M117.92,329.43v1.15h-4.56v3.19h4v1.12h-4v3.48h4.56v1.13h-6V329.43Z"/><path class="d" d="M119.49,334.54c0-2.8,1.44-5.25,4.86-5.25a7.38,7.38,0,0,1,2.42.4l.16,1.27h-.06a6.9,6.9,0,0,0-2.44-.48c-2,0-3.51,1.15-3.51,4.08,0,2.19.92,3.93,3.23,3.93a4.71,4.71,0,0,0,1.67-.25v-2.61H124v-1.06h3.22v4.51a8.1,8.1,0,0,1-3.16.56C120.69,339.64,119.49,337.2,119.49,334.54Z"/><path class="d" d="M129.42,334.67v-5.24h1.38v6.46c0,1.7.63,2.57,2.36,2.57s2.24-1,2.24-2.56v-6.47h1.38v5.25c0,3-.45,5-3.68,5C130.27,339.64,129.42,338.52,129.42,334.67Z"/><path class="d" d="M140.69,329.43v8.94h4.42v1.13H139.3V329.43Z"/><path class="d" d="M151.23,329.43l3.52,10.07H153.3l-.94-2.76h-4l-.91,2.76h-1.42l3.52-10.07Zm-.83,1.24h0l-1.67,5h3.36Z"/><path class="d" d="M159.53,329.43c2.79,0,3.59,1.18,3.59,2.95a3,3,0,0,1-1.94,3l2.29,4.16H162l-2-3.87a5.36,5.36,0,0,1-.7.05h-1.5v3.82h-1.39V329.43Zm2.16,3c0-1.36-.69-1.88-2.19-1.88h-1.79v4h1.57C160.88,334.57,161.69,333.83,161.69,332.44Z"/><path class="d" d="M166.71,329.43V339.5h-1.38V329.43Z"/><path class="d" d="M168.71,339.15l-.11-1.2h.07a6,6,0,0,0,2.44.56c1.38,0,2.09-.65,2.09-1.69s-1-1.52-2-2c-1.21-.5-2.51-1.09-2.51-2.87,0-1.31.84-2.69,3.12-2.69a6.15,6.15,0,0,1,2.16.39l.11,1.16h0a6.77,6.77,0,0,0-2.16-.42c-1.37,0-1.84.7-1.84,1.45,0,1,.93,1.44,2,1.92s2.47,1.12,2.47,2.94c0,1.3-.79,2.91-3.34,2.91A6.18,6.18,0,0,1,168.71,339.15Z"/><path class="d" d="M182.32,329.43v1.15h-4.56v3.19h4v1.12h-4v3.48h4.56v1.13h-5.95V329.43Z"/><path class="d" d="M187.67,329.43c2.69,0,4.65,1.09,4.65,4.8s-1.61,5.27-4.94,5.27H184.5V329.43Zm3.21,4.92c0-3.53-1.61-3.83-4.06-3.83h-.93v7.89h1.65C189.81,338.41,190.88,337,190.88,334.35Z"/><path class="d" d="M200.28,329.43c2.82,0,3.66,1.33,3.66,3.23,0,2.25-1.37,3.58-3.81,3.58h-1.61v3.26h-1.39V329.43Zm2.23,3.29c0-1.43-.67-2.16-2.2-2.16h-1.79v4.54h1.57A2.15,2.15,0,0,0,202.51,332.72Z"/><path class="d" d="M209,329.43c2.79,0,3.58,1.18,3.58,2.95a3,3,0,0,1-1.93,3l2.28,4.16H211.4l-2-3.87a5.49,5.49,0,0,1-.7.05h-1.5v3.82h-1.39V329.43Zm2.15,3c0-1.36-.68-1.88-2.18-1.88h-1.79v4h1.57C210.32,334.57,211.13,333.83,211.13,332.44Z"/><path class="d" d="M214,334.6c0-3.08,1.46-5.31,4.53-5.31s4.23,2.28,4.23,5-1.24,5.36-4.47,5.36S214,337.17,214,334.6Zm7.37-.27c0-2.45-.87-3.88-2.9-3.88s-3.09,1.36-3.09,4.05,1.14,4,3,4S221.37,337.1,221.37,334.33Z"/><path class="d" d="M228,329.43c2.82,0,3.66,1.33,3.66,3.23,0,2.25-1.37,3.58-3.81,3.58h-1.61v3.26h-1.39V329.43Zm2.23,3.29c0-1.43-.67-2.16-2.2-2.16h-1.79v4.54h1.57A2.15,2.15,0,0,0,230.23,332.72Z"/><path class="d" d="M232.93,334.6c0-3.08,1.46-5.31,4.52-5.31s4.23,2.28,4.23,5-1.23,5.36-4.46,5.36S232.93,337.17,232.93,334.6Zm7.37-.27c0-2.45-.87-3.88-2.9-3.88s-3.1,1.36-3.1,4.05,1.15,4,3,4S240.3,337.1,240.3,334.33Z"/><path class="d" d="M247,329.43c2.78,0,3.58,1.18,3.58,2.95a3,3,0,0,1-1.93,3l2.28,4.16h-1.51l-2-3.87a5.49,5.49,0,0,1-.7.05h-1.5v3.82h-1.39V329.43Zm2.15,3c0-1.36-.68-1.88-2.18-1.88h-1.79v4h1.57C248.33,334.57,249.14,333.83,249.14,332.44Z"/><path class="d" d="M251.39,330.63v-1.2h7.55v1.2h-3v8.87H254.5v-8.87Z"/><path class="d" d="M261.87,329.43V339.5h-1.39V329.43Z"/><path class="d" d="M264,334.6c0-3.08,1.45-5.31,4.52-5.31s4.23,2.28,4.23,5-1.23,5.36-4.47,5.36S264,337.17,264,334.6Zm7.37-.27c0-2.45-.87-3.88-2.91-3.88-1.89,0-3.09,1.36-3.09,4.05s1.15,4,3,4S271.41,337.1,271.41,334.33Z"/><path class="d" d="M276.64,329.43l4.66,8.24h0v-8.24h1.28V339.5h-1.71l-4.69-8.18h0v8.18h-1.29V329.43Z"/><path class="d" d="M284.55,339.15l-.12-1.2h.07a6.05,6.05,0,0,0,2.44.56c1.39,0,2.09-.65,2.09-1.69s-1-1.52-2-2-2.51-1.09-2.51-2.87c0-1.31.84-2.69,3.13-2.69a6.24,6.24,0,0,1,2.16.39l.11,1.16h0a6.88,6.88,0,0,0-2.16-.42c-1.37,0-1.85.7-1.85,1.45,0,1,.94,1.44,2,1.92s2.47,1.12,2.47,2.94c0,1.3-.78,2.91-3.33,2.91A6.15,6.15,0,0,1,284.55,339.15Z"/><line class="f" x1="59.5" y1="172" x2="742" y2="172"/><path class="g" d="M743.5,172h0m-687,0h0"/></g></svg>