<svg xmlns="http://www.w3.org/2000/svg" xmlns:xlink="http://www.w3.org/1999/xlink" viewBox="0 0 800 600"><defs><style>.a,.e,.f{fill:none;}.b{clip-path:url(#a);}.c{fill:#e5e5e5;}.d{fill:red;}.e,.f{stroke:#000;stroke-linecap:round;stroke-linejoin:round;}.e{stroke-dasharray:0 3;}</style><clipPath id="a"><rect class="a" width="800" height="600"/></clipPath></defs><title>dArtboard 6</title><g class="b"><rect class="c" x="0.5" width="799" height="600"/><path class="d" d="M18.19,575.67v-5.24h1.39v6.46c0,1.7.63,2.57,2.35,2.57s2.24-1,2.24-2.56v-6.47h1.39v5.25c0,3-.45,5-3.68,5C19,580.64,18.19,579.52,18.19,575.67Z"/><path class="d" d="M29.83,570.43l4.66,8.24h0v-8.24h1.28V580.5H34.1l-4.69-8.18h-.05v8.18H28.07V570.43Z"/><path class="d" d="M41.77,570.43c2.23,0,3,.91,3,2.38a2.25,2.25,0,0,1-1.82,2.4v0a2.24,2.24,0,0,1,2.31,2.44c0,1.67-1,2.83-3.67,2.83H38.46V570.43ZM43.46,573c0-1-.66-1.46-1.82-1.46H39.85v3.24h1.46C42.72,574.8,43.46,574.1,43.46,573Zm.4,4.54c0-1.35-1-1.64-2.37-1.64H39.85v3.45h1.67C43.27,579.37,43.86,578.62,43.86,577.56Z"/><path class="d" d="M51.29,570.43,54.8,580.5H53.36l-.94-2.76h-4l-.91,2.76H46.13l3.53-10.07Zm-.83,1.24h0l-1.67,5h3.36Z"/><path class="d" d="M57.77,570.43v8.94H62.2v1.13H56.38V570.43Z"/><path class="d" d="M68.31,570.43l3.52,10.07H70.39l-.94-2.76h-4l-.91,2.76H63.16l3.53-10.07Zm-.82,1.24h0l-1.67,5h3.37Z"/><path class="d" d="M75.16,570.43l4.66,8.24h0v-8.24h1.28V580.5H79.43l-4.69-8.18h0v8.18H73.41V570.43Z"/><path class="d" d="M83.23,575.61c0-2.87,1.49-5.32,4.64-5.32a7.59,7.59,0,0,1,2.41.4l.13,1.22h0a7.72,7.72,0,0,0-2.38-.43c-2,0-3.32,1.34-3.32,4,0,1.89.69,4,3.32,4a6.63,6.63,0,0,0,2.38-.47h.06l-.11,1.2a7.37,7.37,0,0,1-2.57.45C84.55,580.64,83.23,578.27,83.23,575.61Z"/><path class="d" d="M98.33,570.43v1.15H93.76v3.19h4v1.12h-4v3.48h4.57v1.13h-6V570.43Z"/><path class="d" d="M103.68,570.43c2.69,0,4.65,1.09,4.65,4.8s-1.62,5.27-5,5.27h-2.87V570.43Zm3.2,4.92c0-3.53-1.61-3.83-4.06-3.83h-.92v7.89h1.65C105.82,579.41,106.88,578,106.88,575.35Z"/><path class="d" d="M114.52,570.43v4.9l4-4.9h1.61l-4,4.83,4.23,5.24h-1.67l-4.12-5.07v5.07h-1.38V570.43Z"/><path class="d" d="M127.73,570.43v1.15h-4.57v3.19h4v1.12h-4v3.48h4.57v1.13h-6V570.43Z"/><path class="d" d="M133.12,570.43c2.78,0,3.58,1.18,3.58,3a3,3,0,0,1-1.93,3l2.28,4.16h-1.51l-2-3.87a5.52,5.52,0,0,1-.71,0H131.3v3.82h-1.39V570.43Zm2.15,3c0-1.36-.68-1.88-2.18-1.88H131.3v4h1.57C134.46,575.57,135.27,574.83,135.27,573.44Z"/><path class="d" d="M140.59,570.43l4.67,8.24h0v-8.24h1.27V580.5h-1.71l-4.69-8.18h0v8.18h-1.29V570.43Z"/><path class="d" d="M150.69,570.43V580.5H149.3V570.43Z"/><path class="d" d="M155.17,570.43l4.66,8.24h0v-8.24h1.28V580.5h-1.71l-4.69-8.18h-.05v8.18h-1.28V570.43Z"/><path class="d" d="M163.24,575.54c0-2.8,1.45-5.25,4.86-5.25a7.46,7.46,0,0,1,2.43.4l.15,1.27h-.06a6.89,6.89,0,0,0-2.43-.48c-2,0-3.52,1.15-3.52,4.08,0,2.19.93,3.93,3.24,3.93a4.69,4.69,0,0,0,1.66-.25v-2.61h-1.85v-1.06H171v4.51a8.16,8.16,0,0,1-3.17.56C164.45,580.64,163.24,578.2,163.24,575.54Z"/><path class="d" d="M21.64,266.43c2.22,0,3,.91,3,2.38a2.25,2.25,0,0,1-1.82,2.4v0a2.24,2.24,0,0,1,2.31,2.44c0,1.67-1,2.83-3.67,2.83H18.33V266.43ZM23.33,269c0-1-.66-1.46-1.82-1.46H19.72v3.24h1.45C22.59,270.8,23.33,270.1,23.33,269Zm.39,4.54c0-1.35-1-1.64-2.36-1.64H19.72v3.45h1.66C23.14,275.37,23.72,274.62,23.72,273.56Z"/><path class="d" d="M31.16,266.43l3.51,10.07H33.23l-.94-2.76H28.34l-.91,2.76H26l3.53-10.07Zm-.83,1.24h0l-1.67,5H32Z"/><path class="d" d="M37.64,266.43v8.94h4.42v1.13H36.25V266.43Z"/><path class="d" d="M48.18,266.43,51.7,276.5H50.25l-.93-2.76h-4l-.91,2.76H43l3.53-10.07Zm-.83,1.24h0l-1.67,5H49Z"/><path class="d" d="M55,266.43l4.66,8.24h0v-8.24H61V276.5H59.3l-4.69-8.18h0v8.18H53.27V266.43Z"/><path class="d" d="M63.1,271.61c0-2.87,1.49-5.32,4.64-5.32a7.59,7.59,0,0,1,2.41.4l.12,1.22h0a7.72,7.72,0,0,0-2.38-.43c-2,0-3.32,1.34-3.32,4,0,1.89.69,4,3.32,4a6.63,6.63,0,0,0,2.38-.47h.06l-.11,1.2a7.37,7.37,0,0,1-2.57.45C64.42,276.64,63.1,274.27,63.1,271.61Z"/><path class="d" d="M78.2,266.43v1.15H73.63v3.19h4v1.12h-4v3.48H78.2v1.13h-6V266.43Z"/><path class="d" d="M83.54,266.43c2.69,0,4.65,1.09,4.65,4.8s-1.61,5.27-4.94,5.27H80.38V266.43Zm3.21,4.92c0-3.53-1.61-3.83-4.06-3.83h-.93v7.89h1.66C85.69,275.41,86.75,274,86.75,271.35Z"/><path class="d" d="M94.39,266.43v4.9l4-4.9H100l-4,4.83,4.23,5.24H98.51l-4.12-5.07v5.07H93V266.43Z"/><path class="d" d="M107.6,266.43v1.15H103v3.19h4v1.12h-4v3.48h4.57v1.13h-6V266.43Z"/><path class="d" d="M113,266.43c2.78,0,3.58,1.18,3.58,2.95a3,3,0,0,1-1.93,3l2.28,4.16h-1.51l-2-3.87a5.24,5.24,0,0,1-.7.05h-1.5v3.82h-1.38V266.43Zm2.15,3c0-1.36-.68-1.88-2.18-1.88h-1.8v4h1.57C114.33,271.57,115.14,270.83,115.14,269.44Z"/><path class="d" d="M120.46,266.43l4.66,8.24h0v-8.24h1.27V276.5h-1.71L120,268.32h0v8.18h-1.29V266.43Z"/><path class="d" d="M130.55,266.43V276.5h-1.38V266.43Z"/><path class="d" d="M135,266.43l4.67,8.24h0v-8.24H141V276.5h-1.71l-4.7-8.18h0v8.18h-1.29V266.43Z"/><path class="d" d="M143.11,271.54c0-2.8,1.44-5.25,4.86-5.25a7.38,7.38,0,0,1,2.42.4l.16,1.27h-.06a6.89,6.89,0,0,0-2.43-.48c-2,0-3.52,1.15-3.52,4.08,0,2.19.92,3.93,3.24,3.93a4.69,4.69,0,0,0,1.66-.25v-2.61h-1.85v-1.06h3.22v4.51a8.1,8.1,0,0,1-3.16.56C144.32,276.64,143.11,274.2,143.11,271.54Z"/><path d="M42.06,76.32h.29L55.24,33.19l-5.19-.58V29.23H64.81v3.38l-2.09.22c-2.52.29-2.73.65-3.67,3.89L45.51,81.36H37.09L23.7,38.8c-1.59-4.68-1.88-5.54-4.11-6l-1.87-.22V29.23H34.86v3.38l-5.62.79Z"/><path d="M97.71,81.07a10.51,10.51,0,0,1-4.89,1.08c-3.53,0-5.69-1.73-6.27-5.33C84.83,79.7,81.08,82.15,76,82.15c-8.28,0-10.94-4.46-10.94-10.08,0-9.43,8.13-11.52,20.88-12v-4c0-5.76-2-7.84-6.84-7.84a25,25,0,0,0-10.73,2.3L67.11,47A25.56,25.56,0,0,1,80.43,43.2c7.35,0,11.88,2.95,11.88,12.67V74.45c0,3,.36,3.52,2.88,3.81l2.31.29ZM88,26l3,1.22c-1.44,7.71-5.26,12.17-11.38,12.17-6.7,0-9.94-4.1-11.23-12.17L71.29,26c2.3,5.68,4.68,7.41,8.42,7.41S85.83,31.39,88,26ZM86,64.08C75.9,64.22,72,66,72,71.49c0,4,2.37,5.91,6.19,5.91C83.1,77.4,86,74.16,86,70Z"/><path d="M140.19,73.65c0,3.24.72,3.53,2.16,3.68l6.05.57v3.46H125V77.9l6.05-.57c1.44-.15,2.16-.44,2.16-3.68V33.55h-6.77c-2.88,0-4,.65-4.75,3.09l-1.52,5.76-4.32.15.72-13.32h40.26l.72,13.32-4.32-.15-1.52-5.68c-.72-2.45-1.72-3.17-4.61-3.17h-6.91Z"/><path d="M194.41,81.07a10.55,10.55,0,0,1-4.9,1.08c-3.53,0-5.69-1.73-6.26-5.33-1.73,2.88-5.48,5.33-10.52,5.33-8.28,0-10.94-4.46-10.94-10.08,0-9.43,8.14-11.52,20.88-12v-4c0-5.76-1.94-7.84-6.84-7.84a25,25,0,0,0-10.73,2.3L163.81,47a25.52,25.52,0,0,1,13.32-3.81c7.34,0,11.88,2.95,11.88,12.67V74.45c0,3,.36,3.52,2.88,3.81l2.3.29ZM168.92,28.15c3,0,4.68,1.44,4.68,4.39s-1.66,4.54-4.68,4.54-4.61-1.52-4.61-4.54S166,28.15,168.92,28.15Zm13.75,35.93c-10.08.14-14,1.87-14,7.41,0,4,2.38,5.91,6.19,5.91,4.9,0,7.78-3.24,7.78-7.42Zm1.08-35.93c2.95,0,4.68,1.44,4.68,4.39s-1.65,4.54-4.68,4.54c-2.88,0-4.61-1.52-4.61-4.54S180.87,28.15,183.75,28.15Z"/><path d="M236.89,73.65c0,3.24.72,3.53,2.16,3.68l6,.57v3.46h-23.4V77.9l6.05-.57c1.44-.15,2.16-.44,2.16-3.68V33.55h-6.77c-2.88,0-4,.65-4.75,3.09l-1.51,5.76-4.32.15.72-13.32h40.25l.72,13.32-4.32-.15-1.51-5.68c-.72-2.45-1.73-3.17-4.61-3.17h-6.91Z"/><path d="M271.88,26.06l8.78,12L278,40.24l-9.08-7.92-9.07,8.14-2.66-2.16,8.92-12.24Zm1.94,46.15c0,4.68.29,5.55,2.52,5.76l2.59.29v3.1h-16.7v-3.1l2.3-.29c2.52-.28,2.88-.93,2.88-5.76V52.92c0-3.32-1-4.25-3.53-4.68l-2.09-.36.44-3,10.51-1.29,1.08.5Z"/><path d="M338.91,81.36l-1.16-4.54a13.32,13.32,0,0,1-11.16,5.33c-8.64,0-14.4-6.34-14.4-18.79,0-14.12,6.7-20.16,15.48-20.16A12.75,12.75,0,0,1,337,46.87V37.15c0-3.32-.93-4.4-3.52-4.83L331.42,32l.43-2.95,10.37-1.3,1.22.8V73.22c0,3.24.29,4.25,3,4.75l2,.36v3ZM337,51.12a13.23,13.23,0,0,0-8.49-2.88c-5.76,0-9.44,4.17-9.44,14.47s3.32,14.4,9.29,14.4A11.57,11.57,0,0,0,337,73.29Zm11.09-7.85a41.06,41.06,0,0,0,1.16-8.79,24.3,24.3,0,0,0-.8-6.84l5.84-1.37,1.15.22a15.57,15.57,0,0,1,.29,2.74c0,5-2.31,10.37-4.83,15Z"/><path d="M386.43,81.07a10.57,10.57,0,0,1-4.9,1.08c-3.53,0-5.69-1.73-6.26-5.33-1.73,2.88-5.48,5.33-10.52,5.33-8.28,0-10.94-4.46-10.94-10.08,0-9.43,8.13-11.52,20.88-12v-4c0-5.76-1.94-7.84-6.84-7.84a25,25,0,0,0-10.73,2.3L355.82,47a25.56,25.56,0,0,1,13.32-3.81c7.35,0,11.89,2.95,11.89,12.67V74.45c0,3,.36,3.52,2.88,3.81l2.3.29Zm-11.74-17c-10.08.14-14,1.87-14,7.41,0,4,2.38,5.91,6.19,5.91,4.9,0,7.78-3.24,7.78-7.42Zm-9.36-23.55-2.52-1.94,9.43-13,6.27,3v1.08Z"/><path d="M432,81.36l-1.15-4.54a13.33,13.33,0,0,1-11.16,5.33c-8.64,0-14.4-6.34-14.4-18.79,0-14.12,6.69-20.16,15.48-20.16a12.76,12.76,0,0,1,9.36,3.67V37.15c0-3.32-.94-4.4-3.53-4.83L424.51,32l.43-2.95,10.37-1.3,1.23.8V73.22c0,3.24.28,4.25,3,4.75l2,.36v3Zm-1.87-30.24a13.26,13.26,0,0,0-8.5-2.88c-5.76,0-9.43,4.17-9.43,14.47s3.31,14.4,9.29,14.4a11.6,11.6,0,0,0,8.64-3.82Zm11.09-7.85a41,41,0,0,0,1.15-8.79,24.67,24.67,0,0,0-.79-6.84l5.83-1.37,1.15.22a14.67,14.67,0,0,1,.29,2.74c0,5-2.31,10.37-4.82,15Z"/><path d="M481.18,72.93c0,3.32.93,4.4,3.52,4.83l1.8.29-.14,3-9.07.79-1-.43-.94-5.11c-3.6,3.31-7.63,5.83-12.81,5.83-6,0-10.73-3.17-10.73-13V53c0-3.31-1-4.39-3.53-4.83l-2.09-.36.43-2.95,10.59-1.22,1,.43V68.4c0,5.11,2,8.21,6.76,8.21,3.1,0,6.7-1.37,9.8-3.32V53c0-3.31-1-4.39-3.53-4.83l-2.09-.36.43-2.95,10.59-1.22,1,.43Z"/><path d="M517.61,72.21c0,4.68.28,5.55,2.51,5.76l2.6.29v3.1H506v-3.1l2.31-.29c2.52-.28,2.88-.93,2.88-5.76V37.15c0-3.32-.94-4.4-3.53-4.83L505.58,32,506,29l10-1.3,1.59.87Zm8.64-13.68c-2.74,0-4.4-1.51-4.4-4.32s1.66-4.17,4.4-4.17,4.46,1.44,4.46,4.17S529.05,58.53,526.25,58.53Z"/><path d="M541.29,72.21c0,4.68.29,5.55,2.52,5.76l2.6.29v3.1H529.7v-3.1L532,78c2.52-.28,2.88-.93,2.88-5.76V37.15c0-3.32-.93-4.4-3.52-4.83L529.27,32,529.7,29l10-1.3,1.58.87Z"/><path d="M592.12,48.88A11,11,0,0,1,595,56.52C595,64.73,588.31,69,580.68,69a22.77,22.77,0,0,1-5.33-.57l-2.6,6,13.83.64c6.48.29,11.38,2.45,11.38,8.72,0,8.13-8.57,11.52-18.94,11.52-4.83,0-14.55-1.08-14.55-8.36,0-2.52,1.3-5.11,5-7.48-2-.65-2.8-1.8-2.8-3.39s.72-2.59,1.94-4.46L571.89,67a11,11,0,0,1-6-10.15c0-9.44,7.56-13.68,14.26-13.68a16.83,16.83,0,0,1,7.49,1.58l8.86-.65.5,3.6Zm-7.41,31.83-11.16-.5c-1.37,1.29-2.88,3.24-2.88,5.54,0,3,3,4.75,9.79,4.75,4.18,0,11.23-.79,11.23-5.47C591.69,82.08,589.75,81,584.71,80.71ZM580.6,47.52c-5,0-8.21,2.95-8.21,8.56,0,6.85,3.75,8.57,7.93,8.57,4.82,0,8.2-2.3,8.2-8.35C588.52,50,585.5,47.52,580.6,47.52Z"/><path d="M613.36,72.07c0,12.17-2.3,17.07-11.66,22.9l-2-2.88c4.18-3.17,7.2-7.92,7.2-17.43V52.92c0-3.32-.93-4.25-3.45-4.68l-2.09-.36.43-3,10.51-1.29,1.08.5Zm-3.6-35.93c-2.88,0-4.68-1.58-4.68-4.61s1.8-4.46,4.68-4.46,4.75,1.51,4.75,4.46S612.79,36.14,609.76,36.14Z"/><path d="M647.92,72.21c0,4.68.29,5.55,2.52,5.76l2.59.29v3.1h-16.7v-3.1l2.3-.29c2.52-.28,2.88-.93,2.88-5.76V37.15c0-3.32-.93-4.4-3.53-4.83L635.9,32l.43-2.95,10-1.3,1.58.87Zm4.46-28.94a40.44,40.44,0,0,0,1.16-8.79,24.67,24.67,0,0,0-.79-6.84l5.83-1.37,1.15.22a15.57,15.57,0,0,1,.29,2.74c0,5-2.31,10.37-4.83,15Z"/><path d="M673.7,60.33l14.11-12.24V47.8l-4.75-.43.57-3.38h14.62v3.24l-1.44.14c-1.87.22-3.17,1-5.54,3L683,57.6l9.65,15.33c2.24,3.75,3.68,4.61,5.69,5l1.3.29v3.1H690l-6.05-9.65-6-9.65-4.17,3.6v6.55c0,4.68.28,5.55,2.52,5.76l2.59.29v3.1H662.1v-3.1l2.31-.29c2.52-.28,2.88-.93,2.88-5.76V37.15c0-3.24-1-4.4-3.53-4.83L661.67,32,662.1,29l10-1.3,1.59.87Z"/><path d="M46.16,110.23l13.47,42.55c1.58,4.76,2.16,5.4,4.39,5.91l1.8.21v3.46H48.11V158.9l5.68-.72L50.12,145.8H31.33l-3.75,12.45,5.55.65v3.46H17.72V158.9l2-.28c2.52-.44,3.09-1.88,4.17-5.12l14.26-43.27Zm-5.4,5.54h-.07l-8.21,25.78H48.75Z"/><path d="M106.57,162.36l-10-44.86H96.2L86,162.36H78.06L67.69,119.44c-.87-4.46-1.8-5.18-4-5.61l-1.87-.22v-3.38H79.35v3.38l-5.61.79,9.14,39.68h.36l9.94-43.85h8.06l10.08,43.85h.36l9.44-39.89-5.19-.58v-3.38h14.83v3.38l-2.23.22c-2.52.21-2.88,1.08-3.67,4.39l-10.44,44.14Z"/><path d="M161.72,152.78c0,4.68.07,5.11,2.52,5.33l7.49.79v3.46H149.12V159l2.88-.28c2.45-.22,2.73-.94,2.73-5V119.23c0-4.18-.43-5-2.88-5.33l-2.66-.29v-3.38h33.63l.64,13.61-4.32-.15-1.51-5.47c-.65-2.45-1.65-3.67-4.53-3.67H161.72v19.66h16.85v4.24H161.72Z"/><path d="M209.46,110.23l13.46,42.55c1.58,4.76,2.16,5.4,4.39,5.91l1.8.21v3.46H211.4V158.9l5.69-.72-3.67-12.38h-18.8l-3.74,12.45,5.54.65v3.46H181V158.9l2-.28c2.52-.44,3.09-1.88,4.18-5.12l14.25-43.27Zm-5.41,5.54H204l-8.21,25.78h16.28Z"/><path d="M260.36,153.57c0,3.32.14,4.25,2,4.47l8,.86v3.46H247.75V158.9l2.89-.21c2.59-.22,2.73-.94,2.73-5.76V118.72c0-3.67-.43-4.68-2.88-4.89l-2.66-.22v-3.38H269c8.06,0,17.21,2.81,17.21,15,0,12.46-8.36,17.07-20.17,17.07h-5.68Zm6.19-15.76c10.08,0,12.1-6.34,12.1-12.46,0-7.49-3.89-10.66-11.31-10.66h-7v23.12Z"/><path d="M311.4,110.23l13.47,42.55c1.58,4.76,2.16,5.4,4.39,5.91l1.8.21v3.46H313.35V158.9l5.69-.72-3.67-12.38h-18.8l-3.74,12.45,5.54.65v3.46H283V158.9l2-.28c2.52-.44,3.1-1.88,4.18-5.12l14.25-43.27Zm-5.4,5.54h-.07l-8.21,25.78H314Z"/><path d="M372.6,154.65c0,3.24.72,3.53,2.16,3.68l6.05.57v3.46h-23.4V158.9l6-.57c1.44-.15,2.16-.44,2.16-3.68v-40.1h-6.77c-2.88,0-4,.65-4.75,3.09l-1.52,5.76-4.32.15.72-13.32h40.26l.72,13.32-4.32-.15-1.52-5.68c-.72-2.45-1.72-3.17-4.6-3.17H372.6Z"/><path d="M416.59,110.23l13.47,42.55c1.58,4.76,2.16,5.4,4.39,5.91l1.8.21v3.46H418.54V158.9l5.69-.72-3.68-12.38H401.76L398,158.25l5.54.65v3.46H388.15V158.9l2-.28c2.52-.44,3.09-1.88,4.17-5.12l14.26-43.27Zm-5.4,5.54h-.07l-8.21,25.78h16.28Z"/><path d="M477.79,154.65c0,3.24.72,3.53,2.16,3.68l6.05.57v3.46H462.6V158.9l6-.57c1.44-.15,2.16-.44,2.16-3.68v-40.1H464c-2.88,0-4,.65-4.75,3.09l-1.52,5.76-4.32.15.72-13.32h40.25l.73,13.32-4.32-.15-1.52-5.68c-.72-2.45-1.73-3.17-4.61-3.17h-6.91Z"/><path d="M529.2,162.07a10.55,10.55,0,0,1-4.9,1.08c-3.53,0-5.69-1.73-6.26-5.33-1.73,2.88-5.47,5.33-10.51,5.33-8.28,0-10.95-4.46-10.95-10.08,0-9.43,8.14-11.52,20.88-12v-4c0-5.76-1.94-7.84-6.84-7.84a25.05,25.05,0,0,0-10.73,2.3L498.6,128a25.56,25.56,0,0,1,13.32-3.81c7.34,0,11.88,3,11.88,12.67v18.58c0,3,.36,3.52,2.88,3.81l2.3.29Zm-11.74-17c-10.08.14-14,1.87-14,7.41,0,4,2.38,5.91,6.2,5.91,4.89,0,7.77-3.24,7.77-7.42Z"/><path d="M571.68,154.65c0,3.24.72,3.53,2.16,3.68l6,.57v3.46H556.48V158.9l6-.57c1.44-.15,2.16-.44,2.16-3.68v-40.1h-6.77c-2.88,0-4,.65-4.75,3.09l-1.51,5.76-4.32.15.72-13.32h40.25l.72,13.32-4.32-.15-1.51-5.68c-.72-2.45-1.73-3.17-4.61-3.17h-6.91Z"/><path d="M590.75,143.64c0-11.74,6.41-19.44,17.43-19.44,11.38,0,16.27,7.84,16.27,19.37,0,12-5.83,19.58-17.13,19.58C595.87,163.15,590.75,155.38,590.75,143.64Zm26.72-.07c0-10.45-3.53-15.2-9.65-15.2s-10.08,4.61-10.08,15.27,3.81,15.48,9.94,15.48C613.65,159.12,617.47,154.44,617.47,143.57Z"/><path d="M668.23,154.65c0,3.24.72,3.53,2.16,3.68l6.05.57v3.46H653V158.9l6.05-.57c1.44-.15,2.16-.44,2.16-3.68v-40.1h-6.77c-2.88,0-4,.65-4.75,3.09l-1.51,5.76-4.32.15.72-13.32h40.25l.72,13.32-4.32-.15-1.51-5.68c-.72-2.45-1.73-3.17-4.61-3.17h-6.91Z"/><path d="M709.27,161.14c-4.4,10.65-6,14-10.81,14.9a14.59,14.59,0,0,1-2.52.22,12.94,12.94,0,0,1-7.41-2.31l1.65-3.81a18.58,18.58,0,0,0,5.12.93c4.39,0,6.26-2.09,9.5-10l-11.66-28.51c-1.23-2.88-1.95-3.6-3.53-4l-1.73-.36.65-3.24h15.26v3.24l-5,.57L708,153h.15l9.5-24.2-5.33-.57.51-3.24h13.25v3.17l-1.08.14c-2.38.29-2.81,1.15-4.4,5Z"/><g class="b"><path d="M46.16,191.23l13.47,42.55c1.58,4.76,2.16,5.4,4.39,5.91l1.8.21v3.46H48.11V239.9l5.68-.72L50.12,226.8H31.33l-3.75,12.45,5.55.65v3.46H17.72V239.9l2-.28c2.52-.44,3.09-1.88,4.17-5.12l14.26-43.27Zm-5.4,5.54h-.07l-8.21,25.78H48.75Z"/><path d="M79.64,243.36,68.19,214.05c-1.37-3.45-1.8-4.17-3.81-4.61l-1.09-.21.65-3.24H78.06v3.24l-4.25.57,9.94,27.94H84l9.51-27.94-4.61-.57.5-3.24H102v3.17l-1,.14c-2.38.36-2.74.94-4,4.1l-10.23,30Z"/><path d="M141.49,238.32h.29l12.89-43.13-5.19-.58v-3.38h14.76v3.38l-2.09.22c-2.52.29-2.73.65-3.67,3.89l-13.54,44.64h-8.42L123.13,200.8c-1.59-4.68-1.88-5.54-4.11-6l-1.87-.22v-3.38h17.14v3.38l-5.62.79Z"/><path d="M193,239.33a21.3,21.3,0,0,1-13.47,4.82c-11.23,0-17-8.57-17-19.22,0-13.76,8.06-19.73,16.71-19.73,8.06,0,14.11,4.89,14.11,16.92a28,28,0,0,1-.22,3.74H169.57c.21,8.21,4.6,13,11.45,13a20.11,20.11,0,0,0,10.15-2.59Zm-6.41-17.79c.43-8.14-2.66-12.17-7.85-12.17s-8.78,3.75-9.22,12.17Z"/><path d="M239.05,191.23l13.46,42.55c1.59,4.76,2.16,5.4,4.39,5.91l1.8.21v3.46H241V239.9l5.69-.72L243,226.8h-18.8l-3.74,12.45,5.54.65v3.46H210.6V239.9l2-.28c2.52-.44,3.1-1.88,4.18-5.12l14.25-43.27Zm-5.4,5.54h-.08l-8.2,25.78h16.27Z"/><path d="M258.34,205l-1.51-1.87a11.75,11.75,0,0,0,4-6.91c-2.74-.15-4-1.8-4-4a4,4,0,0,1,4.25-4c2.3,0,4.75,1.51,4.75,5.47C265.83,198.07,262,202.89,258.34,205Zm11.74,0-1.52-1.87a11.64,11.64,0,0,0,4-6.91c-2.73-.15-4-1.8-4-4a4,4,0,0,1,4.25-4c2.31,0,4.75,1.51,4.75,5.47C277.56,198.07,273.75,202.89,270.08,205Z"/><path d="M323.21,191.23l13.47,42.55c1.58,4.76,2.16,5.4,4.39,5.91l1.8.21v3.46H325.16V239.9l5.68-.72-3.67-12.38H308.38l-3.75,12.45,5.55.65v3.46H294.77V239.9l2-.28c2.52-.44,3.09-1.88,4.17-5.12l14.26-43.27Zm-5.4,5.54h-.07l-8.21,25.78H325.8Z"/><path d="M355.32,201.38l9.51-5,2.81,5.83-.8.72-11.3.51,8.71,7.2-4.46,4.68-.94-.58-4.54-10.15-4.6,10.15-.94.58-4.46-4.68,8.71-7.2-11.31-.51-.79-.72,2.81-5.83,9.5,5-2-10.44,6.41-.86.43,1Z"/><path d="M410.4,238.32h.29l12.89-43.13-5.19-.58v-3.38h14.77v3.38l-2.09.22c-2.52.29-2.74.65-3.68,3.89l-13.53,44.64h-8.43L392,200.8c-1.58-4.68-1.87-5.54-4.1-6l-1.88-.22v-3.38H403.2v3.38l-5.62.79Z"/><path d="M432.58,254.16l-1.88-2.45c2.81-2.3,4.25-4.61,4.61-7.63-2.95-.22-4.53-1.87-4.53-4.11a4.25,4.25,0,0,1,4.53-4.6c3,0,5.11,1.51,5.11,5.61A16,16,0,0,1,432.58,254.16Z"/><path d="M462,251.93l-1.51-1.87a11.74,11.74,0,0,0,4-6.92c-2.74-.14-4-1.8-4-4a4,4,0,0,1,4.25-4c2.3,0,4.75,1.51,4.75,5.47C469.51,245,465.69,249.84,462,251.93Zm11.74,0-1.51-1.87a11.74,11.74,0,0,0,4-6.92c-2.74-.14-4-1.8-4-4a4,4,0,0,1,4.25-4c2.3,0,4.75,1.51,4.75,5.47C481.25,245,477.43,249.84,473.76,251.93Z"/><path d="M502.63,238.32h.29l12.89-43.13-5.19-.58v-3.38h14.77v3.38l-2.09.22c-2.52.29-2.74.65-3.68,3.89l-13.53,44.64h-8.43L484.27,200.8c-1.58-4.68-1.87-5.54-4.1-6l-1.88-.22v-3.38h17.14v3.38l-5.62.79Z"/><path d="M556.34,234.57c0,3.32.15,4.25,2,4.47l8,.86v3.46H543.74V239.9l2.88-.21c2.59-.22,2.74-.94,2.74-5.76V199.72c0-3.67-.44-4.68-2.88-4.89l-2.67-.22v-3.38H565c8.07,0,17.21,2.81,17.21,15,0,12.46-8.35,17.07-20.16,17.07h-5.69Zm6.19-15.76c10.09,0,12.1-6.34,12.1-12.46,0-7.49-3.89-10.66-11.3-10.66h-7v23.12Z"/><path d="M585.5,244.22c-2.81,0-4.68-1.51-4.68-4.46s1.87-4.32,4.68-4.32c3,0,5,1.51,5,4.32S588.6,244.22,585.5,244.22Z"/><path d="M617.11,243.36l19.08-46.08H620.92c-3.52,0-4.32.28-5,2.8l-1.08,4-4.46.29,1.29-13.1H643V195L624.6,243.36Z"/><path d="M646.48,244.22c-2.81,0-4.68-1.51-4.68-4.46s1.87-4.32,4.68-4.32c3,0,5,1.51,5,4.32S649.58,244.22,646.48,244.22Z"/><path d="M673.62,240.12c3-.36,3.17-.94,3.17-5.76V210.24h-4.6l.35-3.39,4.25-.86V201.6c0-6.41,2.45-12.17,11.31-12.17a18.78,18.78,0,0,1,9,2.23l-.36,7.7-4.39-.36-.72-3.31c-.36-1.58-1.44-2.09-3.53-2.09-3.39,0-4.9,1.8-4.9,6.7V206h10.95l-.44,4.25H683.2v24.12c0,4.68.58,5,4.68,5.61l2.88.29v3.1H672.4v-3.1Z"/><path d="M704.73,188.42c8.42,9,13.32,21.67,13.32,32.11,0,15.85-7.34,26.65-15.84,34.42L700,253.44c6-8.5,10.44-18.07,10.44-31.75,0-12.61-3.39-22.54-8.07-31.9Z"/><path d="M751,255c-8.42-9-13.32-21.67-13.32-32.11,0-15.84,7.35-26.64,15.84-34.42l2.23,1.51c-6,8.5-10.44,18.07-10.44,31.76,0,12.6,3.39,22.53,8.07,31.89Z"/><path d="M773.7,234.07c0,12.17-2.3,17.07-11.66,22.9l-2-2.88c4.18-3.17,7.2-7.92,7.2-17.43V214.92c0-3.32-.93-4.25-3.45-4.68l-2.09-.36.43-3,10.51-1.29,1.08.5Zm-3.6-35.93c-2.88,0-4.68-1.58-4.68-4.61s1.8-4.46,4.68-4.46,4.76,1.51,4.76,4.46S773.13,198.14,770.1,198.14Z"/><path d="M715.53,494.85h6.86V488h-6.86Zm.31,46a6,6,0,0,1-1.85,4.66,7.1,7.1,0,0,1-5.08,1.73v6.09q6,0,9.59-3.32t3.58-9.16V502.09h-6.24Zm-10.39-28c0-.36,0-1.22.07-2.58s.17-3,.35-4.89.44-4,.77-6.19a63,63,0,0,1,1.31-6.51,34.66,34.66,0,0,1,2-5.78,11.43,11.43,0,0,1,2.81-4l-4.62-4.16a20.74,20.74,0,0,0-3.46,5.24,43.92,43.92,0,0,0-2.47,6.47,59.32,59.32,0,0,0-1.58,6.89c-.38,2.33-.69,4.52-.92,6.54s-.37,3.84-.42,5.43-.08,2.77-.08,3.54V517c0,.72,0,1.87.08,3.46s.19,3.4.42,5.43.54,4.21.92,6.55a61.93,61.93,0,0,0,1.58,6.93,46.88,46.88,0,0,0,2.43,6.5,19,19,0,0,0,3.5,5.24l4.62-4.16a11.43,11.43,0,0,1-2.81-4,34.82,34.82,0,0,1-2-5.74,61.18,61.18,0,0,1-1.31-6.47q-.5-3.35-.77-6.2c-.18-1.89-.3-3.52-.35-4.88s-.07-2.25-.07-2.66ZM668.18,517c0,.41,0,1.3-.08,2.66s-.16,3-.34,4.88-.44,4-.77,6.2a63.8,63.8,0,0,1-1.31,6.47,35.77,35.77,0,0,1-2,5.74,11.45,11.45,0,0,1-2.82,4l4.62,4.16A20.58,20.58,0,0,0,669,545.9a43.42,43.42,0,0,0,2.46-6.5,57.8,57.8,0,0,0,1.58-6.93q.59-3.51.93-6.55c.23-2,.37-3.83.42-5.43s.08-2.74.08-3.46v-4.24c0-.77,0-1.95-.08-3.54s-.19-3.4-.42-5.43-.54-4.21-.93-6.54a55.48,55.48,0,0,0-1.58-6.89,43.89,43.89,0,0,0-2.46-6.47,20.76,20.76,0,0,0-3.47-5.24l-4.62,4.16a11.45,11.45,0,0,1,2.82,4,35.59,35.59,0,0,1,2,5.78,65.74,65.74,0,0,1,1.31,6.51c.33,2.23.59,4.3.77,6.19s.29,3.53.34,4.89.08,2.22.08,2.58Zm-30.11-8.86h3.47v31.42h6.16V508.17h10.47v-6.08H647.7v-1.62a6.34,6.34,0,0,1,1.69-4.65,6.07,6.07,0,0,1,4.55-1.74h4.23V488h-4.23q-5.7,0-9.05,3.31t-3.35,9.16v1.62h-3.47Zm-32.8,31.42h6.78v-8.32h-6.78Zm-24.64-43.51v11h6.24v-4.93h15.48l-17.25,45h6.54l17.56-45.67v-5.39Zm-33.11,43.51h6.78v-8.32h-6.78Zm-25.79-45.51h14.4a10.71,10.71,0,0,1,7,2.16,7.38,7.38,0,0,1,2.65,6.08v2.77a7.49,7.49,0,0,1-2.61,6.05,10.6,10.6,0,0,1-7,2.19h-14.4ZM515.42,488v51.59h6.31v-20.1h14.4q7.32,0,11.59-3.85T552,505.09v-2.77q0-6.69-4.27-10.51T536.13,488Zm-45.28,41.27L457.36,488h-6.47l16.94,51.59h4.62L489.39,488h-6.47ZM440,539.82h2.54v1.62a3.4,3.4,0,0,1-.5,1.77,4.35,4.35,0,0,1-2,1.54V549a11.46,11.46,0,0,0,3.51-1.57,7.33,7.33,0,0,0,2.08-2.24,8.62,8.62,0,0,0,1-2.81,19.66,19.66,0,0,0,.27-3.39V531.5H440Zm-8.85,0h2.54v1.62a3.49,3.49,0,0,1-.5,1.77,4.46,4.46,0,0,1-2,1.54V549a11.4,11.4,0,0,0,3.5-1.57,7.21,7.21,0,0,0,2.08-2.24,8.4,8.4,0,0,0,1-2.81A19.66,19.66,0,0,0,438,539V531.5h-6.85Zm-33.88-.23h2.54v1.62a4.91,4.91,0,0,1-.5,2.5,5,5,0,0,1-2,1.58v4.23a11.9,11.9,0,0,0,3.5-1.54,6.43,6.43,0,0,0,2.08-2.27,8.91,8.91,0,0,0,1-3.08,30.28,30.28,0,0,0,.23-3.89v-7.47H397.3Zm-12.17-10.32L372.35,488h-6.47l16.94,51.59h4.62L404.38,488h-6.46Zm-70-12.55,7.24,4.08L315.22,525l3,5.31,7.16-4.16v8.32h6.09v-8.32l7.16,4.16,3-5.23-7.16-4.16,7.08-4.08-2.92-5.32-7.16,4.16v-8.31h-6.09v8.31l-7.16-4.16Zm-28.56,4.77,6.69-23.17,6.7,23.17Zm25.87,18.1L296.28,488h-6L274.1,539.59h6.62l3.85-11.94H302l3.85,11.94ZM241.53,490h2.54v1.7a3.28,3.28,0,0,1-.5,1.73,5,5,0,0,1-2,1.58v4.23a11.06,11.06,0,0,0,3.5-1.58,7.07,7.07,0,0,0,2.08-2.23,8.54,8.54,0,0,0,1-2.85,19.85,19.85,0,0,0,.27-3.35v-7.47h-6.85Zm-8.85,0h2.54v1.7a3.28,3.28,0,0,1-.5,1.73,5.1,5.1,0,0,1-2,1.58v4.23a11.27,11.27,0,0,0,3.5-1.58,7.07,7.07,0,0,0,2.08-2.23,8.54,8.54,0,0,0,1-2.85,19.85,19.85,0,0,0,.27-3.35v-7.47h-6.85Zm-20.49,31.49,6.7-23.17,6.7,23.17Zm25.87,18.1L221.89,488h-6l-16.17,51.59h6.62l3.85-11.94h17.4l3.85,11.94Zm-86.7-25a6.54,6.54,0,0,1,2.16-5.2,10,10,0,0,1,11.7,0,6.77,6.77,0,0,1,2.24,5.2v2.54h-16.1Zm0,8.09h22.33v-8.09a12.68,12.68,0,0,0-3.92-9.62q-3.86-3.54-10.4-3.55T149,505a12.34,12.34,0,0,0-3.89,9.62V527a12.34,12.34,0,0,0,3.89,9.62q3.89,3.55,10.35,3.55a14.79,14.79,0,0,0,9.47-2.93,13.12,13.12,0,0,0,4.7-8.16l-6.24-.77a6.82,6.82,0,0,1-2.73,4.27,8.75,8.75,0,0,1-5.2,1.5,8.62,8.62,0,0,1-5.85-1.88,6.54,6.54,0,0,1-2.16-5.2Zm-24,6.54L114.56,488h-6.47L125,539.59h4.62L146.59,488h-6.47ZM52.11,502.09l12.78,37.5h6.24L84,502.09H77.52L68,530.43l-9.54-28.34Zm-21.4,19.4,6.69-23.17,6.7,23.17Zm25.87,18.1L40.41,488h-6L18.23,539.59h6.62l3.85-11.94H46.11L50,539.59Z"/><path d="M630.3,421.09v25a12.38,12.38,0,0,0,3.89,9.62,13.68,13.68,0,0,0,9.59,3.55,14.09,14.09,0,0,0,5.19-.85,8.5,8.5,0,0,0,3.66-2.93v3.62a6.5,6.5,0,0,1-2.19,5.2,8.74,8.74,0,0,1-5.89,1.89,9.94,9.94,0,0,1-4.16-.85,7.27,7.27,0,0,1-3-2.54l-5.54,2.85a13.32,13.32,0,0,0,5.27,4.92,16,16,0,0,0,7.44,1.7q6.54,0,10.39-3.54a12.67,12.67,0,0,0,3.93-9.63v-38h-6.24v25a6.79,6.79,0,0,1-2.23,5.2,10.06,10.06,0,0,1-11.71,0,6.57,6.57,0,0,1-2.15-5.2v-25Zm-35.88-8h15.17v45.51h6.23V413.08H631V407H594.42Zm-48,20.56a6.57,6.57,0,0,1,2.15-5.2,10,10,0,0,1,11.75,0,6.54,6.54,0,0,1,2.19,5.16V446a6.5,6.5,0,0,1-2.19,5.2,8.78,8.78,0,0,1-5.89,1.88,8.63,8.63,0,0,1-5.86-1.88,6.57,6.57,0,0,1-2.15-5.2ZM540.21,446a12.38,12.38,0,0,0,3.89,9.62q3.89,3.55,10.36,3.55t10.43-3.51q3.89-3.49,3.89-9.66v-12.4a12.43,12.43,0,0,0-3.89-9.59q-3.89-3.57-10.43-3.58T544.1,424a12.38,12.38,0,0,0-3.89,9.62Zm-34-33h15.17v45.51h6.23V413.08h15.17V407H506.18Zm-33.8,38.31a9.13,9.13,0,0,1-5.86,1.73,9.3,9.3,0,0,1-5.89-1.73,5.64,5.64,0,0,1-2.19-4.66,5.53,5.53,0,0,1,2.19-4.62,11,11,0,0,1,11.59-.08,5.9,5.9,0,0,1,2.31,4.7,5.69,5.69,0,0,1-2.15,4.66m-13.79-19.06a6.8,6.8,0,0,1,2.74-4.27,8.74,8.74,0,0,1,5.19-1.5,8.63,8.63,0,0,1,5.86,1.88,6.57,6.57,0,0,1,2.15,5.2V437a10.79,10.79,0,0,0-3.62-2,13.83,13.83,0,0,0-4.39-.7q-6.54,0-10.43,3.32a11.29,11.29,0,0,0-3.89,9.08,11.45,11.45,0,0,0,3.89,9.13q3.89,3.34,10.43,3.35a14.24,14.24,0,0,0,4.47-.74,7.81,7.81,0,0,0,3.54-2.19v2.31h6.24V433.64a12.38,12.38,0,0,0-3.89-9.62q-3.88-3.54-10.36-3.55a14.81,14.81,0,0,0-9.47,2.93,13.11,13.11,0,0,0-4.69,8.16Zm-40-19.25h15.17v45.51H440V413.08h15.17V407H418.55Zm-49.66,27.41,6.7-23.17,6.7,23.17Zm25.87,18.1L378.59,407h-6l-16.17,51.59H363l3.85-11.94h17.4l3.85,11.94Zm-68.84-45.51h15.17v45.51h6.24V413.08H362.5V407H325.92Zm-49.66,27.41,6.7-23.17,6.7,23.17Zm25.87,18.1L286,407h-6l-16.17,51.59h6.63l3.85-11.94h17.4l3.85,11.94ZM237,413.08h14.4a10.68,10.68,0,0,1,7,2.16,7.36,7.36,0,0,1,2.66,6.08v2.77a7.47,7.47,0,0,1-2.62,6.05,10.55,10.55,0,0,1-7,2.19H237ZM230.67,407v51.59H237v-20.1h14.4c4.87,0,8.74-1.28,11.58-3.85s4.28-6.08,4.28-10.55v-2.77q0-6.69-4.28-10.51c-2.84-2.54-6.71-3.81-11.58-3.81Zm-52,33.49,6.7-23.17,6.7,23.17Zm25.87,18.1L188.4,407h-6l-16.17,51.59h6.62l3.85-11.94h17.4L198,458.59Zm-65.83,0H145V436.18h20V430.1H145v-17h24.57V407h-30.8Zm-74.23,0h7.08l9.78-39.81,9.78,39.81h7.09L111.94,407h-6.62L94.69,447.66,84.84,407H77.91l-9.86,40.5L57.43,407H50.8Zm-33.8-18.1,6.69-23.17,6.7,23.17Zm25.87,18.1L40.41,407h-6L18.23,458.59h6.62l3.85-11.94H46.11L50,458.59Z"/><path d="M607.5,326v51.59h6.24V366.12l2.61-2.93,12.94,14.4h8.39q-1.92-2.16-17.09-19.25l16.32-18.25h-8.16l-15,16.79V326Zm-14.25,3.46h2.55v1.7a2.84,2.84,0,0,1-.5,1.54,5.23,5.23,0,0,1-2,1.54v4.23a11.46,11.46,0,0,0,3.51-1.57,7.21,7.21,0,0,0,2.08-2.24,7.93,7.93,0,0,0,1-2.77,21.6,21.6,0,0,0,.23-3.2v-7.46h-6.78ZM580.63,326v41.19c0,3.44.93,6.14,2.81,8.09a10.22,10.22,0,0,0,7.74,2.93h2.46v-6.09h-2.46c-1.65,0-2.78-.48-3.39-1.46a6.34,6.34,0,0,1-.93-3.47V326Zm-37,6.85h6.85V326h-6.85Zm.31,46a6.09,6.09,0,0,1-1.85,4.66,7.11,7.11,0,0,1-5.08,1.73v6.09q6,0,9.59-3.32t3.58-9.16V340.09H543.9ZM517,352.64a6.5,6.5,0,0,1,2.19-5.2,10.12,10.12,0,0,1,11.59-.11,6.44,6.44,0,0,1,2.31,4.93v13.16a6.44,6.44,0,0,1-2.31,4.93,10.12,10.12,0,0,1-11.59-.11A6.5,6.5,0,0,1,517,365ZM533,340.09v3.16a8.56,8.56,0,0,0-4-2.89,14.26,14.26,0,0,0-4.74-.89A13.81,13.81,0,0,0,514.6,343a12.38,12.38,0,0,0-3.89,9.62V365a12.38,12.38,0,0,0,3.89,9.62q3.89,3.55,10.43,3.55a11.59,11.59,0,0,0,4.39-.81,14.17,14.17,0,0,0,3.62-2.12v2.77a6.5,6.5,0,0,1-2.19,5.2,8.6,8.6,0,0,1-5.82,1.89,8.37,8.37,0,0,1-7.23-3.39l-5.55,2.85a13.32,13.32,0,0,0,5.32,4.92,16.1,16.1,0,0,0,7.46,1.7q6.56,0,10.36-3.54a12.75,12.75,0,0,0,3.89-9.63v-38ZM469.9,326v41.19q0,5.16,2.81,8.09a10.25,10.25,0,0,0,7.74,2.93h2.47v-6.09h-2.47c-1.64,0-2.77-.48-3.38-1.46a6.34,6.34,0,0,1-.93-3.47V326Zm-49.66,51.59v-37.5H414v25.33a6.2,6.2,0,0,1-2.28,4.93,10.16,10.16,0,0,1-11.62-.11,6.48,6.48,0,0,1-2.2-5.2v-25h-6.24v25q0,6.07,3.62,9.62t9.94,3.55a13.29,13.29,0,0,0,4.69-.93,9.92,9.92,0,0,0,4.09-2.77v3.08ZM331.39,322l-7.47,12.78h6.85L339.16,322Zm2.38,48.39a9,9,0,0,1-5.85,1.73,9.22,9.22,0,0,1-5.89-1.73,5.63,5.63,0,0,1-2.19-4.66,5.53,5.53,0,0,1,2.19-4.62,11,11,0,0,1,11.59-.08,5.93,5.93,0,0,1,2.31,4.7,5.66,5.66,0,0,1-2.16,4.66M320,351.33a6.82,6.82,0,0,1,2.73-4.27,8.79,8.79,0,0,1,5.2-1.5,8.6,8.6,0,0,1,5.85,1.88,6.54,6.54,0,0,1,2.16,5.2V356a10.79,10.79,0,0,0-3.62-2,13.87,13.87,0,0,0-4.39-.7q-6.54,0-10.43,3.32a11.26,11.26,0,0,0-3.89,9.08,11.41,11.41,0,0,0,3.89,9.13q3.88,3.34,10.43,3.35a14.24,14.24,0,0,0,4.47-.74,7.87,7.87,0,0,0,3.54-2.19v2.31h6.24V352.64a12.38,12.38,0,0,0-3.89-9.62q-3.9-3.54-10.36-3.55a14.79,14.79,0,0,0-9.47,2.93,13.16,13.16,0,0,0-4.7,8.16ZM226.9,336.55h7l6.31-7.32,6.39,7.32h6.93l-10.39-12.78h-5.78Zm10.09,41h6.23v-37.5H237Zm-40.2-45.51H212v45.51h6.24V332.08h15.17V326H196.79Zm-37.11.54h6.78v-8.31h-6.78Zm-12.32,0h6.78v-8.31h-6.78Zm15.4,37.77a9.06,9.06,0,0,1-5.85,1.73,9.2,9.2,0,0,1-5.89-1.73,5.61,5.61,0,0,1-2.2-4.66,5.51,5.51,0,0,1,2.2-4.62,11,11,0,0,1,11.59-.08,6,6,0,0,1,2.31,4.7,5.66,5.66,0,0,1-2.16,4.66M149,351.33a6.82,6.82,0,0,1,2.73-4.27,8.75,8.75,0,0,1,5.2-1.5,8.62,8.62,0,0,1,5.85,1.88,6.54,6.54,0,0,1,2.16,5.2V356a10.89,10.89,0,0,0-3.62-2,13.87,13.87,0,0,0-4.39-.7c-4.37,0-7.84,1.11-10.44,3.32a11.28,11.28,0,0,0-3.88,9.08,11.44,11.44,0,0,0,3.88,9.13c2.6,2.23,6.07,3.35,10.44,3.35a14.18,14.18,0,0,0,4.46-.74,7.9,7.9,0,0,0,3.55-2.19v2.31h6.23V352.64a12.34,12.34,0,0,0-3.89-9.62q-3.88-3.54-10.35-3.55a14.79,14.79,0,0,0-9.47,2.93,13.12,13.12,0,0,0-4.7,8.16Zm-40.12-19.25H124v45.51h6.24V332.08h15.16V326H108.86Zm-32.65-6.62a6.45,6.45,0,0,1-2,4,7.9,7.9,0,0,1-10.16,0,6.66,6.66,0,0,1-1.93-4H55.73q.54,5.48,3.77,8.39a13.83,13.83,0,0,0,9.63,3.55,13.83,13.83,0,0,0,9.62-3.47Q82,331,82.53,325.46Zm-1.38,44.93A9.07,9.07,0,0,1,69,372.12a9.24,9.24,0,0,1-5.89-1.73,5.63,5.63,0,0,1-2.19-4.66,5.53,5.53,0,0,1,2.19-4.62A9.41,9.41,0,0,1,69,359.42a9.29,9.29,0,0,1,5.7,1.61,5.9,5.9,0,0,1,2.31,4.7,5.68,5.68,0,0,1-2.15,4.66M61,351.33a6.8,6.8,0,0,1,2.74-4.27,8.74,8.74,0,0,1,5.19-1.5,8.63,8.63,0,0,1,5.86,1.88,6.57,6.57,0,0,1,2.15,5.2V356a10.7,10.7,0,0,0-3.62-2,13.83,13.83,0,0,0-4.39-.7q-6.54,0-10.43,3.32a11.29,11.29,0,0,0-3.89,9.08,11.45,11.45,0,0,0,3.89,9.13q3.89,3.34,10.43,3.35a14.24,14.24,0,0,0,4.47-.74A7.81,7.81,0,0,0,77,375.28v2.31h6.24V352.64A12.38,12.38,0,0,0,79.33,343q-3.89-3.54-10.36-3.55a14.81,14.81,0,0,0-9.47,2.93,13.11,13.11,0,0,0-4.69,8.16ZM37.4,367.27,24.62,326H18.15l16.94,51.59h4.62L56.65,326H50.19Z"/></g><line class="e" x1="20" y1="300" x2="780.5" y2="300"/><path class="f" d="M782,300h0M17,300h0"/></g></svg>